<?xml version="1.0" standalone="no"?>
<!DOCTYPE svg PUBLIC "-//W3C//DTD SVG 1.1//EN" "http://www.w3.org/Graphics/SVG/1.1/DTD/svg11.dtd">
<svg width="500" height="500" title="polygons" version="1.1" viewBox="0 0 500 500" xmlns="http://www.w3.org/2000/svg" class="svg-paper">
  <g>
    <!--  Created by Sandify -->
    <!--  https://sandify.org -->
    <!--  Version: 0.2.8 -->

    <!--  Machine type: Rectangular -->
    <!--    Min X (mm): 0 -->
    <!--    Max X (mm): 500 -->
    <!--    Min Y (mm): 0 -->
    <!--    Max Y (mm): 500 -->
    <!--  Content type: shape -->
    <!--  Layer: -->
    <!--    Shape: Clover -->
    <!--    Name: bubbles -->
    <!--    Large circle radius: 13 -->
    <!--    Small circle radius: 1 -->
    <!--    Visible: true -->
    <!--    Initial width: 6 -->
    <!--    Initial height: 6 -->
    <!--    X offset: 0 -->
    <!--    Y offset: 0 -->
    <!--    Rotate (degrees): 0 -->
    <!--    Reverse path: false -->
    <!--    Number of loops: 39 -->
    <!--    When transforming shape: smear -->
    <!--    Scale: true -->
    <!--      Scale (+/-): 100 -->
    <!--      Scale by: function -->
    <!--        undefined: i+cos(i/2) -->
    <!--    Spin: false -->
    <!--    Track: false -->
    <!--    Fine tuning: -->
    <!--      Connect to next layer: line -->
    <!--      Draw portion of path (%): 100 -->
    <!--      Backtrack at end (%): 0 -->
    <!--      Rotate starting point (%): 0 -->
    <!--  Reverse export path: false -->

    <!-- File name: 'clover16' -->
    <!-- File type: svg -->


    <desc>pwidth:500;pheight:500;</desc>
    <path
       stroke="#000000"
       stroke-width="0.4mm"
       fill="none"
       d="M255.2,250L255.2,250L255.33,249.98L255.58,249.84L255.86,249.52L256.05,249.03L256.04,248.47L255.84,247.95L255.52,247.59L255.20,247.42L254.99,247.40L254.97,247.39L255.09,247.29L255.26,247.00L255.34,246.53L255.23,245.97L254.91,245.46L254.45,245.1L253.97,244.96L253.6,244.98L253.42,245.06L253.41,245.05L253.48,244.86L253.48,244.48L253.29,244.00L252.87,243.54L252.30,243.24L251.68,243.17L251.18,243.30L250.88,243.52L250.77,243.66L250.77,243.63L250.72,243.40L250.50,243.03L250.04,242.68L249.41,242.49L248.72,242.54L248.14,242.81L247.77,243.19L247.62,243.53L247.61,243.69L247.58,243.63L247.38,243.42L246.96,243.20L246.34,243.13L245.65,243.31L245.06,243.73L244.69,244.28L244.57,244.80L244.61,245.16L244.67,245.28L244.59,245.22L244.27,245.13L243.75,245.17L243.13,245.45L242.61,245.99L242.30,246.68L242.27,247.37L242.44,247.88L242.65,248.15L242.74,248.21L242.60,248.20L242.23,248.29L241.76,248.63L241.35,249.22L241.17,250L241.27,250.78L241.60,251.40L242.01,251.75L242.32,251.87L242.39,251.88L242.23,251.96L241.93,252.26L241.67,252.84L241.63,253.61L241.88,254.41L242.39,255.05L243.00,255.41L243.53,255.50L243.83,255.45L243.87,255.43L243.74,255.63L243.63,256.10L243.71,256.78L244.10,257.50L244.75,258.08L245.54,258.37L246.26,258.36L246.75,258.17L246.96,257.99L246.97,257.99L246.96,258.28L247.12,258.79L247.57,259.37L248.32,259.82L249.21,259.98L250.06,259.82L250.67,259.44L250.99,259.03L251.06,258.80L251.08,258.84L251.24,259.13L251.68,259.53L252.42,259.81L253.33,259.81L254.21,259.47L254.87,258.89L255.20,258.25L255.26,257.76L255.21,257.55L255.27,257.62L255.61,257.82L256.24,257.94L257.07,257.79L257.89,257.29L258.49,256.53L258.75,255.68L258.71,254.97L258.52,254.54L258.40,254.41L258.53,254.45L258.98,254.45L259.64,254.21L260.31,253.62L260.78,252.74L260.90,251.75L260.69,250.88L260.28,250.29L259.76,250L259.95,249.96L260.38,249.70L260.86,249.11L261.15,248.21L261.09,247.18L260.68,246.25L260.04,245.62L259.42,245.33L259.01,245.30L258.92,245.32L259.11,245.15L259.37,244.66L259.48,243.85L259.25,242.88L258.66,242.00L257.81,241.40L256.94,241.18L256.27,241.26L255.93,241.43L255.9,241.45L255.99,241.16L255.96,240.54L255.62,239.74L254.89,238.99L253.90,238.53L252.85,238.45L251.99,238.71L251.47,239.11L251.29,239.39L251.29,239.37L251.20,239.02L250.82,238.45L250.07,237.91L249.02,237.63L247.9,237.75L246.95,238.23L246.36,238.89L246.13,239.47L246.12,239.76L246.08,239.70L245.78,239.39L245.12,239.07L244.13,238.99L243.05,239.30L242.13,240L241.56,240.91L241.39,241.76L241.49,242.35L241.60,242.56L241.50,242.49L241.02,242.37L240.22,242.44L239.29,242.90L238.50,243.75L238.06,244.85L238.04,245.92L238.33,246.73L238.68,247.15L238.85,247.25L238.66,247.24L238.13,247.39L237.43,247.91L236.84,248.82L236.59,250L236.78,251.18L237.31,252.11L237.96,252.64L238.45,252.81L238.59,252.81L238.37,252.93L237.94,253.38L237.58,254.23L237.55,255.37L237.95,256.54L238.73,257.47L239.66,257.99L240.46,258.11L240.92,258.01L241.00,257.98L240.83,258.24L240.68,258.91L240.82,259.89L241.40,260.92L242.38,261.74L243.53,262.14L244.59,262.11L245.31,261.81L245.62,261.52L245.64,261.51L245.63,261.89L245.87,262.60L246.53,263.41L247.60,264.02L248.88,264.23L250.08,263.97L250.96,263.41L251.40,262.81L251.51,262.46L251.53,262.50L251.75,262.89L252.37,263.42L253.40,263.79L254.68,263.77L255.90,263.28L256.81,262.44L257.26,261.52L257.33,260.82L257.25,260.51L257.33,260.59L257.78,260.85L258.65,261.00L259.78,260.77L260.9,260.08L261.71,259.00L262.05,257.82L261.97,256.83L261.69,256.23L261.51,256.04L261.68,256.09L262.27,256.08L263.15,255.74L264.05,254.93L264.67,253.72L264.81,252.37L264.50,251.19L263.93,250.40L263.21,250L263.45,249.95L264.01,249.60L264.63,248.80L265.00,247.60L264.90,246.22L264.33,244.97L263.46,244.12L262.60,243.75L262.04,243.72L261.91,243.75L262.14,243.54L262.48,242.89L262.61,241.82L262.29,240.55L261.48,239.39L260.34,238.61L259.18,238.33L258.28,238.45L257.83,238.69L257.78,238.73L257.89,238.36L257.84,237.55L257.38,236.52L256.42,235.55L255.11,234.96L253.73,234.88L252.60,235.24L251.93,235.77L251.69,236.16L251.68,236.15L251.56,235.70L251.07,234.98L250.09,234.29L248.73,233.95L247.28,234.12L246.05,234.76L245.29,235.63L245.00,236.39L244.99,236.78L244.95,236.71L244.57,236.33L243.71,235.94L242.46,235.85L241.08,236.26L239.90,237.17L239.18,238.34L238.97,239.45L239.11,240.21L239.27,240.49L239.14,240.41L238.55,240.26L237.54,240.37L236.37,240.96L235.37,242.06L234.82,243.45L234.81,244.82L235.19,245.85L235.66,246.39L235.88,246.52L235.65,246.51L234.99,246.71L234.13,247.36L233.40,248.51L233.10,250L233.35,251.49L234.03,252.66L234.86,253.32L235.48,253.53L235.67,253.53L235.40,253.68L234.88,254.24L234.45,255.30L234.41,256.72L234.93,258.18L235.92,259.34L237.09,259.98L238.1,260.12L238.68,259.99L238.78,259.94L238.58,260.26L238.41,261.09L238.59,262.29L239.32,263.57L240.54,264.57L241.98,265.06L243.29,265.00L244.19,264.62L244.58,264.26L244.61,264.23L244.60,264.69L244.90,265.56L245.71,266.55L247.03,267.30L248.62,267.53L250.10,267.21L251.18,266.51L251.72,265.76L251.85,265.31L251.87,265.35L252.14,265.82L252.90,266.47L254.17,266.91L255.73,266.87L257.23,266.26L258.33,265.22L258.88,264.09L258.96,263.22L258.86,262.84L258.95,262.93L259.49,263.24L260.55,263.41L261.92,263.13L263.28,262.27L264.25,260.96L264.67,259.51L264.56,258.3L264.21,257.57L263.98,257.34L264.18,257.40L264.88,257.38L265.95,256.96L267.03,255.97L267.76,254.51L267.93,252.87L267.54,251.44L266.85,250.48L265.97,250L266.25,249.94L266.92,249.52L267.66,248.56L268.09,247.1L267.97,245.44L267.27,243.94L266.21,242.92L265.17,242.47L264.49,242.44L264.33,242.48L264.60,242.23L265.00,241.45L265.14,240.17L264.76,238.65L263.78,237.26L262.41,236.34L261.00,236.01L259.93,236.15L259.38,236.44L259.32,236.50L259.44,236.06L259.38,235.11L258.83,233.87L257.68,232.73L256.10,232.03L254.45,231.94L253.11,232.37L252.3,233.01L252.02,233.48L252.00,233.48L251.87,232.95L251.28,232.10L250.11,231.29L248.49,230.88L246.76,231.09L245.30,231.86L244.39,232.90L244.05,233.81L244.04,234.28L244.00,234.21L243.55,233.76L242.53,233.30L241.05,233.20L239.41,233.69L238.02,234.78L237.17,236.18L236.93,237.50L237.09,238.39L237.28,238.73L237.13,238.64L236.44,238.47L235.25,238.60L233.87,239.30L232.69,240.60L232.05,242.26L232.04,243.88L232.49,245.09L233.05,245.73L233.32,245.89L233.06,245.88L232.28,246.11L231.26,246.88L230.41,248.25L230.06,250L230.36,251.76L231.17,253.14L232.15,253.92L232.89,254.16L233.12,254.16L232.80,254.33L232.20,254.99L231.69,256.24L231.65,257.91L232.27,259.63L233.43,260.99L234.81,261.74L236.01,261.90L236.69,261.74L236.82,261.68L236.58,262.06L236.38,263.03L236.60,264.44L237.46,265.94L238.89,267.11L240.58,267.68L242.13,267.61L243.18,267.16L243.64,266.73L243.67,266.69L243.66,267.24L244.01,268.25L244.97,269.40L246.52,270.28L248.38,270.55L250.12,270.17L251.38,269.34L252.02,268.46L252.17,267.94L252.19,267.98L252.51,268.53L253.40,269.28L254.88,269.80L256.71,269.75L258.46,269.02L259.75,267.81L260.39,266.48L260.48,265.47L260.36,265.02L260.46,265.12L261.10,265.48L262.33,265.68L263.94,265.35L265.52,264.34L266.66,262.81L267.14,261.12L267.01,259.70L266.60,258.84L266.33,258.57L266.56,258.64L267.38,258.62L268.62,258.13L269.88,256.98L270.74,255.27L270.93,253.35L270.48,251.68L269.67,250.56L268.64,250L268.96,249.93L269.74,249.44L270.60,248.31L271.11,246.62L270.96,244.68L270.15,242.93L268.91,241.74L267.70,241.22L266.90,241.18L266.71,241.23L267.02,240.94L267.49,240.03L267.66,238.54L267.21,236.77L266.07,235.15L264.47,234.07L262.83,233.69L261.57,233.86L260.94,234.20L260.86,234.26L261.01,233.75L260.94,232.64L260.29,231.20L258.95,229.87L257.11,229.06L255.19,228.95L253.62,229.46L252.68,230.21L252.35,230.75L252.33,230.75L252.17,230.13L251.49,229.14L250.13,228.19L248.24,227.73L246.22,227.97L244.53,228.87L243.47,230.08L243.07,231.14L243.06,231.69L243.00,231.60L242.48,231.08L241.3,230.54L239.57,230.42L237.66,231.00L236.04,232.26L235.05,233.89L234.77,235.43L234.96,236.48L235.19,236.87L235.01,236.77L234.20,236.56L232.81,236.71L231.20,237.53L229.83,239.05L229.08,240.98L229.07,242.86L229.60,244.28L230.25,245.03L230.56,245.21L230.25,245.20L229.35,245.47L228.16,246.36L227.16,247.96L226.75,250L227.10,252.05L228.05,253.66L229.19,254.57L230.05,254.85L230.31,254.85L229.95,255.05L229.24,255.82L228.65,257.28L228.61,259.23L229.32,261.23L230.68,262.81L232.29,263.69L233.68,263.88L234.48,263.70L234.62,263.63L234.35,264.07L234.11,265.20L234.37,266.84L235.37,268.59L237.03,269.97L239.01,270.63L240.81,270.55L242.04,270.03L242.57,269.53L242.62,269.49L242.60,270.12L243.01,271.31L244.13,272.66L245.94,273.68L248.11,274L250.14,273.55L251.61,272.59L252.36,271.56L252.53,270.95L252.56,271.00L252.93,271.65L253.97,272.52L255.70,273.13L257.84,273.08L259.89,272.24L261.39,270.82L262.14,269.27L262.25,268.08L262.12,267.56L262.24,267.68L262.98,268.10L264.42,268.33L266.30,267.95L268.15,266.78L269.49,264.99L270.05,263.01L269.90,261.35L269.43,260.35L269.11,260.03L269.38,260.11L270.35,260.09L271.80,259.52L273.28,258.17L274.29,256.17L274.52,253.93L273.99,251.96L273.04,250.66L271.83,250L272.22,249.91L273.13,249.34L274.15,248.02L274.74,246.03L274.58,243.76L273.62,241.71L272.18,240.32L270.75,239.71L269.82,239.66L269.60,239.71L269.97,239.37L270.52,238.30L270.72,236.56L270.19,234.47L268.86,232.57L266.98,231.30L265.06,230.85L263.59,231.05L262.85,231.44L262.75,231.52L262.93,230.91L262.85,229.61L262.09,227.92L260.52,226.35L258.36,225.38L256.1,225.26L254.26,225.85L253.15,226.73L252.76,227.36L252.74,227.36L252.56,226.63L251.75,225.46L250.15,224.34L247.93,223.79L245.56,224.07L243.56,225.13L242.31,226.55L241.84,227.80L241.83,228.44L241.76,228.33L241.15,227.72L239.75,227.07L237.71,226.93L235.46,227.61L233.55,229.10L232.38,231.01L232.05,232.82L232.26,234.06L232.53,234.52L232.32,234.40L231.36,234.15L229.72,234.32L227.82,235.29L226.20,237.08L225.31,239.35L225.29,241.58L225.91,243.25L226.68,244.13L227.04,244.34L226.67,244.33L225.60,244.65L224.20,245.70L223.01,247.58L222.53,250L222.94,252.42L224.05,254.32L225.40,255.4L226.41,255.74L226.72,255.74L226.28,255.97L225.44,256.88L224.73,258.61L224.68,260.92L225.52,263.29L227.13,265.17L229.03,266.21L230.67,266.44L231.62,266.23L231.78,266.14L231.46,266.67L231.17,268.01L231.47,269.96L232.65,272.04L234.63,273.67L236.97,274.46L239.10,274.37L240.56,273.76L241.19,273.16L241.24,273.12L241.22,273.87L241.71,275.28L243.04,276.89L245.18,278.11L247.75,278.50L250.16,277.97L251.92,276.83L252.80,275.62L253.01,274.89L253.05,274.95L253.48,275.73L254.72,276.77L256.78,277.5L259.32,277.44L261.75,276.44L263.55,274.76L264.44,272.92L264.58,271.51L264.42,270.89L264.56,271.03L265.45,271.54L267.17,271.82L269.41,271.37L271.62,269.98L273.21,267.85L273.88,265.50L273.71,263.52L273.14,262.32L272.78,261.95L273.10,262.05L274.25,262.03L275.99,261.35L277.76,259.74L278.96,257.36L279.24,254.69L278.61,252.34L277.49,250.78L276.05,250L276.51,249.90L277.61,249.21L278.82,247.64L279.54,245.27L279.35,242.55L278.21,240.10L276.49,238.44L274.79,237.70L273.68,237.65L273.42,237.71L273.86,237.29L274.52,236.02L274.77,233.93L274.14,231.43L272.55,229.16L270.31,227.64L268.01,227.10L266.26,227.33L265.37,227.80L265.26,227.88L265.48,227.16L265.38,225.59L264.47,223.56L262.59,221.68L260.01,220.52L257.31,220.37L255.10,221.08L253.78,222.12L253.31,222.88L253.28,222.87L253.06,222.00L252.10,220.59L250.18,219.25L247.52,218.58L244.67,218.92L242.28,220.17L240.78,221.87L240.21,223.37L240.20,224.13L240.11,224.00L239.37,223.26L237.7,222.49L235.25,222.31L232.55,223.13L230.25,224.90L228.84,227.20L228.44,229.38L228.7,230.85L229.01,231.41L228.76,231.25L227.60,230.96L225.63,231.16L223.34,232.32L221.39,234.47L220.32,237.20L220.29,239.87L221.04,241.88L221.95,242.94L222.39,243.19L221.94,243.18L220.65,243.56L218.96,244.83L217.53,247.09L216.94,250L217.43,252.92L218.77,255.20L220.38,256.50L221.60,256.90L221.97,256.91L221.44,257.19L220.42,258.29L219.57,260.37L219.50,263.15L220.51,266.01L222.44,268.27L224.73,269.53L226.71,269.81L227.85,269.55L228.04,269.45L227.65,270.10L227.30,271.71L227.66,274.07L229.08,276.58L231.46,278.54L234.28,279.50L236.86,279.4L238.61,278.66L239.37,277.95L239.43,277.89L239.41,278.81L239.99,280.51L241.59,282.45L244.18,283.92L247.28,284.40L250.20,283.77L252.31,282.39L253.38,280.93L253.64,280.06L253.68,280.13L254.21,281.07L255.70,282.34L258.19,283.22L261.26,283.15L264.20,281.95L266.37,279.91L267.45,277.70L267.62,276.00L267.42,275.25L267.60,275.42L268.67,276.04L270.75,276.38L273.47,275.84L276.13,274.16L278.06,271.58L278.88,268.74L278.68,266.35L277.99,264.91L277.55,264.46L277.94,264.58L279.34,264.55L281.44,263.73L283.58,261.78L285.05,258.9L285.38,255.67L284.63,252.84L283.27,250.95L281.53,250L282.09,249.87L283.42,249.05L284.89,247.14L285.76,244.27L285.53,240.98L284.15,238.02L282.07,236.00L280.02,235.11L278.67,235.04L278.36,235.12L278.90,234.61L279.70,233.07L280.00,230.53L279.25,227.51L277.32,224.75L274.60,222.91L271.82,222.25L269.70,222.53L268.62,223.10L268.49,223.20L268.75,222.32L268.64,220.42L267.54,217.96L265.26,215.68L262.13,214.28L258.85,214.09L256.18,214.94L254.57,216.21L254.01,217.13L253.98,217.12L253.71,216.06L252.55,214.35L250.22,212.72L246.99,211.90L243.54,212.31L240.63,213.83L238.81,215.89L238.13,217.70L238.11,218.63L238.01,218.48L237.11,217.58L235.08,216.63L232.11,216.42L228.83,217.41L226.04,219.56L224.34,222.35L223.85,224.99L224.17,226.78L224.55,227.45L224.24,227.26L222.83,226.90L220.44,227.15L217.66,228.56L215.29,231.16L214.00,234.47L213.97,237.72L214.87,240.15L215.97,241.44L216.50,241.74L215.96,241.72L214.40,242.19L212.34,243.73L210.60,246.47L209.89,250L210.49,253.54L212.11,256.31L214.07,257.89L215.55,258.38L215.99,258.38L215.35,258.72L214.12,260.06L213.08,262.59L213.00,265.96L214.23,269.42L216.56,272.17L219.35,273.69L221.74,274.03L223.12,273.72L223.36,273.60L222.88,274.38L222.47,276.34L222.90,279.20L224.63,282.24L227.51,284.63L230.94,285.78L234.06,285.66L236.18,284.76L237.11,283.9L237.18,283.84L237.15,284.94L237.86,287.01L239.81,289.37L242.94,291.15L246.71,291.72L250.24,290.95L252.81,289.28L254.10,287.51L254.41,286.45L254.46,286.55L255.10,287.68L256.91,289.21L259.93,290.29L263.65,290.20L267.22,288.74L269.85,286.27L271.17,283.59L271.36,281.52L271.13,280.62L271.34,280.82L272.64,281.57L275.16,281.99L278.45,281.32L281.68,279.28L284.02,276.16L285.01,272.71L284.76,269.81L283.93,268.07L283.39,267.52L283.86,267.67L285.56,267.64L288.11,266.64L290.70,264.28L292.47,260.78L292.87,256.87L291.95,253.44L290.31,251.15L288.20,250L288.88,249.84L290.49,248.85L292.27,246.54L293.32,243.06L293.03,239.07L291.37,235.49L288.85,233.04L286.36,231.97L284.72,231.88L284.34,231.98L285.00,231.36L285.96,229.5L286.32,226.43L285.40,222.77L283.07,219.43L279.78,217.21L276.42,216.42L273.84,216.76L272.54,217.44L272.38,217.57L272.69,216.51L272.55,214.21L271.22,211.24L268.46,208.48L264.68,206.78L260.71,206.56L257.47,207.60L255.53,209.13L254.85,210.24L254.81,210.23L254.49,208.95L253.08,206.89L250.26,204.92L246.37,203.94L242.19,204.44L238.68,206.29L236.48,208.78L235.65,210.97L235.63,212.09L235.51,211.91L234.43,210.82L231.98,209.69L228.39,209.44L224.43,210.63L221.06,213.24L219.01,216.61L218.42,219.79L218.80,221.96L219.27,222.77L218.90,222.55L217.20,222.11L214.32,222.42L210.97,224.12L208.11,227.26L206.55,231.26L206.52,235.18L207.61,238.12L208.95,239.67L209.59,240.04L208.94,240.02L207.06,240.57L204.58,242.44L202.50,245.75L201.64,250L202.36,254.27L204.33,257.61L206.69,259.51L208.48,260.10L209.02,260.10L208.25,260.51L206.76,262.12L205.52,265.16L205.43,269.22L206.91,273.39L209.73,276.70L213.09,278.53L215.97,278.93L217.64,278.56L217.93,278.41L217.36,279.34L216.86,281.70L217.39,285.14L219.47,288.79L222.94,291.66L227.07,293.05L230.82,292.90L233.38,291.81L234.50,290.77L234.58,290.69L234.56,292.01L235.41,294.49L237.75,297.32L241.52,299.45L246.04,300.14L250.29,299.21L253.37,297.19L254.93,295.06L255.30,293.78L255.36,293.89L256.13,295.25L258.30,297.08L261.93,298.36L266.39,298.25L270.67,296.49L273.82,293.53L275.40,290.30L275.62,287.82L275.34,286.73L275.59,286.97L277.15,287.86L280.17,288.35L284.11,287.55L287.98,285.11L290.78,281.36L291.95,277.22L291.65,273.74L290.65,271.65L290.00,270.99L290.56,271.16L292.59,271.12L295.63,269.92L298.73,267.10L300.84,262.91L301.32,258.22L300.21,254.11L298.23,251.37L295.70,250L296.50,249.81L298.43,248.62L300.55,245.86L301.80,241.70L301.45,236.93L299.45,232.65L296.43,229.73L293.45,228.45L291.49,228.35L291.02,228.47L291.80,227.74L292.95,225.52L293.38,221.86L292.27,217.49L289.48,213.51L285.55,210.86L281.52,209.92L278.44,210.33L276.88,211.16L276.69,211.32L277.06,210.06L276.89,207.33L275.30,203.78L272.01,200.50L267.49,198.49L262.76,198.24L258.91,199.47L256.59,201.31L255.78,202.64L255.73,202.64L255.35,201.12L253.67,198.67L250.32,196.34L245.67,195.18L240.71,195.79L236.53,197.99L233.92,200.96L232.93,203.57L232.91,204.92L232.78,204.71L231.49,203.43L228.58,202.09L224.32,201.79L219.62,203.22L215.63,206.33L213.19,210.34L212.49,214.12L212.96,216.7L213.51,217.67L213.08,217.42L211.08,216.90L207.66,217.27L203.69,219.30L200.31,223.02L198.47,227.77L198.44,232.42L199.75,235.92L201.34,237.75L202.11,238.20L201.35,238.17L199.12,238.83L196.20,241.04L193.74,244.96L192.74,250L193.6,255.05L195.94,259.00L198.75,261.25L200.87,261.95L201.51,261.95L200.62,262.43L198.87,264.33L197.41,267.93L197.31,272.73L199.07,277.65L202.41,281.55L206.39,283.71L209.80,284.18L211.78,283.73L212.13,283.55L211.46,284.64L210.88,287.42L211.51,291.47L213.97,295.78L218.08,299.15L222.95,300.78L227.38,300.59L230.41,299.30L231.72,298.06L231.82,297.96L231.80,299.51L232.81,302.43L235.56,305.74L240.01,308.25L245.34,309.04L250.34,307.94L253.97,305.56L255.8,303.03L256.23,301.52L256.30,301.64L257.21,303.22L259.76,305.37L264.02,306.87L269.26,306.72L274.29,304.65L278.00,301.15L279.84,297.35L280.1,294.43L279.76,293.13L280.05,293.41L281.87,294.44L285.41,295.02L290.03,294.07L294.56,291.19L297.83,286.78L299.20,281.93L298.84,277.84L297.65,275.38L296.88,274.61L297.53,274.80L299.90,274.75L303.45,273.34L307.07,270.02L309.53,265.12L310.08,259.63L308.77,254.81L306.44,251.61L303.48,250L304.40,249.78L306.64,248.39L309.10,245.16L310.56,240.30L310.14,234.73L307.78,229.73L304.25,226.32L300.75,224.83L298.45,224.72L297.90,224.86L298.80,224.01L300.13,221.42L300.62,217.16L299.32,212.07L296.05,207.44L291.46,204.36L286.76,203.27L283.16,203.76L281.33,204.73L281.11,204.92L281.53,203.46L281.33,200.29L279.46,196.18L275.62,192.37L270.36,190.04L264.85,189.76L260.36,191.21L257.67,193.36L256.72,194.92L256.67,194.92L256.21,193.18L254.26,190.34L250.37,187.64L244.97,186.31L239.20,187.02L234.36,189.60L231.32,193.06L230.19,196.11L230.17,197.68L230.01,197.44L228.53,195.97L225.16,194.43L220.22,194.10L214.78,195.77L210.15,199.37L207.34,204.03L206.54,208.43L207.09,211.42L207.74,212.56L207.25,212.27L204.94,211.69L201.00,212.12L196.41,214.47L192.52,218.79L190.39,224.29L190.37,229.67L191.90,233.72L193.75,235.84L194.65,236.36L193.79,236.33L191.23,237.10L187.87,239.65L185.03,244.18L183.89,250L184.90,255.83L187.61,260.39L190.87,262.98L193.33,263.78L194.08,263.78L193.06,264.33L191.06,266.52L189.39,270.66L189.29,276.19L191.33,281.85L195.19,286.34L199.78,288.82L203.73,289.35L206.01,288.83L206.43,288.61L205.66,289.86L205.01,293.04L205.74,297.69L208.58,302.63L213.31,306.50L218.91,308.35L224.01,308.13L227.49,306.63L229.01,305.19L229.13,305.06L229.11,306.83L230.27,310.17L233.44,313.96L238.54,316.82L244.66,317.72L250.39,316.44L254.55,313.69L256.65,310.79L257.14,309.04L257.22,309.16L258.25,310.96L261.18,313.41L266.05,315.11L272.05,314.93L277.80,312.54L282.03,308.52L284.13,304.16L284.42,300.81L284.03,299.31L284.35,299.62L286.43,300.79L290.46,301.44L295.73,300.35L300.89,297.04L304.62,292.00L306.17,286.45L305.74,281.78L304.38,278.96L303.49,278.07L304.21,278.28L306.9,278.22L310.94,276.60L315.05,272.82L317.84,267.23L318.45,260.97L316.94,255.48L314.28,251.83L310.88,250L311.93,249.75L314.46,248.16L317.25,244.50L318.88,238.96L318.39,232.63L315.70,226.95L311.67,223.08L307.68,221.39L305.06,221.27L304.42,221.44L305.43,220.48L306.92,217.55L307.46,212.72L305.98,206.95L302.25,201.70L297.03,198.22L291.69,197.00L287.60,197.56L285.53,198.68L285.26,198.90L285.73,197.26L285.49,193.68L283.37,189.03L279.02,184.73L273.05,182.11L266.81,181.81L261.73,183.46L258.68,185.92L257.61,187.69L257.54,187.71L257.03,185.75L254.82,182.56L250.41,179.52L244.32,178.03L237.80,178.86L232.33,181.78L228.91,185.70L227.63,189.16L227.62,190.94L227.44,190.70L225.77,189.04L221.98,187.31L216.41,186.96L210.29,188.86L205.09,192.94L201.93,198.20L201.04,203.16L201.66,206.55L202.41,207.83L201.87,207.52L199.28,206.87L194.85,207.37L189.70,210.02L185.34,214.89L182.96,221.09L182.96,227.14L184.68,231.70L186.78,234.09L187.81,234.67L186.85,234.65L183.99,235.51L180.23,238.38L177.07,243.47L175.80,250L176.95,256.54L180.01,261.66L183.67,264.56L186.45,265.45L187.31,265.45L186.18,266.07L183.95,268.51L182.09,273.15L181.99,279.33L184.30,285.67L188.64,290.69L193.78,293.45L198.21,294.03L200.78,293.44L201.26,293.19L200.41,294.58L199.69,298.12L200.53,303.31L203.70,308.82L209.00,313.13L215.27,315.19L220.97,314.93L224.87,313.24L226.56,311.62L226.71,311.46L226.68,313.42L227.98,317.13L231.52,321.34L237.22,324.52L244.04,325.50L250.44,324.06L255.07,320.98L257.41,317.73L257.96,315.76L258.04,315.89L259.19,317.88L262.44,320.58L267.87,322.46L274.54,322.25L280.93,319.57L285.63,315.09L287.95,310.22L288.27,306.48L287.82,304.81L288.17,305.14L290.47,306.43L294.94,307.13L300.78,305.91L306.50,302.23L310.63,296.63L312.34,290.45L311.85,285.26L310.32,282.13L309.32,281.14L310.11,281.36L313.08,281.29L317.54,279.49L322.08,275.29L325.15,269.09L325.81,262.15L324.13,256.07L321.17,252.03L317.39,250L318.53,249.73L321.31,247.97L324.39,243.91L326.18,237.79L325.62,230.79L322.63,224.52L318.15,220.25L313.74,218.39L310.82,218.27L310.11,218.45L311.20,217.40L312.84,214.18L313.43,208.85L311.77,202.50L307.65,196.71L301.88,192.88L295.98,191.55L291.46,192.19L289.16,193.43L288.86,193.69L289.37,191.89L289.10,187.96L286.75,182.85L281.95,178.13L275.38,175.26L268.51,174.94L262.91,176.78L259.55,179.49L258.37,181.46L258.29,181.50L257.73,179.35L255.30,175.86L250.46,172.54L243.76,170.92L236.60,171.84L230.59,175.06L226.84,179.39L225.44,183.20L225.43,185.18L225.25,184.92L223.42,183.12L219.26,181.24L213.16,180.86L206.45,182.95L200.76,187.44L197.31,193.22L196.34,198.68L197.04,202.39L197.87,203.81L197.29,203.48L194.46,202.78L189.63,203.34L184.01,206.25L179.24,211.58L176.66,218.37L176.67,225.00L178.57,229.98L180.89,232.60L182.02,233.24L180.99,233.22L177.87,234.17L173.78,237.31L170.34,242.87L168.98,250L170.25,257.14L173.60,262.73L177.62,265.89L180.66,266.86L181.62,266.86L180.39,267.52L177.98,270.18L175.97,275.24L175.88,281.97L178.40,288.87L183.14,294.33L188.76,297.33L193.6,297.95L196.41,297.30L196.94,297.02L196.03,298.52L195.25,302.37L196.17,308.00L199.64,313.98L205.41,318.65L212.24,320.88L218.45,320.58L222.69,318.73L224.53,316.96L224.69,316.77L224.67,318.89L226.09,322.90L229.94,327.46L236.13,330.89L243.53,331.94L250.47,330.36L255.50,327.01L258.04,323.47L258.63,321.32L258.72,321.44L259.96,323.58L263.48,326.50L269.36,328.52L276.58,328.28L283.50,325.36L288.59,320.50L291.10,315.21L291.43,311.15L290.94,309.33L291.31,309.68L293.79,311.06L298.61,311.81L304.92,310.47L311.1,306.48L315.55,300.41L317.38,293.72L316.84,288.10L315.18,284.71L314.08,283.63L314.93,283.87L318.12,283.78L322.92,281.84L327.81,277.3L331.11,270.60L331.81,263.11L329.98,256.55L326.76,252.19L322.68,250L323.89,249.71L326.88,247.81L330.18,243.44L332.09,236.84L331.48,229.31L328.24,222.55L323.40,217.96L318.63,215.96L315.48,215.83L314.70,216.04L315.87,214.92L317.62,211.45L318.23,205.73L316.44,198.90L312.00,192.69L305.78,188.58L299.43,187.16L294.56,187.86L292.08,189.21L291.75,189.50L292.29,187.58L291.99,183.37L289.47,177.89L284.30,172.84L277.25,169.77L269.86,169.44L263.85,171.43L260.24,174.36L258.97,176.48L258.89,176.53L258.29,174.25L255.68,170.51L250.49,166.97L243.31,165.25L235.64,166.25L229.21,169.72L225.20,174.37L223.7,178.46L223.69,180.59L223.5,180.33L221.55,178.41L217.10,176.41L210.59,176.02L203.41,178.27L197.33,183.09L193.65,189.28L192.63,195.12L193.39,199.11L194.28,200.63L193.67,200.28L190.66,199.55L185.51,200.15L179.51,203.26L174.44,208.97L171.69,216.23L171.72,223.31L173.76,228.63L176.24,231.43L177.46,232.12L176.38,232.10L173.07,233.11L168.72,236.46L165.06,242.39L163.62,250L164.99,257.61L168.58,263.56L172.87,266.93L176.13,267.96L177.16,267.95L175.87,268.66L173.31,271.49L171.18,276.87L171.09,284.03L173.80,291.38L178.85,297.17L184.85,300.36L190.00,301.01L193.00,300.31L193.57,300.00L192.62,301.59L191.80,305.67L192.78,311.65L196.48,318.00L202.62,322.95L209.88,325.31L216.48,324.97L220.99,323.00L222.96,321.11L223.13,320.90L223.11,323.13L224.62,327.38L228.71,332.21L235.28,335.83L243.14,336.93L250.50,335.24L255.83,331.67L258.52,327.90L259.15,325.62L259.24,325.73L260.56,327.99L264.29,331.07L270.51,333.20L278.16,332.93L285.49,329.82L290.87,324.66L293.52,319.05L293.87,314.74L293.34,312.81L293.72,313.16L296.34,314.62L301.44,315.40L308.10,313.97L314.63,309.74L319.33,303.31L321.25,296.23L320.67,290.29L318.90,286.69L317.74,285.55L318.62,285.8L321.98,285.70L327.05,283.63L332.19,278.84L335.67,271.76L336.39,263.85L334.45,256.91L331.04,252.31L326.72,250L327.99,249.69L331.13,247.69L334.6,243.07L336.61,236.12L335.95,228.17L332.52,221.05L327.41,216.21L322.37,214.11L319.04,213.98L318.2,214.20L319.42,213.03L321.26,209.38L321.90,203.35L320,196.17L315.31,189.63L308.75,185.31L302.05,183.83L296.92,184.57L294.31,186.00L293.95,186.31L294.51,184.30L294.19,179.88L291.53,174.13L286.09,168.82L278.66,165.61L270.89,165.27L264.56,167.37L260.77,170.46L259.44,172.71L259.35,172.77L258.71,170.38L255.97,166.46L250.51,162.75L242.97,160.95L234.91,162.02L228.16,165.67L223.95,170.57L222.38,174.87L222.38,177.12L222.18,176.85L220.13,174.85L215.47,172.76L208.64,172.36L201.12,174.74L194.74,179.79L190.88,186.3L189.82,192.44L190.62,196.62L191.57,198.23L190.93,197.87L187.78,197.10L182.39,197.74L176.12,201.01L170.81,207.00L167.94,214.61L167.97,222.04L170.12,227.62L172.73,230.55L174.02,231.27L172.89,231.25L169.44,232.32L164.89,235.82L161.08,242.04L159.58,250L161.02,257.97L164.78,264.19L169.29,267.72L172.70,268.79L173.79,268.78L172.45,269.52L169.78,272.48L167.57,278.10L167.49,285.59L170.32,293.26L175.62,299.32L181.89,302.65L187.28,303.32L190.42,302.59L191.03,302.25L190.04,303.91L189.19,308.17L190.23,314.41L194.09,321.03L200.51,326.20L208.1,328.65L215.00,328.29L219.71,326.22L221.76,324.24L221.95,324.01L221.94,326.34L223.51,330.76L227.78,335.79L234.64,339.57L242.84,340.70L250.52,338.93L256.09,335.20L258.89,331.26L259.54,328.87L259.64,328.98L261.01,331.33L264.90,334.53L271.39,336.74L279.36,336.45L286.99,333.21L292.59,327.81L295.35,321.96L295.71,317.47L295.16,315.44L295.55,315.81L298.27,317.31L303.58,318.12L310.52,316.63L317.31,312.22L322.19,305.52L324.20,298.14L323.58,291.95L321.74,288.20L320.51,287.01L321.42,287.26L324.92,287.16L330.18,285.00L335.53,280.01L339.14,272.64L339.89,264.40L337.86,257.19L334.31,252.40L329.80,250L331.11,249.68L334.38,247.60L337.98,242.80L340.06,235.57L339.36,227.31L335.79,219.90L330.47,214.87L325.22,212.69L321.75,212.56L320.88,212.80L322.15,211.58L324.05,207.79L324.70,201.53L322.73,194.07L317.85,187.29L311.03,182.80L304.07,181.26L298.74,182.04L296.02,183.53L295.64,183.86L296.22,181.78L295.89,177.19L293.12,171.22L287.47,165.72L279.75,162.39L271.69,162.05L265.12,164.24L261.18,167.44L259.79,169.78L259.70,169.86L259.04,167.38L256.19,163.32L250.53,159.48L242.71,157.62L234.35,158.73L227.35,162.53L222.98,167.61L221.35,172.08L221.35,174.41L221.15,174.14L219.03,172.07L214.20,169.91L207.11,169.50L199.32,171.97L192.71,177.22L188.72,183.97L187.62,190.33L188.46,194.67L189.44,196.34L188.79,195.97L185.53,195.18L179.94,195.85L173.44,199.24L167.95,205.45L164.98,213.33L165.02,221.03L167.25,226.81L169.96,229.85L171.3,230.60L170.13,230.58L166.56,231.69L161.86,235.32L157.91,241.75L156.37,250L157.86,258.25L161.77,264.70L166.43,268.34L169.97,269.46L171.1,269.45L169.72,270.21L166.96,273.27L164.67,279.09L164.59,286.84L167.53,294.78L173.01,301.04L179.51,304.49L185.10,305.18L188.35,304.41L188.98,304.07L187.95,305.78L187.08,310.19L188.16,316.64L192.16,323.49L198.80,328.83L206.65,331.36L213.79,330.99L218.67,328.85L220.79,326.79L220.99,326.55L220.97,328.95L222.61,333.53L227.02,338.73L234.12,342.63L242.60,343.8L250.54,341.96L256.29,338.10L259.19,334.02L259.87,331.54L259.97,331.66L261.38,334.08L265.40,337.39L272.11,339.67L280.35,339.37L288.24,336.01L294.03,330.44L296.88,324.39L297.25,319.74L296.68,317.64L297.08,318.02L299.89,319.57L305.38,320.40L312.55,318.86L319.56,314.30L324.61,307.38L326.68,299.75L326.04,293.35L324.13,289.48L322.86,288.24L323.80,288.50L327.41,288.39L332.85,286.17L338.38,281.01L342.10,273.39L342.87,264.88L340.77,257.43L337.10,252.48L332.44,250L333.80,249.67L337.16,247.52L340.88,242.56L343.03,235.09L342.31,226.56L338.62,218.91L333.12,213.71L327.70,211.46L324.12,211.33L323.21,211.57L324.52,210.31L326.48,206.40L327.16,199.94L325.12,192.24L320.07,185.23L313.03,180.60L305.84,179.01L300.33,179.81L297.52,181.35L297.14,181.69L297.74,179.54L297.39,174.81L294.53,168.65L288.69,162.96L280.73,159.52L272.40,159.17L265.61,161.43L261.54,164.75L260.11,167.16L260.01,167.24L259.33,164.68L256.39,160.49L250.55,156.52L242.47,154.61L233.84,155.75L226.61,159.67L222.10,164.92L220.42,169.54L220.42,171.95L220.21,171.67L218.02,169.53L213.03,167.30L205.72,166.88L197.66,169.42L190.85,174.84L186.72,181.81L185.59,188.38L186.45,192.87L187.46,194.59L186.79,194.21L183.42,193.39L177.65,194.08L170.94,197.58L165.27,204.00L162.20,212.13L162.24,220.08L164.55,226.06L167.35,229.19L168.73,229.97L167.53,229.95L163.83,231.09L158.97,234.84L154.90,241.48L153.30,250L154.85,258.52L158.88,265.18L163.70,268.94L167.35,270.10L168.51,270.09L167.08,270.87L164.23,274.03L161.87,280.04L161.79,288.05L164.82,296.25L170.49,302.72L177.19,306.28L182.96,307.00L186.32,306.21L186.97,305.85L185.91,307.62L185.01,312.17L186.12,318.84L190.25,325.91L197.11,331.43L205.22,334.05L212.60,333.67L217.63,331.45L219.83,329.33L220.03,329.09L220.01,331.57L221.70,336.30L226.26,341.67L233.59,345.70L242.35,346.92L250.56,345.02L256.50,341.03L259.50,336.82L260.20,334.26L260.3,334.38L261.76,336.89L265.92,340.31L272.85,342.67L281.37,342.36L289.52,338.90L295.50,333.13L298.45,326.88L298.83,322.08L298.25,319.92L298.67,320.31L301.57,321.92L307.25,322.78L314.66,321.19L321.91,316.47L327.13,309.31L329.27,301.43L328.62,294.82L326.64,290.82L325.34,289.54L326.31,289.81L330.04,289.7L335.67,287.40L341.39,282.06L345.24,274.19L346.04,265.39L343.87,257.69L340.08,252.57L335.27,250L336.67,249.66L340.16,247.43L344.01,242.30L346.24,234.58L345.49,225.75L341.68,217.83L335.99,212.46L330.39,210.13L326.69,209.99L325.75,210.24L327.11,208.94L329.14,204.88L329.84,198.19L327.74,190.22L322.52,182.97L315.24,178.17L307.79,176.52L302.10,177.35L299.19,178.94L298.79,179.29L299.42,177.06L299.06,172.16L296.1,165.78L290.06,159.89L281.81,156.32L273.19,155.95L266.16,158.29L261.95,161.72L260.47,164.22L260.37,164.29L259.67,161.63L256.62,157.30L250.57,153.18L242.2,151.19L233.26,152.37L225.77,156.43L221.09,161.86L219.35,166.64L219.35,169.13L219.13,168.83L216.86,166.61L211.69,164.30L204.11,163.86L195.76,166.49L188.69,172.11L184.41,179.32L183.23,186.13L184.12,190.78L185.17,192.56L184.47,192.16L180.97,191.31L174.99,192.02L168.03,195.65L162.14,202.30L158.95,210.73L158.99,218.97L161.38,225.17L164.27,228.42L165.70,229.22L164.45,229.20L160.61,230.38L155.56,234.27L151.33,241.17L149.67,250L151.27,258.84L155.44,265.75L160.44,269.66L164.22,270.86L165.43,270.85L163.94,271.66L160.97,274.95L158.52,281.19L158.42,289.50L161.56,298.02L167.44,304.74L174.40,308.43L180.39,309.19L183.87,308.37L184.54,308.00L183.44,309.84L182.49,314.57L183.64,321.50L187.93,328.86L195.05,334.60L203.48,337.32L211.14,336.93L216.36,334.64L218.65,332.44L218.85,332.19L218.83,334.78L220.58,339.70L225.32,345.29L232.94,349.49L242.05,350.75L250.58,348.79L256.76,344.65L259.87,340.28L260.60,337.62L260.71,337.75L262.24,340.37L266.56,343.94L273.77,346.40L282.63,346.08L291.12,342.48L297.34,336.50L300.41,330.00L300.82,325.00L300.21,322.76L300.65,323.17L303.68,324.85L309.59,325.75L317.30,324.10L324.86,319.2L330.30,311.75L332.53,303.55L331.86,296.66L329.81,292.50L328.46,291.18L329.48,291.47L333.37,291.35L339.24,288.96L345.20,283.40L349.23,275.2L350.06,266.04L347.81,258.01L343.87,252.68L338.86,250L340.33,249.64L343.97,247.32L347.99,241.98L350.32,233.92L349.55,224.72L345.58,216.46L339.66,210.86L333.83,208.42L329.97,208.28L329.00,208.53L330.43,207.17L332.55,202.94L333.29,195.96L331.10,187.63L325.66,180.06L318.07,175.05L310.31,173.33L304.37,174.19L301.34,175.83L300.93,176.20L301.58,173.86L301.21,168.74L298.13,162.07L291.83,155.91L283.22,152.18L274.22,151.79L266.88,154.22L262.49,157.79L260.94,160.39L260.83,160.46L260.10,157.68L256.92,153.14L250.60,148.83L241.85,146.74L232.51,147.97L224.67,152.20L219.79,157.87L217.97,162.86L217.96,165.46L217.72,165.14L215.35,162.81L209.94,160.38L202.01,159.91L193.27,162.66L185.87,168.53L181.39,176.07L180.15,183.19L181.08,188.04L182.17,189.90L181.43,189.48L177.76,188.58L171.49,189.32L164.20,193.11L158.03,200.06L154.69,208.89L154.72,217.52L157.21,224.00L160.23,227.40L161.72,228.24L160.40,228.21L156.38,229.45L151.08,233.52L146.64,240.74L144.89,250L146.55,259.26L150.92,266.50L156.14,270.60L160.11,271.86L161.36,271.85L159.79,272.71L156.67,276.15L154.09,282.70L153.98,291.41L157.27,300.35L163.42,307.40L170.72,311.28L176.99,312.08L180.63,311.23L181.33,310.85L180.17,312.78L179.17,317.75L180.37,325.03L184.86,332.76L192.33,338.78L201.17,341.65L209.21,341.25L214.69,338.85L217.08,336.55L217.30,336.30L217.27,339.02L219.11,344.19L224.08,350.07L232.08,354.49L241.65,355.83L250.61,353.78L257.10,349.44L260.37,344.86L261.14,342.07L261.26,342.22L262.86,344.98L267.40,348.74L274.99,351.33L284.30,351.00L293.23,347.23L299.78,340.94L303.01,334.12L303.44,328.87L302.80,326.52L303.27,326.96L306.46,328.73L312.68,329.69L320.81,327.96L328.77,322.81L334.50,314.98L336.86,306.36L336.15,299.11L334.00,294.74L332.59,293.35L333.67,293.65L337.77,293.53L343.96,291.02L350.25,285.17L354.50,276.54L355.39,266.89L353.03,258.43L348.88,252.82L343.62,250L345.17,249.62L349.01,247.18L353.26,241.55L355.72,233.06L354.92,223.35L350.75,214.65L344.52,208.74L338.37,206.17L334.32,206.01L333.30,206.28L334.81,204.83L337.06,200.37L337.85,193L335.54,184.22L329.81,176.22L321.81,170.93L313.63,169.11L307.37,170.00L304.18,171.74L303.75,172.11L304.44,169.64L304.06,164.22L300.81,157.18L294.16,150.67L285.07,146.73L275.57,146.30L267.83,148.86L263.19,152.62L261.55,155.36L261.44,155.43L260.67,152.48L257.31,147.68L250.63,143.11L241.39,140.90L231.51,142.18L223.23,146.65L218.07,152.63L216.14,157.90L216.13,160.63L215.88,160.29L213.37,157.82L207.64,155.25L199.25,154.74L190.01,157.64L182.18,163.83L177.43,171.81L176.12,179.33L177.09,184.45L178.24,186.42L177.45,185.96L173.56,185.01L166.92,185.79L159.20,189.80L152.66,197.15L149.12,206.49L149.14,215.62L151.77,222.47L154.96,226.08L156.53,226.96L155.12,226.93L150.85,228.24L145.24,232.55L140.52,240.20L138.66,250L140.41,259.81L145.03,267.48L150.56,271.83L154.75,273.16L156.07,273.15L154.40,274.07L151.09,277.72L148.34,284.66L148.22,293.90L151.69,303.38L158.21,310.86L165.94,314.98L172.58,315.83L176.44,314.93L177.17,314.53L175.93,316.59L174.87,321.87L176.14,329.59L180.90,337.79L188.82,344.20L198.19,347.25L206.71,346.83L212.53,344.29L215.06,341.85L215.29,341.59L215.26,344.49L217.21,349.99L222.49,356.24L230.98,360.94L241.13,362.37L250.65,360.2L257.54,355.60L261.02,350.74L261.83,347.79L261.96,347.95L263.66,350.89L268.49,354.89L276.54,357.65L286.44,357.31L295.93,353.31L302.90,346.64L306.34,339.39L306.80,333.83L306.12,331.33L306.63,331.80L310.02,333.70L316.64,334.72L325.28,332.89L333.75,327.42L339.85,319.10L342.37,309.93L341.63,302.23L339.34,297.58L337.85,296.11L339,296.43L343.37,296.31L349.96,293.64L356.66,287.42L361.19,278.24L362.14,267.97L359.64,258.98L355.23,253.00L349.64,250L351.3,249.60L355.40,247.00L359.93,241.00L362.56,231.96L361.71,221.63L357.28,212.36L350.65,206.06L344.11,203.32L339.80,203.15L338.72,203.43L340.33,201.89L342.73,197.14L343.58,189.28L341.13,179.92L335.03,171.40L326.51,165.76L317.8,163.80L311.13,164.76L307.73,166.60L307.28,166.99L308.03,164.36L307.62,158.57L304.16,151.06L297.07,144.12L287.39,139.90L277.26,139.44L269.01,142.16L264.06,146.17L262.32,149.08L262.20,149.15L261.38,146L257.80,140.87L250.67,135.99L240.81,133.62L230.28,134.99L221.45,139.75L215.93,146.12L213.87,151.73L213.86,154.65L213.59,154.28L210.91,151.64L204.80,148.88L195.84,148.34L185.98,151.43L177.61,158.03L172.54,166.54L171.13,174.56L172.17,180.03L173.39,182.12L172.54,181.63L168.39,180.61L161.30,181.44L153.04,185.71L146.05,193.56L142.26,203.53L142.28,213.28L145.08,220.60L148.49,224.45L150.16,225.39L148.65,225.36L144.08,226.75L138.08,231.36L133.04,239.53L131.04,250L132.91,260.49L137.83,268.68L143.74,273.32L148.21,274.75L149.61,274.74L147.82,275.72L144.28,279.63L141.34,287.04L141.20,296.92L144.92,307.06L151.88,315.06L160.13,319.47L167.23,320.38L171.35,319.42L172.13,319.00L170.80,321.20L169.66,326.85L171.01,335.11L176.10,343.89L184.57,350.74L194.59,354.01L203.70,353.56L209.92,350.85L212.63,348.25L212.87,347.98L212.84,351.08L214.92,356.97L220.56,363.66L229.65,368.69L240.51,370.23L250.69,367.91L258.07,362.99L261.79,357.79L262.66,354.64L262.80,354.82L264.62,357.97L269.79,362.25L278.41,365.22L289.01,364.86L299.16,360.58L306.62,353.44L310.30,345.69L310.80,339.73L310.08,337.06L310.62,337.57L314.26,339.61L321.35,340.70L330.60,338.75L339.68,332.89L346.21,323.98L348.90,314.17L348.11,305.93L345.67,300.95L344.07,299.37L345.31,299.73L350.00,299.60L357.06,296.74L364.23,290.08L369.08,280.24L370.11,269.25L367.43,259.61L362.72,253.21L356.73,250L358.51,249.57L362.91,246.78L367.76,240.36L370.58,230.68L369.68,219.61L364.93,209.68L357.83,202.93L350.83,199.99L346.21,199.80L345.06,200.11L346.79,198.45L349.37,193.36L350.28,184.94L347.65,174.90L341.12,165.77L332.00,159.72L322.66,157.63L315.51,158.65L311.87,160.62L311.39,161.04L312.19,158.21L311.75,152.01L308.05,143.95L300.45,136.51L290.08,131.99L279.22,131.50L270.37,134.41L265.07,138.70L263.20,141.83L263.08,141.89L262.19,138.52L258.36,133.01L250.72,127.78L240.15,125.24L228.86,126.70L219.39,131.80L213.48,138.64L211.27,144.65L211.26,147.77L210.97,147.37L208.09,144.54L201.53,141.59L191.93,141.00L181.35,144.31L172.38,151.39L166.95,160.51L165.44,169.11L166.54,174.97L167.85,177.22L166.94,176.69L162.49,175.60L154.88,176.48L146.03,181.06L138.53,189.48L134.47,200.17L134.49,210.62L137.49,218.47L141.14,222.60L142.93,223.61L141.31,223.57L136.41,225.07L129.97,230.01L124.57,238.77L122.42,250L124.43,261.24L129.71,270.03L136.04,275.01L140.83,276.54L142.34,276.54L140.42,277.58L136.62,281.77L133.47,289.73L133.32,300.32L137.30,311.19L144.77,319.77L153.62,324.5L161.23,325.48L165.65,324.45L166.49,324.00L165.06,326.36L163.84,332.42L165.29,341.28L170.75,350.69L179.83,358.04L190.57,361.55L200.35,361.07L207.02,358.16L209.92,355.37L210.18,355.08L210.15,358.41L212.38,364.72L218.43,371.89L228.18,377.29L239.82,378.94L250.75,376.45L258.65,371.18L262.64,365.60L263.58,362.23L263.72,362.41L265.68,365.79L271.22,370.38L280.47,373.56L291.83,373.17L302.72,368.59L310.72,360.93L314.67,352.62L315.20,346.23L314.43,343.36L315.01,343.91L318.91,346.09L326.51,347.26L336.43,345.16L346.16,338.88L353.16,329.33L356.05,318.81L355.20,309.97L352.58,304.63L350.87,302.94L352.19,303.32L357.22,303.18L364.79,300.11L372.48,292.97L377.68,282.43L378.78,270.64L375.90,260.31L370.85,253.44L364.42,250L366.33,249.54L371.04,246.55L376.24,239.67L379.27,229.28L378.30,217.42L373.20,206.77L365.59,199.54L358.08,196.39L353.13,196.19L351.9,196.52L353.75,194.75L356.51,189.28L357.48,180.26L354.67,169.51L347.67,159.72L337.88,153.24L327.87,151.00L320.21,152.09L316.31,154.21L315.79,154.66L316.65,151.63L316.18,144.99L312.20,136.36L304.07,128.38L292.94,123.55L281.31,123.02L271.83,126.14L266.15,130.75L264.15,134.10L264.02,134.17L263.06,130.55L258.95,124.66L250.77,119.06L239.45,116.34L227.35,117.91L217.21,123.38L210.88,130.70L208.51,137.15L208.5,140.50L208.19,140.07L205.11,137.04L198.09,133.88L187.80,133.25L176.48,136.80L166.88,144.39L161.06,154.16L159.44,163.37L160.63,169.65L162.03,172.06L161.06,171.50L156.30,170.33L148.15,171.28L138.68,176.19L130.65,185.20L126.31,196.65L126.33,207.84L129.55,216.25L133.46,220.67L135.38,221.75L133.66,221.71L128.42,223.31L121.53,228.60L115.74,237.98L113.46,250L115.61,262.03L121.26,271.44L128.04,276.77L133.18,278.40L134.79,278.40L132.74,279.52L128.68,284.00L125.31,292.51L125.16,303.84L129.42,315.47L137.42,324.65L146.89,329.7L155.04,330.74L159.77,329.64L160.67,329.15L159.15,331.68L157.84,338.15L159.40,347.63L165.24,357.69L174.95,365.54L186.45,369.29L196.90,368.77L204.04,365.66L207.15,362.67L207.42,362.35L207.39,365.90L209.78,372.65L216.25,380.31L226.67,386.08L239.12,387.84L250.80,385.17L259.25,379.52L263.51,373.56L264.51,369.94L264.67,370.14L266.75,373.74L272.67,378.65L282.56,382.03L294.70,381.62L306.33,376.71L314.87,368.52L319.09,359.63L319.65,352.80L318.83,349.74L319.44,350.32L323.60,352.64L331.72,353.89L342.31,351.64L352.70,344.93L360.17,334.72L363.25,323.48L362.34,314.04L359.54,308.34L357.70,306.53L359.11,306.93L364.47,306.77L372.54,303.50L380.75,295.87L386.29,284.61L387.46,272.03L384.38,261.00L378.98,253.68L372.11,250L374.15,249.51L379.16,246.32L384.71,238.97L387.92,227.90L386.88,215.24L381.44,203.88L373.31,196.17L365.30,192.81L360.01,192.61L358.69,192.95L360.65,191.07L363.59,185.25L364.62,175.63L361.61,164.17L354.14,153.74L343.70,146.83L333.03,144.45L324.85,145.62L320.69,147.88L320.13,148.37L321.04,145.15L320.54,138.07L316.30,128.88L307.62,120.39L295.76,115.24L283.37,114.69L273.26,118.03L267.20,122.94L265.07,126.52L264.93,126.60L263.92,122.76L259.54,116.49L250.82,110.53L238.76,107.65L225.88,109.33L215.08,115.15L208.34,122.96L205.82,129.83L205.81,133.41L205.49,132.96L202.21,129.74L194.74,126.39L183.80,125.73L171.74,129.51L161.53,137.60L155.34,148L153.63,157.81L154.90,164.50L156.40,167.07L155.37,166.48L150.31,165.24L141.65,166.25L131.58,171.49L123.05,181.07L118.44,193.26L118.47,205.16L121.91,214.11L126.08,218.81L128.13,219.96L126.30,219.92L120.74,221.63L113.42,227.25L107.28,237.22L104.86,250L107.16,262.79L113.18,272.79L120.39,278.45L125.86,280.18L127.58,280.17L125.41,281.36L121.11,286.12L117.54,295.16L117.39,307.20L121.92,319.54L130.42,329.29L140.49,334.65L149.15,335.75L154.19,334.57L155.14,334.05L153.54,336.72L152.16,343.59L153.82,353.64L160.03,364.31L170.34,372.64L182.55,376.61L193.65,376.05L201.22,372.74L204.53,369.56L204.82,369.21L204.79,372.97L207.33,380.12L214.20,388.24L225.25,394.34L238.46,396.19L250.84,393.36L259.81,387.36L264.33,381.02L265.39,377.18L265.55,377.38L267.76,381.19L274.04,386.38L284.51,389.95L297.38,389.50L309.70,384.29L318.75,375.61L323.21,366.17L323.80,358.93L322.92,355.67L323.57,356.28L327.97,358.73L336.56,360.05L347.78,357.65L358.77,350.54L366.67,339.72L369.93,327.81L368.95,317.81L365.98,311.76L364.02,309.84L365.50,310.26L371.17,310.10L379.70,306.62L388.38,298.55L394.23,286.63L395.46,273.31L392.19,261.64L386.46,253.89L379.19,250L381.33,249.48L386.63,246.11L392.48,238.34L395.87,226.62L394.75,213.24L388.99,201.23L380.38,193.08L371.90,189.54L366.30,189.32L364.89,189.70L366.96,187.71L370.05,181.56L371.13,171.40L367.95,159.30L360.04,148.28L349.00,141.00L337.72,138.49L329.07,139.73L324.67,142.13L324.07,142.66L325.03,139.26L324.49,131.80L320.00,122.10L310.84,113.15L298.32,107.73L285.22,107.15L274.55,110.69L268.16,115.89L265.91,119.67L265.76,119.77L264.69,115.73L260.06,109.12L250.87,102.85L238.15,99.82L224.56,101.61L213.16,107.76L206.06,116.01L203.41,123.27L203.40,127.05L203.06,126.59L199.61,123.21L191.74,119.68L180.21,119.00L167.51,123.00L156.75,131.53L150.24,142.50L148.44,152.85L149.79,159.91L151.38,162.62L150.30,162.00L144.98,160.71L135.87,161.78L125.27,167.30L116.30,177.41L111.46,190.25L111.50,202.78L115.13,212.20L119.53,217.16L121.70,218.38L119.78,218.34L113.94,220.14L106.25,226.06L99.81,236.55L97.27,250L99.70,263.46L106.05,273.98L113.65,279.93L119.41,281.75L121.24,281.74L118.97,282.98L114.45,287.98L110.71,297.49L110.56,310.14L115.34,323.11L124.29,333.35L134.89,338.98L144,340.13L149.3,338.88L150.31,338.32L148.63,341.13L147.2,348.33L148.95,358.89L155.48,370.09L166.32,378.83L179.15,382.98L190.82,382.39L198.78,378.89L202.25,375.54L202.56,375.17L202.54,379.11L205.20,386.60L212.42,395.11L224.02,401.50L237.89,403.43L250.89,400.44L260.30,394.13L265.04,387.48L266.15,383.43L266.31,383.63L268.63,387.61L275.21,393.04L286.19,396.78L299.68,396.29L312.60,390.82L322.09,381.70L326.76,371.80L327.37,364.19L326.44,360.77L327.11,361.39L331.72,363.95L340.71,365.32L352.46,362.81L363.96,355.34L372.24,344L375.63,331.51L374.60,321.03L371.47,314.69L369.41,312.67L370.95,313.11L376.87,312.93L385.80,309.28L394.87,300.83L400.99,288.35L402.25,274.4L398.82,262.18L392.81,254.07L385.19,250L387.42,249.45L392.95,245.93L399.05,237.80L402.59,225.55L401.41,211.55L395.37,199.00L386.35,190.48L377.47,186.78L371.60,186.56L370.12,186.95L372.27,184.88L375.50,178.46L376.62,167.85L373.27,155.20L365,143.70L353.45,136.10L341.65,133.48L332.62,134.80L328.01,137.31L327.38,137.87L328.37,134.34L327.80,126.55L323.11,116.44L313.53,107.10L300.45,101.45L286.77,100.86L275.63,104.57L268.95,110.01L266.61,113.97L266.45,114.08L265.32,109.88L260.5,103.00L250.90,96.47L237.63,93.32L223.46,95.19L211.58,101.63L204.17,110.25L201.41,117.83L201.41,121.78L201.06,121.32L197.46,117.80L189.26,114.13L177.25,113.43L164.02,117.62L152.81,126.52L146.03,137.97L144.17,148.76L145.58,156.13L147.24,158.96L146.13,158.32L140.60,156.98L131.12,158.11L120.09,163.87L110.76,174.40L105.73,187.77L105.79,200.84L109.57,210.65L114.17,215.81L116.44,217.08L114.46,217.04L108.39,218.92L100.40,225.08L93.71,236.00L91.08,250L93.62,264.00L100.24,274.94L108.16,281.13L114.17,283.03L116.08,283.01L113.73,284.30L109.04,289.5L105.16,299.38L105.02,312.53L110.01,326.01L119.32,336.65L130.34,342.49L139.83,343.68L145.35,342.37L146.41,341.78L144.67,344.69L143.19,352.17L145.01,363.13L151.81,374.75L163.08,383.82L176.42,388.12L188.53,387.49L196.81,383.85L200.42,380.36L200.75,379.96L200.72,384.04L203.49,391.80L210.99,400.63L223.04,407.25L237.43,409.24L250.92,406.12L260.68,399.56L265.60,392.64L266.75,388.43L266.92,388.63L269.33,392.74L276.15,398.37L287.54,402.23L301.52,401.72L314.92,396.02L324.74,386.55L329.58,376.28L330.21,368.38L329.24,364.83L329.93,365.46L334.69,368.10L344.01,369.52L356.17,366.90L368.09,359.15L376.65,347.39L380.15,334.45L379.07,323.58L375.82,317.01L373.68,314.92L375.27,315.36L381.39,315.17L390.62,311.39L400.00,302.63L406.32,289.7L407.62,275.26L404.05,262.61L397.82,254.21L389.92,250L392.21,249.43L397.93,245.78L404.23,237.37L407.88,224.70L406.64,210.22L400.38,197.24L391.04,188.43L381.84,184.61L375.76,184.38L374.22,184.8L376.44,182.67L379.76,176.03L380.91,165.06L377.44,152.00L368.88,140.12L356.94,132.26L344.73,129.57L335.38,130.94L330.61,133.55L329.95,134.13L330.97,130.49L330.38,122.46L325.52,112.02L315.63,102.38L302.11,96.56L287.98,95.96L276.47,99.81L269.57,105.43L267.15,109.54L266.98,109.67L265.82,105.33L260.84,98.24L250.93,91.52L237.24,88.27L222.60,90.22L210.34,96.88L202.70,105.78L199.86,113.62L199.86,117.71L199.50,117.24L195.8,113.62L187.34,109.85L174.95,109.13L161.32,113.46L149.76,122.65L142.78,134.47L140.87,145.61L142.33,153.21L144.06,156.13L142.92,155.49L137.22,154.11L127.46,155.28L116.10,161.22L106.50,172.08L101.32,185.87L101.39,199.34L105.31,209.45L110.05,214.77L112.40,216.08L110.37,216.05L104.13,217.98L95.91,224.34L89.03,235.58L86.33,250L88.96,264.42L95.79,275.68L103.95,282.06L110.15,284.00L112.13,283.98L109.72,285.31L104.91,290.66L100.92,300.82L100.79,314.36L105.93,328.22L115.52,339.17L126.88,345.17L136.64,346.38L142.33,345.04L143.43,344.43L141.65,347.40L140.13,355.10L142.02,366.36L149.01,378.31L160.61,387.62L174.33,392.04L186.80,391.38L195.31,387.63L199.02,384.03L199.37,383.61L199.34,387.79L202.20,395.76L209.90,404.82L222.29,411.62L237.08,413.65L250.94,410.44L260.98,403.69L266.03,396.56L267.21,392.23L267.38,392.42L269.86,396.64L276.86,402.41L288.56,406.37L302.92,405.83L316.67,399.97L326.76,390.24L331.72,379.68L332.36,371.56L331.36,367.9L332.06,368.55L336.95,371.25L346.51,372.69L358.99,370.00L371.21,362.04L379.99,349.96L383.58,336.67L382.46,325.51L379.12,318.76L376.91,316.61L378.53,317.06L384.80,316.86L394.27,312.98L403.88,303.99L410.35,290.72L411.68,275.91L408.01,262.94L401.61,254.32L393.49,250L395.84,249.42L401.69,245.68L408.14,237.05L411.87,224.06L410.60,209.21L404.17,195.91L394.59,186.88L385.15,182.97L378.91,182.75L377.32,183.17L379.58,180.99L382.98,174.19L384.15,162.96L380.59,149.58L371.81,137.41L359.56,129.37L347.05,126.62L337.47,128.02L332.58,130.70L331.90,131.31L332.94,127.59L332.32,119.37L327.35,108.68L317.21,98.82L303.36,92.87L288.89,92.26L277.11,96.21L270.04,101.98L267.56,106.19L267.39,106.33L266.20,101.90L261.10,94.65L250.96,87.77L236.93,84.46L221.96,86.47L209.41,93.29L201.60,102.41L198.69,110.43L198.69,114.62L198.33,114.15L194.54,110.45L185.89,106.60L173.22,105.88L159.27,110.31L147.46,119.72L140.32,131.82L138.37,143.22L139.87,151.00L141.64,153.99L140.49,153.34L134.66,151.93L124.68,153.14L113.08,159.22L103.26,170.33L97.97,184.43L98.06,198.20L102.06,208.55L106.92,213.98L109.33,215.33L107.26,215.30L100.89,217.27L92.50,223.77L85.47,235.27L82.72,250L85.42,264.74L92.40,276.25L100.75,282.76L107.09,284.75L109.12,284.73L106.66,286.08L101.75,291.54L97.69,301.92L97.56,315.75L102.81,329.91L112.62,341.09L124.23,347.22L134.21,348.45L140.02,347.07L141.15,346.44L139.34,349.48L137.79,357.33L139.72,368.83L146.87,381.03L158.72,390.54L172.73,395.04L185.46,394.36L194.15,390.52L197.95,386.85L198.30,386.41L198.28,390.67L201.20,398.81L209.07,408.05L221.71,414.98L236.81,417.05L250.96,413.76L261.20,406.87L266.36,399.59L267.57,395.17L267.74,395.35L270.26,399.65L277.41,405.53L289.35,409.57L304,409.01L318.03,403.03L328.32,393.09L333.38,382.31L334.03,374.02L333.01,370.29L333.72,370.94L338.71,373.70L348.45,375.16L361.18,372.41L373.64,364.29L382.59,351.97L386.25,338.41L385.11,327.02L381.69,320.13L379.44,317.94L381.09,318.39L387.48,318.19L397.13,314.23L406.92,305.06L413.52,291.53L414.87,276.42L411.12,263.19L404.59,254.41L396.31,250L398.70,249.41L404.65,245.59L411.23,236.8L415.03,223.55L413.73,208.42L407.17,194.86L397.40,185.65L387.77,181.67L381.40,181.44L379.78,181.88L382.09,179.66L385.55,172.73L386.73,161.28L383.1,147.64L374.15,135.24L361.67,127.05L348.91,124.25L339.14,125.69L334.16,128.42L333.47,129.05L334.52,125.25L333.89,116.88L328.82,106.00L318.49,95.95L304.38,89.88L289.63,89.28L277.62,93.30L270.42,99.18L267.89,103.47L267.71,103.62L266.50,99.11L261.31,91.73L250.97,84.72L236.69,81.35L221.44,83.40L208.66,90.35L200.69,99.65L197.73,107.82L197.74,112.10L197.37,111.61L193.51,107.85L184.70,103.93L171.79,103.20L157.59,107.72L145.56,117.30L138.29,129.62L136.30,141.24L137.83,149.17L139.64,152.22L138.46,151.55L132.53,150.12L122.37,151.35L110.56,157.54L100.56,168.86L95.18,183.22L95.26,197.25L99.35,207.78L104.30,213.32L106.75,214.69L104.65,214.66L98.16,216.67L89.61,223.29L82.46,235.00L79.66,250L82.41,265.01L89.53,276.73L98.03,283.36L104.48,285.38L106.55,285.36L104.05,286.74L99.05,292.30L94.92,302.87L94.79,316.94L100.14,331.37L110.13,342.74L121.94,348.98L132.11,350.24L138.03,348.83L139.18,348.19L137.33,351.29L135.76,359.28L137.72,370.98L145.00,383.40L157.07,393.08L171.33,397.66L184.30,396.97L193.15,393.06L197.01,389.32L197.37,388.87L197.35,393.22L200.32,401.49L208.33,410.90L221.20,417.96L236.58,420.07L250.98,416.72L261.41,409.70L266.66,402.29L267.88,397.78L268.06,397.97L270.63,402.35L277.91,408.34L290.06,412.44L304.97,411.88L319.26,405.78L329.73,395.67L334.89,384.69L335.55,376.26L334.50,372.45L335.23,373.12L340.30,375.93L350.23,377.42L363.18,374.62L375.87,366.35L384.98,353.80L388.71,340.00L387.54,328.41L384.07,321.4L381.77,319.16L383.45,319.63L389.96,319.42L399.78,315.39L409.75,306.05L416.47,292.28L417.84,276.90L414.03,263.43L407.38,254.49L398.95,250L401.38,249.40L407.45,245.51L414.15,236.56L418.01,223.07L416.69,207.67L410.01,193.86L400.07,184.49L390.26,180.43L383.78,180.20L382.14,180.65L384.48,178.38L388.01,171.33L389.22,159.67L385.52,145.78L376.41,133.16L363.70,124.82L350.71,121.96L340.77,123.43L335.69,126.21L334.99,126.84L336.06,122.98L335.42,114.45L330.26,103.37L319.74,93.14L305.37,86.96L290.36,86.34L278.13,90.43L270.80,96.41L268.21,100.78L268.04,100.93L266.81,96.34L261.51,88.82L250.99,81.68L236.44,78.25L220.91,80.33L207.89,87.41L199.78,96.87L196.77,105.20L196.77,109.55L196.39,109.06L192.46,105.22L183.49,101.23L170.34,100.48L155.87,105.08L143.62,114.84L136.21,127.39L134.19,139.22L135.75,147.29L137.58,150.39L136.38,149.71L130.34,148.26L119.99,149.50L107.94,155.81L97.76,167.34L92.27,181.97L92.36,196.26L96.51,206.99L101.55,212.63L104.05,214.03L101.91,213.99L95.29,216.04L86.58,222.78L79.29,234.71L76.44,250L79.23,265.29L86.48,277.24L95.14,283.99L101.72,286.05L103.82,286.03L101.27,287.44L96.17,293.11L91.95,303.88L91.81,318.23L97.27,332.93L107.44,344.52L119.48,350.88L129.84,352.17L135.87,350.74L137.04,350.09L135.16,353.24L133.55,361.39L135.55,373.33L142.96,385.99L155.26,395.86L169.80,400.54L183.02,399.83L192.04,395.86L195.98,392.04L196.34,391.59L196.32,396.02L199.34,404.47L207.51,414.06L220.64,421.26L236.31,423.42L251.00,420.01L261.63,412.85L266.99,405.31L268.24,400.71L268.42,400.91L271.04,405.38L278.46,411.49L290.85,415.68L306.07,415.11L320.64,408.90L331.33,398.59L336.59,387.40L337.27,378.80L336.20,374.92L336.95,375.60L342.13,378.47L352.25,380.00L365.48,377.14L378.43,368.71L387.73,355.91L391.53,341.83L390.35,330.01L386.81,322.86L384.47,320.58L386.19,321.05L392.83,320.84L402.86,316.73L413.04,307.21L419.91,293.15L421.31,277.45L417.43,263.71L410.65,254.58L402.05,250L404.53,249.38L410.73,245.42L417.58,236.28L421.53,222.51L420.19,206.78L413.37,192.68L403.22,183.11L393.22,178.96L386.61,178.73L384.93,179.18L387.33,176.86L390.94,169.66L392.18,157.75L388.40,143.56L379.10,130.66L366.13,122.14L352.87,119.22L342.72,120.71L337.54,123.55L336.82,124.19L337.92,120.24L337.27,111.52L332,100.19L321.25,89.73L306.57,83.41L291.23,82.77L278.74,86.95L271.25,93.06L268.61,97.52L268.44,97.66L267.18,92.96L261.77,85.27L251.01,77.97L236.14,74.45L220.26,76.57L206.96,83.80L198.66,93.47L195.58,101.97L195.58,106.41L195.19,105.90L191.17,101.98L182.00,97.88L168.55,97.11L153.75,101.81L141.21,111.78L133.63,124.61L131.56,136.70L133.15,144.95L135.02,148.13L133.79,147.43L127.60,145.93L117.01,147.20L104.68,153.65L94.26,165.44L88.64,180.40L88.72,195.02L92.96,205.99L98.11,211.77L100.66,213.19L98.46,213.15L91.68,215.25L82.76,222.15L75.29,234.36L72.36,250L75.22,265.65L82.62,277.88L91.48,284.79L98.21,286.91L100.35,286.88L97.73,288.33L92.51,294.13L88.18,305.16L88.03,319.86L93.61,334.91L104.02,346.79L116.34,353.31L126.94,354.63L133.11,353.17L134.30,352.51L132.37,355.75L130.72,364.1L132.76,376.33L140.35,389.31L152.95,399.43L167.84,404.22L181.37,403.51L190.61,399.44L194.65,395.54L195.01,395.09L194.99,399.63L198.09,408.30L206.45,418.14L219.91,425.53L235.97,427.75L251.03,424.26L261.92,416.94L267.41,409.21L268.70,404.50L268.89,404.72L271.57,409.31L279.18,415.58L291.89,419.89L307.50,419.31L322.44,412.95L333.41,402.38L338.81,390.91L339.50,382.10L338.42,378.13L339.19,378.84L344.50,381.78L354.89,383.36L368.47,380.43L381.76,371.79L391.31,358.67L395.22,344.23L394.01,332.10L390.39,324.76L387.99,322.43L389.77,322.92L396.59,322.71L406.90,318.49L417.36,308.72L424.41,294.29L425.86,278.18L421.88,264.07L414.93,254.7L406.11,250L408.67,249.37L415.05,245.30L422.08,235.91L426.15,221.77L424.78,205.61L417.79,191.13L407.38,181.30L397.11,177.03L390.33,176.79L388.61,177.25L391.08,174.86L394.79,167.46L396.08,155.22L392.21,140.64L382.66,127.38L369.33,118.61L355.71,115.60L345.29,117.13L339.97,120.03L339.23,120.69L340.37,116.62L339.71,107.65L334.30,96.00L323.25,85.24L308.16,78.73L292.40,78.06L279.55,82.34L271.85,88.62L269.14,93.19L268.96,93.33L267.66,88.49L262.10,80.57L251.04,73.05L235.75,69.43L219.41,71.60L205.72,79.02L197.19,88.96L194.01,97.70L194.01,102.26L193.61,101.73L189.47,97.68L180.02,93.46L166.18,92.66L150.94,97.48L138.03,107.74L130.22,120.93L128.08,133.37L129.71,141.86L131.63,145.12L130.35,144.39L123.98,142.85L113.06,144.15L100.37,150.79L89.62,162.92L83.82,178.33L83.90,193.37L88.26,204.68L93.55,210.62L96.17,212.08L93.89,212.04L86.90,214.20L77.71,221.30L69.99,233.88L66.97,250L69.90,266.13L77.52,278.73L86.64,285.86L93.56,288.04L95.76,288.02L93.06,289.51L87.66,295.49L83.19,306.87L83.03,322.01L88.77,337.54L99.49,349.79L112.19,356.52L123.11,357.89L129.47,356.39L130.69,355.71L128.69,359.06L126.98,367.68L129.08,380.30L136.90,393.69L149.89,404.13L165.24,409.09L179.20,408.37L188.73,404.18L192.89,400.16L193.26,399.70L193.24,404.40L196.43,413.35L205.06,423.52L218.94,431.15L235.52,433.45L251.06,429.87L262.31,422.31L267.97,414.34L269.30,409.50L269.50,409.73L272.27,414.48L280.13,420.96L293.25,425.42L309.37,424.83L324.81,418.28L336.14,407.37L341.72,395.54L342.44,386.44L341.33,382.35L342.13,383.09L347.63,386.13L358.37,387.77L372.39,384.76L386.13,375.83L396.01,362.28L400.06,347.37L398.82,334.84L395.08,327.26L392.62,324.85L394.46,325.37L401.52,325.15L412.18,320.80L423,310.70L430.30,295.79L431.81,279.14L427.71,264.55L420.53,254.86L411.42,250L414.08,249.35L420.68,245.14L427.96,235.43L432.18,220.80L430.77,204.09L423.55,189.11L412.79,178.93L402.18,174.52L395.17,174.26L393.40,174.73L395.97,172.26L399.82,164.59L401.15,151.93L397.16,136.83L387.28,123.10L373.5,114.02L359.41,110.90L348.62,112.48L343.12,115.48L342.37,116.15L343.55,111.93L342.87,102.64L337.27,90.56L325.84,79.41L310.22,72.66L293.90,71.96L280.6,76.39L272.63,82.88L269.82,87.61L269.63,87.74L268.30,82.72L262.54,74.51L251.08,66.71L235.24,62.94L218.31,65.18L204.13,72.87L195.28,83.15L191.99,92.20L191.98,96.91L191.56,96.36L187.27,92.15L177.48,87.77L163.13,86.93L147.33,91.93L133.94,102.55L125.84,116.22L123.62,129.11L125.3,137.90L127.28,141.27L125.96,140.51L119.34,138.91L108.01,140.25L94.84,147.12L83.69,159.70L77.67,175.67L77.74,191.27L82.26,202.99L87.74,209.15L90.44,210.67L88.07,210.63L80.81,212.87L71.26,220.23L63.26,233.28L60.11,250L63.14,266.73L71.04,279.81L80.50,287.20L87.67,289.47L89.94,289.45L87.13,291.00L81.52,297.21L76.87,309.02L76.70,324.75L82.65,340.87L93.77,353.59L106.94,360.58L118.27,362.00L124.86,360.45L126.13,359.75L124.05,363.23L122.26,372.19L124.44,385.30L132.56,399.21L146.04,410.07L161.98,415.22L176.47,414.48L186.36,410.14L190.68,405.97L191.07,405.5L191.03,410.39L194.35,419.69L203.31,430.26L217.73,438.20L234.96,440.60L251.1,436.88L262.79,429.04L268.68,420.77L270.06,415.75L270.26,415.99L273.14,420.93L281.32,427.68L294.96,432.32L311.71,431.72L327.76,424.91L339.54,413.58L345.34,401.29L346.10,391.84L344.95,387.59L345.78,388.36L351.50,391.54L362.67,393.25L377.26,390.12L391.56,380.85L401.83,366.76L406.05,351.25L404.77,338.23L400.89,330.36L398.33,327.85L400.25,328.39L407.6,328.17L418.69,323.64L429.96,313.14L437.56,297.63L439.14,280.31L434.88,265.13L427.42,255.06L417.95,250L420.72,249.32L427.59,244.94L435.18,234.84L439.58,219.62L438.12,202.22L430.62,186.63L419.42,176.04L408.38,171.44L401.10,171.17L399.26,171.66L401.94,169.08L405.95,161.10L407.35,147.91L403.19,132.19L392.92,117.89L378.57,108.44L363.91,105.18L352.68,106.81L346.96,109.93L346.18,110.63L347.41,106.23L346.71,96.55L340.88,83.97L328.98,72.35L312.72,65.32L295.72,64.58L281.87,69.18L273.57,75.94L270.65,80.86L270.45,80.99L269.06,75.75L263.06,67.19L251.12,59.06L234.62,55.13L216.99,57.46L202.21,65.46L192.99,76.17L189.56,85.59L189.55,90.50L189.11,89.91L184.63,85.52L174.43,80.95L159.47,80.07L143.01,85.27L129.05,96.34L120.61,110.57L118.28,124.00L120.03,133.16L122.10,136.68L120.71,135.88L113.81,134.20L102.00,135.60L88.26,142.76L76.63,155.87L70.35,172.52L70.42,188.78L75.12,201.00L80.83,207.42L83.65,209.00L81.17,208.95L73.60,211.28L63.63,218.96L55.28,232.56L51.99,250L55.15,267.45L63.38,281.08L73.24,288.80L80.71,291.16L83.08,291.14L80.14,292.76L74.28,299.24L69.43,311.56L69.24,327.96L75.44,344.77L87.04,358.05L100.78,365.34L112.59,366.83L119.47,365.22L120.78,364.49L118.60,368.12L116.74,377.47L119.01,391.15L127.47,405.67L141.53,417.00L158.16,422.38L173.28,421.61L183.6,417.08L188.10,412.74L188.51,412.25L188.47,417.36L191.93,427.07L201.28,438.11L216.33,446.39L234.3,448.90L251.15,445.02L263.35,436.85L269.49,428.22L270.93,422.98L271.15,423.23L274.15,428.40L282.69,435.44L296.92,440.29L314.41,439.66L331.17,432.56L343.46,420.75L349.52,407.91L350.31,398.05L349.11,393.62L349.98,394.43L355.96,397.75L367.62,399.53L382.85,396.27L397.78,386.60L408.51,371.89L412.91,355.70L411.58,342.11L407.53,333.89L404.86,331.28L406.87,331.84L414.55,331.61L426.13,326.89L437.90,315.93L445.84,299.74L447.49,281.65L443.04,265.80L435.25,255.28L425.37,250L428.26,249.29L435.45,244.72L443.38,234.17L447.97,218.27L446.45,200.11L438.61,183.82L426.93,172.76L415.40,167.96L407.79,167.67L405.88,168.19L408.68,165.50L412.87,157.15L414.33,143.38L409.99,126.96L399.26,112.03L384.28,102.15L368.97,98.75L357.25,100.45L351.27,103.71L350.45,104.43L351.75,99.83L351.01,89.72L344.92,76.58L332.49,64.44L315.51,57.10L297.75,56.32L283.29,61.13L274.62,68.18L271.57,73.32L271.36,73.46L269.91,67.99L263.64,59.04L251.17,50.55L233.93,46.44L215.51,48.87L200.07,57.23L190.45,68.41L186.86,78.25L186.85,83.38L186.39,82.76L181.72,78.18L171.05,73.40L155.43,72.49L138.23,77.91L123.65,89.47L114.83,104.35L112.40,118.37L114.22,127.94L116.38,131.61L114.93,130.78L107.72,129.03L95.38,130.49L81.03,137.97L68.88,151.66L62.32,169.05L62.39,186.04L67.30,198.80L73.27,205.51L76.21,207.16L73.62,207.12L65.71,209.55L55.30,217.57L46.57,231.78L43.14,250L46.43,268.23L55.03,282.47L65.33,290.53L73.14,293.00L75.61,292.98L72.54,294.67L66.42,301.44L61.36,314.31L61.16,331.45L67.64,349.01L79.75,362.88L94.11,370.50L106.45,372.06L113.63,370.37L115.00,369.61L112.73,373.40L110.79,383.17L113.15,397.46L122.00,412.63L136.69,424.46L154.06,430.09L169.85,429.28L180.63,424.55L185.34,420.01L185.76,419.5L185.72,424.84L189.33,434.98L199.11,446.51L214.82,455.16L233.60,457.78L251.20,453.73L263.94,445.19L270.36,436.17L271.87,430.70L272.09,430.96L275.23,436.35L284.14,443.71L299.01,448.78L317.28,448.12L334.78,440.70L347.62,428.36L353.95,414.95L354.78,404.65L353.52,400.02L354.43,400.86L360.67,404.33L372.86,406.19L388.76,402.78L404.35,392.67L415.56,377.31L420.16,360.40L418.76,346.20L414.53,337.62L411.74,334.89L413.84,335.48L421.85,335.24L433.95,330.30L446.24,318.85L454.53,301.94L456.25,283.05L451.60,266.50L443.47,255.51L433.14,250L436.16,249.26L443.66,244.48L451.94,233.47L456.73,216.87L455.14,197.90L446.96,180.90L434.75,169.35L422.71,164.33L414.76,164.04L412.77,164.57L415.68,161.76L420.06,153.06L421.58,138.67L417.05,121.54L405.85,105.95L390.20,95.63L374.21,92.09L361.97,93.87L355.73,97.27L354.87,98.02L356.22,93.23L355.45,82.68L349.10,68.96L336.12,56.29L318.39,48.63L299.85,47.82L284.75,52.85L275.70,60.21L272.51,65.58L272.30,65.73L270.78,60.02L264.24,50.68L251.23,41.82L233.23,37.54L214.01,40.08L197.89,48.80L187.84,60.48L184.10,70.75L184.10,76.11L183.62,75.47L178.74,70.69L167.61,65.71L151.31,64.76L133.37,70.43L118.16,82.49L108.95,98.02L106.42,112.66L108.33,122.64L110.58,126.48L109.07,125.61L101.56,123.78L88.69,125.31L73.72,133.12L61.05,147.41L54.21,165.55L54.28,183.28L59.41,196.59L65.64,203.59L68.71,205.32L66.02,205.27L57.77,207.81L46.92,216.18L37.82,231L34.24,250L37.68,269.01L46.66,283.87L57.40,292.27L65.55,294.85L68.14,294.82L64.94,296.58L58.56,303.64L53.29,317.06L53.09,334.93L59.85,353.24L72.49,367.70L87.46,375.64L100.33,377.26L107.82,375.50L109.25,374.70L106.89,378.65L104.87,388.83L107.34,403.72L116.56,419.53L131.88,431.86L149.99,437.72L166.46,436.87L177.70,431.94L182.60,427.2L183.05,426.66L183.01,432.22L186.78,442.78L196.96,454.79L213.34,463.81L232.91,466.53L251.25,462.30L264.53,453.39L271.22,443.99L272.78,438.28L273.02,438.55L276.29,444.16L285.57,451.82L301.06,457.09L320.09,456.4L338.32,448.67L351.70,435.80L358.29,421.83L359.15,411.09L357.83,406.26L358.78,407.14L365.27,410.74L377.95,412.67L394.52,409.12L410.75,398.58L422.41,382.59L427.19,364.97L425.74,350.18L421.32,341.24L418.41,338.39L420.59,339.00L428.93,338.75L441.52,333.61L454.30,321.68L462.93,304.08L464.71,284.41L459.86,267.18L451.39,255.74L440.63,250L443.77,249.23L451.57,244.26L460.17,232.79L465.15,215.52L463.49,195.78L454.97,178.09L442.25,166.07L429.72,160.86L421.45,160.55L419.36,161.11L422.39,158.19L426.93,149.14L428.51,134.18L423.79,116.35L412.13,100.14L395.85,89.42L379.21,85.74L366.47,87.59L359.97,91.14L359.08,91.93L360.48,86.95L359.67,75.98L353.06,61.72L339.56,48.56L321.12,40.59L301.84,39.77L286.13,45.00L276.72,52.66L273.41,58.25L273.18,58.41L271.60,52.49L264.80,42.79L251.27,33.59L232.57,29.15L212.59,31.80L195.84,40.87L185.40,53.02L181.51,63.71L181.51,69.28L181.01,68.62L175.95,63.67L164.39,58.50L147.45,57.51L128.81,63.41L113.01,75.96L103.46,92.10L100.83,107.31L102.82,117.69L105.17,121.68L103.61,120.79L95.81,118.89L82.44,120.49L66.91,128.60L53.75,143.45L46.66,162.30L46.75,180.71L52.08,194.54L58.56,201.81L61.76,203.60L58.97,203.55L50.41,206.19L39.16,214.88L29.72,230.27L26.02,250L29.60,269.74L38.93,285.15L50.09,293.88L58.56,296.55L61.25,296.52L57.94,298.35L51.33,305.67L45.87,319.59L45.67,338.13L52.69,357.13L65.81,372.12L81.35,380.36L94.72,382.03L102.50,380.19L103.99,379.37L101.55,383.46L99.46,394.01L102.03,409.45L111.60,425.84L127.49,438.62L146.28,444.68L163.37,443.79L175.02,438.66L180.12,433.75L180.58,433.18L180.54,438.93L184.45,449.88L195.01,462.31L212.00,471.65L232.28,474.46L251.30,470.06L265.06,460.82L271.99,451.07L273.61,445.14L273.85,445.41L277.25,451.21L286.86,459.14L302.91,464.59L322.63,463.87L341.51,455.84L355.37,442.50L362.19,428.01L363.07,416.88L361.70,411.87L362.68,412.77L369.40,416.50L382.53,418.49L399.68,414.80L416.48,403.88L428.55,387.31L433.49,369.06L431.97,353.74L427.39,344.47L424.37,341.52L426.61,342.15L435.24,341.88L448.26,336.55L461.49,324.20L470.40,305.98L472.24,285.62L467.21,267.78L458.43,255.94L447.29,250L450.52,249.20L458.58,244.06L467.47,232.20L472.62,214.32L470.88,193.90L462.05,175.60L448.89,163.18L435.92,157.79L427.34,157.47L425.18,158.06L428.3,155.04L432.99,145.68L434.61,130.22L429.72,111.79L417.65,95.03L400.81,83.96L383.60,80.16L370.42,82.08L363.69,85.76L362.77,86.59L364.20,81.45L363.36,70.12L356.52,55.39L342.56,41.80L323.50,33.57L303.57,32.73L287.34,38.15L277.61,46.08L274.19,51.87L273.95,52.05L272.32,45.93L265.29,35.93L251.32,26.44L231.99,21.86L211.35,24.61L194.06,33.99L183.28,46.55L179.27,57.60L179.27,63.36L178.76,62.70L173.53,57.59L161.60,52.26L144.12,51.26L124.88,57.36L108.58,70.32L98.72,86.99L96.02,102.71L98.08,113.43L100.51,117.55L98.91,116.64L90.86,114.69L77.08,116.34L61.06,124.73L47.50,140.05L40.19,159.51L40.29,178.51L45.81,192.78L52.5,200.28L55.81,202.14L52.94,202.09L44.13,204.81L32.53,213.78L22.81,229.66L19.00,250L22.71,270.35L32.34,286.25L43.87,295.25L52.61,298.00L55.40,297.97L51.99,299.84L45.19,307.39L39.57,321.74L39.38,340.84L46.63,360.42L60.16,375.87L76.19,384.35L89.97,386.06L98.00,384.16L99.55,383.30L97.04,387.51L94.89,398.37L97.55,414.27L107.42,431.15L123.80,444.30L143.16,450.54L160.76,449.61L172.78,444.32L178.02,439.24L178.50,438.65L178.47,444.56L182.50,455.82L193.38,468.62L210.87,478.22L231.76,481.10L251.33,476.56L265.50,467.03L272.64,456.98L274.31,450.86L274.55,451.13L278.04,457.09L287.94,465.24L304.45,470.84L324.74,470.08L344.17,461.81L358.41,448.07L365.43,433.15L366.33,421.69L364.92,416.53L365.91,417.44L372.82,421.26L386.32,423.30L403.95,419.50L421.22,408.26L433.62,391.21L438.69,372.43L437.12,356.67L432.40,347.14L429.28,344.10L431.58,344.74L440.44,344.46L453.81,338.98L467.39,326.27L476.55,307.53L478.42,286.61L473.24,268.28L464.20,256.10L452.74,250L456.06,249.18L464.32,243.89L473.45,231.71L478.72,213.35L476.93,192.37L467.84,173.57L454.31,160.81L440.97,155.28L432.16,154.96L429.92,155.57L433.12,152.48L437.92,142.87L439.58,127.00L434.55,108.08L422.14,90.88L404.84,79.52L387.16,75.63L373.62,77.61L366.71,81.40L365.75,82.26L367.22,76.99L366.36,65.37L359.33,50.26L345.00,36.33L325.43,27.90L304.97,27.05L288.31,32.62L278.33,40.77L274.81,46.72L274.58,46.91L272.90,40.65L265.69,30.40L251.35,20.68L231.53,15.99L210.36,18.82L192.63,28.47L181.57,41.36L177.47,52.70L177.47,58.62L176.95,57.94L171.60,52.72L159.37,47.27L141.45,46.25L121.73,52.51L105.03,65.81L94.93,82.91L92.17,99.03L94.30,110.03L96.80,114.26L95.16,113.33L86.93,111.35L72.81,113.04L56.40,121.64L42.52,137.35L35.04,157.29L35.16,176.76L40.82,191.38L47.69,199.07L51.09,200.97L48.17,200.93L39.15,203.72L27.28,212.91L17.34,229.17L13.46,250L17.26,270.84L27.14,287.12L38.95,296.32L47.91,299.14L50.77,299.11L47.30,301.02L40.35,308.75L34.61,323.43L34.42,342.98L41.85,363.01L55.72,378.82L72.13,387.49L86.24,389.24L94.46,387.28L96.06,386.39L93.50,390.70L91.31,401.80L94.03,418.06L104.14,435.31L120.91,448.76L140.72,455.13L158.73,454.17L171.02,448.75L176.39,443.54L176.88,442.93L176.86,448.96L180.98,460.46L192.11,473.54L209.99,483.34L231.35,486.27L251.36,481.62L265.85,471.87L273.14,461.58L274.85,455.32L275.10,455.58L278.66,461.67L288.77,469.98L305.65,475.69L326.38,474.90L346.23,466.44L360.78,452.39L367.94,437.14L368.86,425.42L367.41,420.13L368.42,421.06L375.47,424.96L389.25,427.03L407.25,423.14L424.88,411.65L437.54,394.22L442.72,375.04L441.10,358.94L436.27,349.2L433.08,346.09L435.41,346.74L444.45,346.45L458.10,340.84L471.95,327.87L481.28,308.74L483.18,287.37L477.88,268.66L468.65,256.23"/>

  </g>
</svg>
