<?xml version="1.0" standalone="no"?>
<!DOCTYPE svg PUBLIC "-//W3C//DTD SVG 1.1//EN" "http://www.w3.org/Graphics/SVG/1.1/DTD/svg11.dtd">
<svg width="500" height="500" title="polygons" version="1.1" viewBox="0 0 500 500" xmlns="http://www.w3.org/2000/svg" class="svg-paper">
  <g>
    <!--  Created by Sandify -->
    <!--  https://sandify.org -->
    <!--  Version: 0.2.8 -->

    <!--  Machine type: Rectangular -->
    <!--    Min X (mm): 0 -->
    <!--    Max X (mm): 500 -->
    <!--    Min Y (mm): 0 -->
    <!--    Max Y (mm): 500 -->
    <!--  Content type: shape -->
    <!--  Layer: -->
    <!--    Shape: Star -->
    <!--    Name: bubbles -->
    <!--    Number of points: 16 -->
    <!--    Size of points: 0.5 -->
    <!--    Visible: true -->
    <!--    Initial width: 12 -->
    <!--    Initial height: 12 -->
    <!--    X offset: -1 -->
    <!--    Y offset: 0 -->
    <!--    Rotate (degrees): 0 -->
    <!--    Reverse path: false -->
    <!--    Number of loops: 20 -->
    <!--    When transforming shape: smear -->
    <!--    Scale: true -->
    <!--      Scale (+/-): 100 -->
    <!--      Scale by: constant -->
    <!--    Spin: true -->
    <!--      Spin (+/-): 2 -->
    <!--      Spin by: constant -->
    <!--        Switchbacks: 0 -->
    <!--    Track: false -->
    <!--    Fine tuning: -->
    <!--      Connect to next layer: line -->
    <!--      Draw portion of path (%): 100 -->
    <!--      Backtrack at end (%): 0 -->
    <!--      Rotate starting point (%): 0 -->
    <!--  Reverse export path: false -->

    <!-- File name: 'floral 16 petals' -->
    <!-- File type: svg -->


    <desc>pwidth:500;pheight:500;</desc>
    <path
       stroke="#000000"
       stroke-width="0.4mm"
       fill="none"
       d="M255,250L255,250L261.13,247.57L254.88,247.55L259.89,242.67L253.75,245.21L256.65,238.42L251.68,243.40L251.74,235.63L248.94,242.5L245.85,234.95L245.91,242.76L239.88,236.70L243.09,244.24L234.84,240.82L240.98,246.82L231.66,246.84L240.00,250.16L231.05,253.92L240.41,253.76L233.32,260.95L242.26,257.04L238.34,266.77L245.35,259.44L245.49,270.32L249.28,260.50L253.74,270.84L253.44,259.93L261.83,268.03L257.19,257.71L268.41,262.10L259.88,254.09L272.31,253.82L260.99,249.58L272.72,244.39L260.25,244.84L269.34,235.25L257.65,240.64L262.50,227.92L253.52,237.68L253.08,223.69L248.41,236.51L242.46,223.42L243.11,237.44L232.30,227.37L238.45,240.42L224.23,235.15L235.22,245.09L219.69,245.72L234.02,250.78L219.57,257.51L235.14,256.65L224.12,268.70L238.51,261.75L232.85,277.48L243.72,265.24L244.56,282.32L250.01,266.47L257.53,282.27L256.43,265.15L269.74,277.10L261.97,261.37L279.22,267.40L265.70,255.63L284.33,254.53L266.96,248.74L284.08,240.39L265.43,241.76L278.28,227.18L261.24,235.80L267.62,217.01L254.95,231.82L253.58,211.65L247.47,230.56L238.27,212.12L239.94,232.31L224.06,218.57L233.55,236.92L213.23,230.22L229.34,243.75L207.63,245.42L228.08,251.83L208.33,261.90L230.06,259.91L215.46,277.10L235.09,266.72L228.11,288.58L242.49,271.14L244.48,294.40L251.16,272.40L262.12,293.44L259.78,270.17L278.3,285.62L267.00,264.71L290.41,271.96L271.64,256.76L296.42,254.41L272.87,247.49L295.18,235.60L270.40,238.32L286.67,218.46L264.49,230.70L271.98,205.74L255.98,225.86L253.25,199.55L246.11,224.66L233.28,201.09L236.41,227.40L215.19,210.33L228.38,233.75L201.86,226.05L223.36,242.83L195.53,245.97L222.20,253.29L197.38,267.09L225.20,263.53L207.36,286.12L232.01,271.94L224.12,300.03L241.66,277.15L245.24,306.5L252.72,278.26L267.50,304.31L263.49,274.98L287.47,293.57L272.28,267.70L301.94,275.75L277.67,257.48L308.52,253.44L278.71,245.82L305.98,230.03L275.14,234.53L294.47,209.15L267.40,225.36L275.58,194.12L256.60,219.82L252.07,187.45L244.34,218.85L227.52,190.38L232.52,222.71L205.73,202.68L222.99,230.93L190.17,222.65L217.29,242.31L183.43,247.35L216.41,255.16L186.75,273.04L220.58,267.5L199.86,295.73L229.28,277.39L220.92,311.79L241.25,283.23L246.83,318.59L254.69,284.03L273.65,314.85L267.55,279.53L297.22,300.92L277.79,270.34L313.78,278.76L283.76,257.79L320.61,251.64L284.45,243.75L316.43,223.69L279.64,230.39L301.66,199.26L269.95,219.80L278.38,182.22L256.80,213.70L250.06,175.38L242.17,213.13L220.99,180.02L228.30,218.28L195.70,195.65L217.38,228.47L178.20,220.04L211.17,242.22L171.38,249.58L210.72,257.44L176.49,279.76L216.21,271.80L192.99,305.89L226.92,283.05L218.51,323.83L241.26,289.37L249.26,330.63L257.07,289.69L280.55,325.01L271.93,283.84L307.51,307.63L283.50,272.62L325.87,280.96L289.91,257.68L332.62,249.00L290.08,241.27L326.49,216.61L283.87,225.92L308.2,188.83L272.13,214.05L280.39,170.07L256.58,207.55L247.21,163.39L239.59,207.53L213.72,170.06L223.76,214.12L185.14,189.27L211.58,226.39L165.99,218.24L205.00,242.54L159.41,252.64L205.15,260.12L166.64,287.21L212.12,276.43L186.78,316.58L224.93,288.90L216.92,336.09L241.69,295.54L252.53,342.56L259.86,295.22L288.19,334.75L276.63,287.86L318.33,313.67L289.39,274.51L338.19,282.35L296.09,257.14L344.52,245.52L295.57,238.39L336.12,208.79L287.82,221.14L314.07,177.89L273.93,208.10L281.57,157.70L255.94,201.37L243.52,151.53L236.61,202.08L205.73,160.54L218.90,210.23L174.08,183.57L205.59,224.69L153.58,217.26L198.82,243.28L147.58,256.54L199.74,263.2L157.23,295.38L208.31,281.36L181.26,327.76L223.32,294.93L216.15,348.54L242.53,301.72L256.64,354.35L263.03,300.59L296.53,344.05L281.64,291.60L329.62,319.01L295.46,276.02L350.68,282.91L302.27,256.19L356.26,241.20L300.91,235.12L345.29,200.27L291.48,216.06L319.24,166.48L275.33,202.00L281.93,145.17L254.88,195.19L239.00,139.83L233.24,196.79L197.03,151.49L213.74,206.65L162.56,178.58L199.45,223.38L141.02,217.12L192.65,244.45L135.93,261.26L194.49,266.66L148.31,304.25L204.81,286.59L176.45,339.39L222.11,301.11L216.21,361.14L243.81,307.89L261.57,365.95L266.59,305.79L305.57,352.84L286.94,295.02L341.37,323.63L301.67,277.13L363.31,282.64L308.43,254.81L367.81,236.07L306.06,231.46L353.96,191.07L294.82,210.69L323.68,154.63L276.34,195.75L281.44,132.52L253.40,189.03L233.66,128.34L229.49,191.68L187.66,142.95L208.31,203.39L150.61,174.33L193.17,222.47L128.34,217.81L186.5,246.04L124.50,266.81L189.43,270.51L139.90,313.78L201.63,292.10L172.38,351.44L221.30,307.42L217.12,373.84L245.50,314.03L267.32,377.31L270.53,310.8L315.27,361.11L292.51,298.12L353.52,327.51L308.02,277.83L376.02,281.52L314.56,253.01L379.12,230.12L311.02,227.43L362.09,181.20L297.84,205.05L327.37,142.38L276.95,189.38L280.11,119.79L251.49,182.92L227.50,117.10L225.36,186.77L177.64,134.96L202.60,200.46L138.26,170.83L186.77,221.97L115.6,219.36L180.40,248.05L113.34,273.16L184.58,274.73L132.05,323.97L198.78,297.86L169.08,363.88L220.91,313.84L218.87,386.59L247.62,320.11L273.87,388.41L274.84,315.59L325.61,368.82L298.35,300.88L366.04,330.63L314.46,278.13L388.78,279.55L320.62,250.78L390.13,223.36L315.76,223.03L369.65,170.71L300.51,199.16L330.28,129.77L277.13,182.91L277.93,107.02L249.16,176.88L220.55,106.16L220.87,182.10L166.99,127.55L196.65,197.88L125.57,168.11L180.28,221.88L102.83,221.75L174.38,250.49L102.48,280.31L179.96,279.31L124.79,334.77L196.29,303.88L166.55,376.65L220.93,320.36L221.49,399.36L250.16,326.12L281.22,399.19L279.50,320.15L336.56,375.93L304.42,303.28L378.90,332.95L321.00,278.00L401.55,276.73L326.60,248.14L400.82,215.82L320.26,218.27L376.60,159.61L302.83,193.03L332.41,116.84L276.9,176.36L274.89,94.26L246.41,170.92L212.81,95.56L216.03,177.66L155.74,120.76L190.46,195.65L112.56,166.19L173.71,222.22L90.08,225.01L168.44,253.34L91.97,288.25L175.59,284.23L118.16,346.16L194.16,310.12L164.83,389.73L221.38,326.94L224.95,412.10L253.12,332.02L289.35,409.60L284.52,324.46L348.09,382.40L310.71,305.32L392.05,334.47L327.60,277.45L414.28,273.04L332.48,245.08L411.15,207.50L324.50,213.18L382.92,147.94L304.77,186.69L333.72,103.63L276.24,169.75L270.99,81.55L243.25,165.07L204.3,85.33L210.85,173.48L143.93,114.61L184.07,193.80L99.28,165.08L167.09,222.99L77.39,229.12L162.63,256.61L81.84,296.95L171.48,289.50L112.18,358.10L192.4,316.56L163.93,403.07L222.25,333.57L229.28,424.77L256.49,337.81L298.24,419.62L289.87,328.5L360.17,388.21L317.21,306.98L405.45,335.17L334.24,276.47L426.91,268.50L338.23,241.60L421.06,198.42L328.47,207.75L388.56,135.72L306.33,180.14L334.21,90.17L275.15,163.10L266.23,68.94L239.67,159.35L195.03,75.53L205.34,169.59L131.59,109.14L177.47,192.34L85.77,164.80L160.44,224.19L64.81,234.09L156.95,260.28L72.15,306.40L167.66,295.09L106.88,370.58L191.03,323.20L163.87,416.64L223.55,340.23L234.46,437.31L260.27,343.45L307.88,429.20L295.53,332.25L372.77,393.33L323.89,308.25L419.06,335.02L340.90,275.05L439.42,263.11L343.83,237.73L430.52,188.60L332.14,202L393.50,123.00L307.50,173.41L333.85,76.51L273.63,156.44L260.63,56.47L235.69,153.79L185.03,66.19L199.51,165.99L118.74,104.38L170.70,191.27L72.07,165.37L153.77,225.81L52.38,239.91L151.43,264.37L62.93,316.58L164.14,300.99L102.31,383.54L190.06,330.01L164.65,430.38L225.29,346.89L240.50,449.69L264.45,348.93L318.23,438.3L301.51,335.69L385.86,397.73L330.74,309.12L432.83,334.02L347.56,273.21L451.76,256.86L349.27,233.45L439.50,178.06L335.50,195.95L397.71,109.80L308.27,166.52L332.64,62.70L271.68,149.78L254.16,44.19L231.31,148.40L174.32,57.34L193.39,162.71L105.43,100.36L163.78,190.61L58.23,166.80L147.12,227.88L40.15,246.58L146.09,268.84L54.21,327.47L160.94,307.19L98.47,396.96L189.50,336.97L166.30,444.25L227.47,353.53L247.38,461.87L269.02,354.22L329.30,446.88L307.78,338.81L399.38,401.37L337.73,309.57L446.74,332.16L354.19,270.92L463.88,249.77L354.51,228.77L447.94,166.83L338.54,189.61L401.16,96.17L308.62,159.50L330.56,48.77L269.28,143.16L246.86,32.13L226.55,143.21L162.92,49.03L186.98,159.76L91.69,97.09L156.72,190.36L44.28,169.10L140.51,230.38L28.16,254.10L140.94,273.71L46.05,339.04L158.07,313.67L95.4,410.80L189.36,344.06L168.81,458.22L230.07,360.14L255.10,473.79L273.98,359.31L341.03,454.90L314.33,341.59L413.32,404.24L344.85,309.61L460.72,329.42L360.78,268.20L475.73,241.83L359.54,223.72L455.82,154.93L341.23,182.99L403.84,82.13L308.55,152.35L327.6,34.78L266.46,136.59L238.72,20.36L221.39,138.23L150.85,41.30L180.30,157.15L77.56,94.62L149.55,190.54L30.27,172.28L133.95,233.32L16.46,262.44L136.03,278.95L38.46,351.27L155.56,320.41L93.13,425.03L189.65,351.26L172.21,472.23L233.12,366.67L263.66,485.42L279.32,364.17L353.43,462.34L321.14,344.01L427.64,406.32L352.08,309.21L474.74,325.80L367.30,265.05L487.27,233.08L364.34,218.28L463.10,142.38L343.56,176.12L405.71,67.73L308.05,145.10L323.76,20.76L263.19,130.09L229.76,8.89L215.87,133.50L138.14,34.18L173.36,154.91L63.08,92.95L142.28,191.15L16.25,176.34L127.48,236.69L5.08,271.61L131.35,284.57L31.5,364.13L153.41,327.41L91.66,439.60L190.37,358.55L176.49,486.25L236.60,373.13L273.03,496.71L285.03,368.78L366.44,469.14L328.19,346.07L442.29,407.57L359.39,308.38L488.75,321.30L373.73,261.46L498.47,223.50L368.89,212.49L469.74,129.21"/>

  </g>
</svg>
