<?xml version="1.0" standalone="no"?>
<!DOCTYPE svg PUBLIC "-//W3C//DTD SVG 1.1//EN" "http://www.w3.org/Graphics/SVG/1.1/DTD/svg11.dtd">
<svg width="500" height="500" title="polygons" version="1.1" viewBox="0 0 500 500" xmlns="http://www.w3.org/2000/svg" class="svg-paper">
  <g>
    <!--  Created by Sandify -->
    <!--  https://sandify.org -->
    <!--  Version: 0.2.8 -->

    <!--  Machine type: Rectangular -->
    <!--    Min X (mm): 0 -->
    <!--    Max X (mm): 500 -->
    <!--    Min Y (mm): 0 -->
    <!--    Max Y (mm): 500 -->
    <!--  Content type: shape -->
    <!--  Layer: -->
    <!--    Shape: Heart -->
    <!--    Name: bubbles -->
    <!--    Visible: true -->
    <!--    Initial width: 22 -->
    <!--    Initial height: 22 -->
    <!--    X offset: 0 -->
    <!--    Y offset: 0 -->
    <!--    Rotate (degrees): 0 -->
    <!--    Reverse path: false -->
    <!--    Number of loops: 16 -->
    <!--    When transforming shape: smear -->
    <!--    Scale: true -->
    <!--      Scale (+/-): 100 -->
    <!--      Scale by: constant -->
    <!--    Spin: true -->
    <!--      Spin (+/-): 2 -->
    <!--      Spin by: constant -->
    <!--        Switchbacks: 0 -->
    <!--    Track: false -->
    <!--    Fine tuning: -->
    <!--      Connect to next layer: line -->
    <!--      Draw portion of path (%): 100 -->
    <!--      Backtrack at end (%): 0 -->
    <!--      Rotate starting point (%): 0 -->
    <!--  Reverse export path: false -->

    <!-- File name: 'heart 1' -->
    <!-- File type: svg -->


    <desc>pwidth:500;pheight:500;</desc>
    <path
       stroke="#000000"
       stroke-width="0.4mm"
       fill="none"
       d="M250,243.81L250,243.81L250.00,243.70L250.01,243.47L250.06,243.12L250.14,242.65L250.28,242.07L250.49,241.40L250.78,240.66L251.16,239.86L251.63,239.01L252.21,238.15L252.88,237.29L253.67,236.45L254.56,235.67L255.56,234.95L256.64,234.32L257.81,233.79L259.06,233.39L260.36,233.12L261.71,233.00L263.08,233.02L264.46,233.20L265.83,233.53L267.18,234.01L268.46,234.64L269.68,235.40L270.81,236.29L271.82,237.30L272.71,238.41L273.46,239.60L274.05,240.88L274.48,242.21L274.73,243.58L274.81,245.00L274.71,246.44L274.43,247.88L273.97,249.34L273.35,250.80L272.57,252.25L271.64,253.69L270.59,255.12L269.42,256.54L268.17,257.96L266.84,259.36L265.46,260.75L264.05,262.14L262.63,263.51L261.23,264.89L259.86,266.25L258.55,267.61L257.31,268.95L256.15,270.27L255.09,271.57L254.15,272.83L253.31,274.05L252.60,275.22L252.00,276.33L251.53,277.36L251.16,278.31L250.89,279.16L250.71,279.90L250.60,280.53L250.56,281.03L250.55,281.4L250.56,281.63L250.56,281.73L250.55,281.69L250.49,281.50L250.36,281.19L250.15,280.74L249.83,280.17L249.40,279.48L248.83,278.69L248.12,277.8L247.26,276.82L246.25,275.77L245.09,274.65L243.77,273.47L242.31,272.23L240.73,270.95L239.02,269.62L237.21,268.26L235.32,266.85L233.38,265.41L231.41,263.93L229.43,262.4L227.47,260.83L225.57,259.20L223.74,257.52L222.03,255.79L220.44,254.00L219.02,252.15L217.78,250.25L216.75,248.30L215.93,246.30L215.35,244.28L215.02,242.23L214.93,240.18L215.09,238.14L215.51,236.14L216.16,234.20L217.05,232.34L218.16,230.59L219.46,228.97L220.94,227.51L222.58,226.22L224.35,225.13L226.21,224.25L228.15,223.61L230.12,223.19L232.11,223.02L234.08,223.09L236,223.39L237.85,223.90L239.61,224.62L241.25,225.51L242.75,226.56L244.11,227.72L245.31,228.96L246.35,230.24L247.23,231.53L247.95,232.78L248.51,233.95L248.93,235.01L249.23,235.93L249.42,236.67L249.52,237.2L249.57,237.63L249.56,237.46L249.58,237.05L249.64,236.39L249.78,235.52L250.01,234.44L250.38,233.18L250.88,231.77L251.56,230.25L252.41,228.65L253.45,227.03L254.69,225.41L256.12,223.85L257.74,222.38L259.55,221.04L261.54,219.87L263.67,218.90L265.94,218.17L268.31,217.68L270.77,217.46L273.26,217.52L275.77,217.86L278.25,218.48L280.67,219.38L282.99,220.55L285.17,221.96L287.18,223.60L288.98,225.45L290.56,227.48L291.87,229.67L292.90,231.99L293.64,234.41L294.06,236.92L294.16,239.48L293.95,242.08L293.42,244.71L292.58,247.34L291.45,249.97L290.05,252.58L288.40,255.18L286.54,257.75L284.49,260.29L282.28,262.81L279.97,265.31L277.57,267.78L275.14,270.23L272.71,272.66L270.31,275.06L267.99,277.44L265.77,279.78L263.68,282.09L261.75,284.34L259.99,286.54L258.43,288.67L257.06,290.71L255.91,292.64L254.95,294.45L254.19,296.13L253.62,297.64L253.21,298.98L252.94,300.13L252.80,301.08L252.74,301.81L252.74,302.32L252.76,302.60L252.78,302.65L252.74,302.47L252.62,302.07L252.39,301.45L252.01,300.62L251.45,299.60L250.70,298.40L249.72,297.04L248.51,295.53L247.06,293.90L245.36,292.16L243.42,290.32L241.23,288.40L238.82,286.41L236.20,284.37L233.40,282.26L230.44,280.11L227.37,277.90L224.21,275.65L221.01,273.34L217.81,270.96L214.66,268.52L211.60,266.01L208.67,263.42L205.92,260.74L203.40,257.97L201.12,255.11L199.15,252.17L197.49,249.15L196.19,246.05L195.25,242.91L194.7,239.73L194.54,236.54L194.78,233.37L195.40,230.25L196.41,227.22L197.77,224.32L199.47,221.57L201.49,219.03L203.78,216.73L206.31,214.70L209.05,212.98L211.94,211.59L214.94,210.54L218.00,209.86L221.09,209.55L224.16,209.61L227.15,210.02L230.04,210.77L232.79,211.82L235.36,213.15L237.73,214.71L239.87,216.45L241.77,218.32L243.43,220.25L244.83,222.19L245.99,224.08L246.91,225.86L247.60,227.47L248.10,228.86L248.43,229.99L248.61,230.81L248.71,231.48L248.69,231.25L248.69,230.65L248.75,229.70L248.91,228.41L249.21,226.82L249.69,224.95L250.37,222.87L251.29,220.61L252.47,218.24L253.92,215.82L255.66,213.41L257.68,211.07L260.00,208.86L262.58,206.85L265.42,205.08L268.49,203.60L271.76,202.46L275.19,201.68L278.74,201.29L282.37,201.30L286.01,201.73L289.62,202.57L293.14,203.81L296.53,205.44L299.72,207.44L302.67,209.76L305.32,212.40L307.65,215.31L309.60,218.44L311.14,221.78L312.26,225.27L312.93,228.90L313.14,232.61L312.89,236.39L312.19,240.21L311.06,244.04L309.50,247.88L307.56,251.70L305.28,255.50L302.68,259.26L299.82,263.00L296.75,266.69L293.52,270.35L290.18,273.97L286.80,277.56L283.43,281.10L280.11,284.61L276.89,288.06L273.83,291.46L270.97,294.79L268.32,298.03L265.93,301.18L263.81,304.22L261.98,307.11L260.43,309.84L259.16,312.38L258.17,314.72L257.42,316.82L256.91,318.66L256.59,320.23L256.42,321.50L256.38,322.46L256.39,323.11L256.44,323.43L256.45,323.44L256.38,323.12L256.19,322.50L255.83,321.58L255.25,320.38L254.43,318.93L253.32,317.24L251.90,315.33L250.15,313.25L248.05,311.00L245.62,308.62L242.84,306.12L239.73,303.53L236.31,300.85L232.60,298.11L228.65,295.30L224.49,292.44L220.17,289.51L215.75,286.53L211.27,283.48L206.79,280.35L202.38,277.12L198.10,273.80L194.00,270.37L190.16,266.81L186.61,263.13L183.42,259.33L180.63,255.39L178.28,251.34L176.40,247.18L175.04,242.94L174.19,238.64L173.88,234.31L174.11,230.00L174.87,225.75L176.14,221.61L177.91,217.62L180.15,213.85L182.81,210.34L185.85,207.14L189.23,204.31L192.89,201.88L196.76,199.90L200.81,198.38L204.95,197.36L209.13,196.83L213.28,196.80L217.36,197.25L221.31,198.16L225.07,199.49L228.60,201.19L231.87,203.20L234.84,205.47L237.49,207.91L239.81,210.45L241.78,213.01L243.42,215.51L244.74,217.87L245.75,220.01L246.48,221.87L246.97,223.37L247.25,224.48L247.41,225.39L247.38,225.09L247.36,224.31L247.40,223.06L247.55,221.36L247.88,219.24L248.42,216.77L249.23,213.99L250.35,210.98L251.80,207.81L253.61,204.56L255.79,201.32L258.36,198.16L261.31,195.17L264.63,192.43L268.29,190.00L272.26,187.94L276.50,186.32L280.97,185.18L285.61,184.54L290.35,184.43L295.14,184.87L299.89,185.84L304.55,187.35L309.04,189.37L313.28,191.88L317.22,194.83L320.78,198.19L323.91,201.92L326.57,205.97L328.70,210.29L330.27,214.83L331.26,219.55L331.66,224.41L331.47,229.37L330.68,234.39L329.33,239.45L327.44,244.53L325.05,249.59L322.20,254.64L318.95,259.66L315.36,264.63L311.50,269.57L307.44,274.46L303.25,279.30L298.99,284.09L294.75,288.82L290.58,293.48L286.56,298.08L282.73,302.59L279.15,307L275.87,311.29L272.90,315.44L270.29,319.42L268.04,323.20L266.15,326.75L264.63,330.05L263.44,333.07L262.57,335.76L261.99,338.11L261.64,340.10L261.48,341.70L261.45,342.89L261.50,343.68L261.56,344.04L261.57,344L261.47,343.55L261.19,342.71L260.68,341.50L259.88,339.95L258.75,338.08L257.25,335.93L255.34,333.52L253.01,330.89L250.24,328.07L247.01,325.10L243.35,322.00L239.27,318.79L234.79,315.49L229.96,312.13L224.80,308.70L219.39,305.20L213.77,301.65L208.02,298.02L202.20,294.31L196.40,290.51L190.67,286.59L185.11,282.54L179.79,278.35L174.78,274.00L170.15,269.48L165.97,264.78L162.29,259.90L159.17,254.87L156.66,249.68L154.78,244.37L153.56,238.97L153.02,233.52L153.16,228.07L153.98,222.67L155.45,217.39L157.55,212.30L160.24,207.45L163.48,202.92L167.22,198.78L171.38,195.08L175.92,191.88L180.75,189.24L185.80,187.18L190.99,185.74L196.25,184.92L201.5,184.72L206.67,185.14L211.68,186.13L216.48,187.66L221.00,189.67L225.20,192.08L229.03,194.81L232.47,197.78L235.49,200.88L238.09,204.02L240.26,207.10L242.01,210.01L243.37,212.66L244.37,214.97L245.04,216.84L245.45,218.23L245.69,219.36L245.65,219.01L245.59,218.05L245.58,216.5L245.70,214.38L246.02,211.74L246.59,208.65L247.48,205.17L248.73,201.39L250.40,197.40L252.51,193.30L255.09,189.19L258.15,185.18L261.68,181.36L265.68,177.83L270.11,174.68L274.94,171.99L280.13,169.82L285.62,168.23L291.33,167.27L297.19,166.96L303.12,167.32L309.04,168.36L314.85,170.06L320.46,172.39L325.8,175.34L330.77,178.85L335.29,182.88L339.30,187.38L342.72,192.28L345.50,197.55L347.61,203.11L349.00,208.91L349.67,214.90L349.61,221.04L348.82,227.28L347.34,233.58L345.19,239.92L342.43,246.27L339.11,252.61L335.29,258.92L331.06,265.20L326.5,271.43L321.69,277.61L316.72,283.73L311.67,289.78L306.64,295.76L301.70,301.66L296.94,307.46L292.42,313.14L288.21,318.68L284.35,324.06L280.88,329.25L277.84,334.21L275.23,338.91L273.07,343.32L271.33,347.39L270.00,351.10L269.05,354.40L268.43,357.27L268.08,359.68L267.94,361.60L267.96,363.03L268.05,363.95L268.13,364.36L268.13,364.27L267.98,363.69L267.60,362.64L266.92,361.16L265.88,359.26L264.42,357.00L262.49,354.40L260.06,351.51L257.11,348.38L253.60,345.04L249.56,341.53L244.97,337.88L239.87,334.13L234.29,330.28L228.27,326.37L221.87,322.40L215.16,318.37L208.19,314.26L201.07,310.09L193.86,305.81L186.67,301.43L179.58,296.90L172.69,292.22L166.08,287.34L159.84,282.27L154.07,276.98L148.83,271.45L144.21,265.70L140.25,259.73L137.02,253.56L134.56,247.21L132.89,240.73L132.04,234.17L132.01,227.58L132.80,221.03L134.39,214.60L136.74,208.36L139.82,202.41L143.58,196.82L147.94,191.68L152.84,187.06L158.20,183.03L163.94,179.65L169.96,176.98L176.18,175.04L182.51,173.85L188.84,173.42L195.09,173.72L201.19,174.73L207.04,176.39L212.57,178.63L217.74,181.37L222.47,184.52L226.74,187.96L230.50,191.58L233.76,195.26L236.50,198.88L238.73,202.31L240.47,205.45L241.77,208.19L242.66,210.42L243.21,212.07L243.55,213.44L243.49,213.03L243.37,211.89L243.30,210.04L243.36,207.51L243.63,204.35L244.19,200.63L245.11,196.44L246.45,191.87L248.28,187.05L250.64,182.07L253.55,177.07L257.04,172.16L261.10,167.47L265.72,163.11L270.88,159.18L276.54,155.78L282.64,153.00L289.11,150.90L295.87,149.54L302.84,148.96L309.92,149.17L317.00,150.18L323.99,151.98L330.76,154.56L337.22,157.87L343.27,161.87L348.8,166.50L353.73,171.71L357.98,177.43L361.49,183.60L364.20,190.14L366.07,197.00L367.09,204.12L367.24,211.43L366.54,218.89L365.01,226.45L362.69,234.08L359.65,241.74L355.94,249.40L351.65,257.06L346.86,264.68L341.68,272.26L336.21,279.79L330.54,287.25L324.79,294.63L319.06,301.92L313.43,309.10L308.01,316.16L302.88,323.06L298.11,329.78L293.74,336.30L289.85,342.56L286.44,348.54L283.54,354.19L281.15,359.48L279.26,364.34L277.84,368.76L276.84,372.68L276.21,376.06L275.89,378.90L275.81,381.15L275.88,382.80L276.01,383.86L276.13,384.31L276.12,384.17L275.91,383.47L275.42,382.22L274.55,380.46L273.24,378.24L271.41,375.60L269.03,372.59L266.05,369.26L262.43,365.66L258.16,361.85L253.24,357.85L247.69,353.72L241.53,349.49L234.81,345.17L227.56,340.80L219.87,336.36L211.81,331.87L203.46,327.32L194.92,322.68L186.28,317.94L177.66,313.06L169.15,308.02L160.88,302.78L152.93,297.32L145.42,291.60L138.44,285.62L132.09,279.34L126.45,272.77L121.59,265.92L117.57,258.81L114.44,251.46L112.25,243.93L111.01,236.26L110.74,228.54L111.42,220.83L113.05,213.24L115.58,205.84L118.97,198.75L123.16,192.06L128.09,185.87L133.66,180.27L139.80,175.35L146.40,171.18L153.36,167.82L160.57,165.31L167.94,163.68L175.34,162.94L182.68,163.05L189.86,164.00L196.78,165.72L203.35,168.13L209.50,171.13L215.17,174.63L220.30,178.49L224.85,182.57L228.81,186.75L232.16,190.88L234.90,194.81L237.07,198.41L238.70,201.56L239.83,204.14L240.54,206.05L241.00,207.63L240.9,207.17L240.72,205.86L240.57,203.71L240.53,200.76L240.72,197.08L241.22,192.74L242.12,187.83L243.51,182.47L245.44,176.79L247.98,170.92L251.17,164.99L255.02,159.16L259.55,153.55L264.75,148.31L270.59,143.55L277.03,139.39L284.00,135.93L291.43,133.25L299.23,131.42L307.29,130.47L315.51,130.45L323.76,131.36L331.93,133.19L339.88,135.93L347.50,139.53L354.66,143.95L361.25,149.12L367.16,154.98L372.31,161.46L376.6,168.48L379.98,175.98L382.41,183.87L383.85,192.08L384.30,200.56L383.77,209.24L382.28,218.06L379.88,227.00L376.64,236.00L372.64,245.03L367.96,254.06L362.71,263.08L357.00,272.06L350.95,280.99L344.68,289.84L338.31,298.60L331.96,307.26L325.73,315.78L319.74,324.14L314.07,332.32L308.81,340.27L304.03,347.95L299.77,355.33L296.07,362.36L292.94,368.99L290.39,375.16L288.39,380.84L286.92,385.97L285.92,390.51L285.33,394.42L285.07,397.68L285.06,400.25L285.20,402.14L285.39,403.32L285.53,403.81L285.52,403.63L285.24,402.8L284.61,401.36L283.54,399.35L281.93,396.81L279.72,393.82L276.85,390.43L273.27,386.69L268.96,382.68L263.89,378.43L258.07,374.01L251.51,369.46L244.25,364.82L236.34,360.11L227.84,355.34L218.82,350.54L209.37,345.69L199.59,340.77L189.59,335.77L179.49,330.65L169.39,325.38L159.43,319.91L149.72,314.22L140.39,308.25L131.55,301.98L123.32,295.37L115.79,288.41L109.07,281.10L103.24,273.42L98.36,265.42L94.51,257.11L91.71,248.55L90.01,239.81L89.41,230.96L89.91,222.10L91.49,213.33L94.12,204.75L97.75,196.50L102.31,188.67L107.73,181.39L113.91,174.76L120.76,168.89L128.18,163.86L136.03,159.75L144.21,156.60L152.59,154.45L161.05,153.31L169.47,153.17L177.74,153.98L185.73,155.68L193.36,158.19L200.52,161.40L207.15,165.18L213.18,169.40L218.55,173.90L223.25,178.53L227.24,183.13L230.54,187.52L233.16,191.56L235.15,195.10L236.55,198.01L237.44,200.17L238.03,201.97L237.9,201.45L237.65,199.96L237.39,197.52L237.23,194.17L237.30,189.97L237.70,185L238.53,179.37L239.90,173.22L241.88,166.67L244.55,159.88L247.94,153.01L252.11,146.22L257.05,139.66L262.77,133.49L269.23,127.85L276.4,122.87L284.20,118.67L292.55,115.34L301.36,112.96L310.50,111.58L319.85,111.25L329.28,111.97L338.64,113.75L347.79,116.57L356.59,120.38L364.90,125.14L372.59,130.78L379.53,137.23L385.62,144.41L390.77,152.25L394.90,160.65L397.95,169.53L399.90,178.83L400.73,188.46L400.44,198.35L399.08,208.45L396.69,218.70L393.35,229.06L389.14,239.48L384.16,249.94L378.54,260.39L372.40,270.81L365.87,281.18L359.08,291.48L352.19,301.68L345.30,311.75L338.56,321.66L332.08,331.38L325.97,340.87L320.31,350.08L315.17,358.98L310.62,367.50L306.69,375.61L303.40,383.23L300.75,390.31L298.70,396.81L297.23,402.66L296.27,407.83L295.75,412.27L295.58,415.95L295.67,418.85L295.90,420.96L296.15,422.27L296.33,422.80L296.30,422.57L295.95,421.62L295.17,419.99L293.87,417.74L291.94,414.91L289.32,411.60L285.93,407.85L281.73,403.75L276.69,399.35L270.79,394.73L264.02,389.94L256.43,385.04L248.04,380.06L238.91,375.03L229.10,369.97L218.72,364.88L207.85,359.75L196.62,354.57L185.13,349.30L173.51,343.9L161.91,338.33L150.45,332.54L139.28,326.48L128.52,320.11L118.30,313.36L108.76,306.22L100.01,298.66L92.15,290.66L85.28,282.22L79.49,273.37L74.83,264.15L71.36,254.60L69.11,244.81L68.11,234.85L68.34,224.84L69.80,214.89L72.45,205.12L76.24,195.67L81.09,186.67L86.93,178.26L93.66,170.56L101.16,163.68L109.34,157.73L118.04,152.80L127.15,148.94L136.52,146.20L146.02,144.60L155.50,144.12L164.85,144.72L173.93,146.33L182.62,148.87L190.82,152.21L198.44,156.22L205.39,160.74L211.62,165.61L217.09,170.64L221.77,175.66L225.66,180.48L228.77,184.93L231.14,188.83L232.84,192.06L233.92,194.47L234.65,196.47L234.49,195.89L234.15,194.24L233.76,191.52L233.46,187.76L233.37,183.04L233.63,177.45L234.35,171.11L235.65,164.14L237.62,156.72L240.34,149.00L243.89,141.16L248.30,133.38L253.59,125.84L259.77,118.70L266.80,112.13L274.65,106.28L283.24,101.27L292.48,97.22L302.25,94.22L312.45,92.33L322.92,91.61L333.52,92.07L344.08,93.72L354.44,96.54L364.45,100.48L373.94,105.51L382.76,111.55L390.79,118.52L397.88,126.35L403.94,134.94L408.88,144.2L412.63,154.05L415.16,164.40L416.45,175.16L416.50,186.26L415.35,197.63L413.06,209.22L409.71,220.95L405.38,232.79L400.20,244.68L394.30,256.60L387.82,268.51L380.90,280.37L373.70,292.16L366.37,303.83L359.05,315.36L351.88,326.71L345.00,337.83L338.52,348.67L332.54,359.19L327.14,369.33L322.38,379.03L318.30,388.23L314.91,396.86L312.21,404.88L310.17,412.2L308.75,418.78L307.87,424.58L307.46,429.54L307.41,433.65L307.61,436.86L307.94,439.19L308.27,440.63L308.48,441.19L308.43,440.92L308.00,439.86L307.07,438.05L305.52,435.56L303.25,432.47L300.19,428.85L296.26,424.78L291.41,420.35L285.60,415.63L278.83,410.69L271.1,405.59L262.43,400.40L252.88,395.16L242.49,389.89L231.37,384.61L219.59,379.33L207.28,374.02L194.55,368.67L181.54,363.23L168.39,357.65L155.25,351.89L142.26,345.88L129.58,339.55L117.35,332.85L105.72,325.73L94.83,318.13L84.80,310.04L75.75,301.43L67.78,292.30L61.00,282.66L55.47,272.57L51.25,262.07L48.39,251.25L46.90,240.21L46.80,229.05L48.05,217.92L50.64,206.95L54.50,196.29L59.57,186.09L65.76,176.51L72.96,167.68L81.06,159.75L89.94,152.82L99.44,147.00L109.44,142.37L119.76,138.97L130.28,136.83L140.82,135.94L151.24,136.25L161.41,137.70L171.18,140.19L180.43,143.60L189.05,147.77L196.96,152.53L204.08,157.71L210.35,163.10L215.75,168.50L220.26,173.71L223.89,178.54L226.68,182.79L228.69,186.31L229.99,188.95L230.88,191.15L230.68,190.52L230.24,188.71L229.71,185.70L229.23,181.55L228.95,176.32L229.02,170.12L229.57,163.05L230.74,155.28L232.65,146.98L235.37,138.32L239.00,129.50L243.59,120.71L249.18,112.15L255.75,104.00L263.30,96.46L271.77,89.68L281.09,83.80L291.18,78.97L301.9,75.28L313.13,72.81L324.70,71.61L336.45,71.73L348.21,73.16L359.80,75.90L371.03,79.90L381.73,85.11L391.73,91.48L400.87,98.90L409.02,107.31L416.05,116.60L421.87,126.68L426.39,137.45L429.57,148.82L431.4,160.70L431.87,173.00L431.03,185.64L428.92,198.55L425.65,211.67L421.31,224.94L416.02,238.31L409.94,251.73L403.21,265.16L396.00,278.55L388.48,291.86L380.81,305.06L373.15,318.09L365.65,330.91L358.46,343.46L351.70,355.70L345.49,367.55L339.90,378.96L335.00,389.86L330.84,400.18L327.42,409.84L324.74,418.79L322.76,426.95L321.44,434.27L320.69,440.69L320.42,446.18L320.52,450.69L320.86,454.23L321.31,456.76L321.73,458.32L321.97,458.93L321.90,458.61L321.38,457.44L320.27,455.46L318.46,452.76L315.83,449.41L312.31,445.52L307.81,441.17L302.27,436.44L295.68,431.44L288.01,426.23L279.28,420.90L269.52,415.49L258.77,410.06L247.11,404.64L234.63,399.23L221.44,393.84L207.65,388.45L193.41,383.03L178.86,377.52L164.14,371.87L149.44,366.01L134.89,359.87L120.67,353.37L106.94,346.45L93.86,339.04L81.57,331.08L70.22,322.54L59.92,313.39L50.81,303.63L42.98,293.27L36.51,282.35L31.48,270.95L27.93,259.13L25.88,247.02L25.35,234.74L26.32,222.43L28.77,210.25L32.63,198.37L37.83,186.94L44.29,176.16L51.90,166.17L60.53,157.13L70.05,149.17L80.30,142.41L91.13,136.93L102.38,132.80L113.88,130.05L125.46,128.67L136.95,128.62L148.20,129.83L159.05,132.21L169.37,135.61L179.02,139.88L187.91,144.82L195.94,150.25L203.06,155.94L209.2,161.68L214.36,167.24L218.55,172.42L221.78,177.00L224.12,180.80L225.65,183.65L226.72,186.04L226.48,185.36L225.93,183.39L225.23,180.11L224.55,175.57L224.04,169.84L223.88,163.02L224.22,155.25L225.21,146.67L226.98,137.48L229.65,127.87L233.30,118.05L238.01,108.23L243.81,98.62L250.71,89.44L258.71,80.88L267.75,73.12L277.77,66.32L288.65,60.64L300.28,56.19L312.50,53.06L325.16,51.32L338.06,51.01L351.01,52.15L363.83,54.72L376.30,58.69L388.23,64.02L399.44,70.63L409.75,78.44L419.00,87.36L427.05,97.30L433.80,108.14L439.17,119.79L443.08,132.15L445.52,145.11L446.50,158.59L446.05,172.49L444.22,186.73L441.12,201.25L436.85,215.97L431.56,230.83L425.39,245.77L418.52,260.75L411.12,275.70L403.38,290.58L395.46,305.33L387.55,319.90L379.82,334.23L372.42,348.26L365.47,361.92L359.11,375.13L353.42,387.84L348.46,399.95L344.29,411.40L340.91,422.11L338.31,432.00L336.45,441.00L335.28,449.05L334.70,456.10L334.60,462.1L334.88,467.03L335.38,470.87L335.96,473.62L336.48,475.29L336.76,475.93L336.67,475.57L336.04,474.29L334.75,472.15L332.66,469.25L329.65,465.68L325.64,461.54L320.55,456.94L314.31,451.97L306.90,446.73L298.31,441.32L288.56,435.80L277.67,430.25L265.70,424.71L252.74,419.21L238.89,413.77L224.26,408.37L208.98,402.99L193.21,397.60L177.09,392.12L160.80,386.50L144.50,380.64L128.38,374.48L112.60,367.91L97.34,360.86L82.77,353.26L69.05,345.02L56.33,336.12L44.75,326.51L34.43,316.19L25.49,305.16L18.03,293.49L12.11,281.22L7.79,268.45L5.11,255.30L4.08,241.90L4.69,228.42L6.90,215.03L10.68,201.91L15.94,189.24L22.60,177.22L30.54,166.03L39.63,155.84L49.73,146.79L60.67,139.03L72.30,132.65L84.43,127.72L96.88,124.28L109.47,122.34L122.02,121.86L134.35,122.77L146.28,124.95L157.67,128.28L168.38,132.57L178.26,137.63L187.24,143.25L195.21,149.20L202.14,155.23L207.98,161.11L212.74,166.59L216.45,171.47L219.15,175.53L220.93,178.58L222.19,181.16L221.9,180.43L221.23,178.3L220.34,174.76L219.42,169.85L218.65,163.62L218.22,156.20L218.30,147.72L219.05,138.35L220.63,128.27L223.18,117.71L226.78,106.87L231.54,96.00L237.49,85.33L244.67,75.07L253.06,65.44L262.61,56.66L273.26,48.89L284.89,42.30L297.39,37.02L310.58,33.16L324.28,30.80L338.31,29.99L352.46,30.74L366.50,33.07L380.22,36.93L393.41,42.29L405.85,49.07L417.36,57.19L427.75,66.56L436.89,77.08L444.64,88.64L450.90,101.12L455.62,114.43L458.76,128.44L460.32,143.08L460.35,158.22L458.89,173.79L456.05,189.71L451.96,205.88L446.76,222.25L440.61,238.74L433.69,255.29L426.20,271.83L418.33,288.31L410.28,304.64L402.22,320.78L394.35,336.65L386.82,352.18L379.79,367.29L373.37,381.89L367.65,395.91L362.72,409.26L358.61,421.85L355.34,433.61L352.88,444.44L351.2,454.28L350.22,463.07L349.85,470.74L349.97,477.25L350.45,482.58L351.14,486.72L351.87,489.67L352.49,491.46L352.82,492.13L352.69,491.73L351.96,490.35L350.47,488.06L348.08,484.98L344.68,481.20L340.16,476.85L334.45,472.03L327.49,466.86L319.24,461.44L309.70,455.88L298.9,450.25L286.87,444.62L273.67,439.05L259.39,433.56L244.15,428.17L228.06,422.86L211.28,417.59L193.96,412.32L176.27,406.99L158.38,401.49L140.49,395.75L122.76,389.66L105.40,383.13L88.59,376.06L72.50,368.35L57.31,359.93L43.19,350.75L30.27,340.76L18.71,329.95L8.61,318.33L0.08,305.94L0,305.79L0,181.21L0.76,179.72L8.95,167.30L18.43,155.91L29.04,145.73L40.62,136.90L52.99,129.55L65.96,123.76L79.33,119.57L92.91,117.00L106.49,116.01L119.89,116.53L132.91,118.46L145.38,121.63L157.14,125.88L168.05,131L177.98,136.75L186.85,142.90L194.58,149.17L201.13,155.32L206.50,161.09L210.7,166.23L213.78,170.53L215.82,173.78L217.28,176.52L216.95,175.74L216.14,173.47L215.05,169.67L213.87,164.39L212.81,157.69L212.06,149.68L211.82,140.50L212.29,130.33L213.62,119.38L215.97,107.86L219.47,96.00L224.21,84.07L230.25,72.30L237.62,60.94L246.33,50.22L256.34,40.37L267.56,31.57L279.9,24.01L293.21,17.84L307.33,13.18L322.06,10.12L337.20,8.72L352.52,9.02L367.79,11.01L382.77,14.69L397.22,19.99L410.92,26.86L423.66,35.22L435.25,44.97L445.51,56.01L454.31,68.22L461.55,81.48L467.14,95.69L471.05,110.74L473.28,126.50L473.87,142.87L472.87,159.76L470.39,177.07L466.57,194.71L461.56,212.59L455.52,230.64L448.67,248.78L441.19,266.94L433.3,285.03L425.21,302.99L417.11,320.72L409.19,338.16L401.64,355.21L394.61,371.78L388.21,387.79L382.56,403.14L377.74,417.74L373.77,431.48L370.67,444.29L368.42,456.07L366.97,466.75L366.24,476.26L366.13,484.55L366.50,491.56L367.21,497.29L367.75,500L364.80,500L364.70,499.87L360.88,495.91L355.83,491.37L349.48,486.38L341.77,481.05L332.67,475.51L322.17,469.85L310.30,464.18L297.10,458.56L282.65,453.03L267.04,447.64L250.4,442.39L232.85,437.26L214.56,432.20L195.68,427.16L176.40,422.06L156.91,416.81L137.40,411.28L118.07,405.38L99.11,398.98L80.72,391.98L63.10,384.27L46.42,375.76L30.85,366.39L16.56,356.10L3.70,344.88L0,340.91L0,154.27L8.06,145.99L20.21,136.05L33.27,127.68L47.03,120.95L61.28,115.95L75.82,112.67L90.41,111.10L104.87,111.16L118.97,112.75L132.52,115.71L145.35,119.85L157.29,124.95L168.21,130.78L177.99,137.07L186.55,143.54L193.84,149.92L199.83,155.93L204.55,161.31L208.03,165.82L210.35,169.24L212.03,172.14L211.64,171.33L210.69,168.91L209.37,164.87L207.90,159.24L206.51,152.07L205.41,143.48L204.81,133.62L204.93,122.67L205.95,110.84L208.06,98.36L211.37,85.48L216.02,72.48L222.08,59.60L229.59,47.11L238.55,35.26L248.94,24.29L260.69,14.42L273.67,5.84L285.22,0L405.74,0L414.62,4.08L428.62,12.60L441.43,22.65L452.87,34.14L462.78,46.94L471.05,60.94L477.58,76.01L482.34,92.04L485.32,108.90L486.55,126.48L486.11,144.67L484.09,163.36L480.63,182.46L475.90,201.87L470.09,221.49L463.39,241.24L456.03,261.03L448.23,280.76L440.20,300.35L432.16,319.7L424.30,338.72L416.82,357.31L409.88,375.38L403.61,392.81L398.11,409.50L393.47,425.35L389.72,440.25L386.86,454.11L384.88,466.84L383.72,478.35L383.29,488.58L383.47,497.47L383.69,500L365.71,500L365.61,499.93L357.13,494.49L347.15,488.88L335.67,483.19L322.72,477.54L308.35,471.99L292.63,466.60L275.69,461.39L257.64,456.37L238.62,451.51L218.81,446.77L198.37,442.07L177.51,437.31L156.41,432.39L135.28,427.19L114.33,421.58L93.76,415.42L73.79,408.60L54.61,400.98L36.41,392.48L19.38,383.01L3.68,372.50L0,369.51L0,136.16L13.19,127.04L27.69,119.33L42.79,113.43L58.24,109.39L73.83,107.16L89.33,106.70L104.50,107.87L119.13,110.54L133.03,114.5L146.02,119.53L157.93,125.37L168.65,131.74L178.06,138.35L186.11,144.91L192.76,151.13L198.01,156.72L201.91,161.43L204.52,165.01L206.43,168.05L205.98,167.20L204.87,164.65L203.32,160.38L201.54,154.40L199.78,146.78L198.28,137.63L197.27,127.11L197.00,115.38L197.65,102.68L199.44,89.25L202.51,75.36L207.00,61.27L213.00,47.26L220.57,33.62L229.72,20.62L240.44,8.50L249.87,0L446.62,0L458.93,11.54L470,24.87L479.35,39.54L486.90,55.42L492.58,72.39L496.38,90.32L498.35,109.08L498.54,128.55L497.07,148.62L494.08,169.17L489.74,190.10L484.25,211.30L477.82,232.67L470.68,254.10L463.06,275.48L455.20,296.72L447.32,317.71L439.63,338.33L432.32,358.48L425.57,378.04L419.51,396.90L414.25,414.94L409.87,432.04L406.41,448.11L403.88,463.02L402.24,476.69L401.42,489.02L401.33,499.96L401.33,500L359.38,500L350.19,495.84L336.14,490.27L320.58,484.88L303.60,479.70L285.31,474.76L265.85,470.07L245.36,465.58L224.03,461.25L202.04,456.98L179.59,452.67L156.88,448.20L134.14,443.43L111.57,438.21L89.39,432.40L67.82,425.85L47.07,418.44L27.34,410.03L8.81,400.55L0,395.09L0,123.53L8.02,118.90L23.90,112.06L40.25,107.17L56.80,104.22L73.31,103.15L89.54,103.85L105.25,106.15L120.22,109.86L134.26,114.75L147.19,120.53L158.85,126.93L169.14,133.63L177.97,140.33L185.29,146.72L191.10,152.49L195.43,157.36L198.35,161.09L200.5,164.26L200.00,163.37L198.72,160.70L196.90,156.21L194.79,149.91L192.63,141.86L190.69,132.17L189.23,120.98L188.5,108.50L188.73,94.95L190.13,80.58L192.89,65.66L197.15,50.49L203.03,35.35L210.59,20.54L219.86,6.35L225.09,0L474.08,0L475.92,2.06L486.42,17.35L495.03,33.99L500,47.29L500,190.85L497.94,200.09L491.89,223.08L485.08,246.16L477.76,269.20L470.17,292.11L462.56,314.74L455.13,336.97L448.09,358.69L441.63,379.76L435.87,400.05L430.94,419.44L426.91,437.80L423.82,455.01L421.67,470.97L420.42,485.57L420.01,498.72L420.04,500L342.98,500L333.78,497.16L315.53,492.28L295.90,487.7L275.02,483.42L253.08,479.41L230.23,475.59L206.69,471.86L182.66,468.10L158.36,464.19L134.00,459.95L109.81,455.24L86.03,449.88L62.86,443.71L40.53,436.59L19.25,428.38L0,419.36L0,114.06L4.69,111.85L21.88,106.05L39.35,102.31L56.86,100.57L74.13,100.71L90.91,102.57L106.96,105.97L122.05,110.63L136.00,116.30L148.63,122.67L159.81,129.41L169.43,136.21L177.45,142.72L183.83,148.63L188.62,153.65L191.86,157.50"/>

  </g>
</svg>
