<?xml version="1.0" standalone="no"?>
<!DOCTYPE svg PUBLIC "-//W3C//DTD SVG 1.1//EN" "http://www.w3.org/Graphics/SVG/1.1/DTD/svg11.dtd">
<svg width="500" height="500" title="polygons" version="1.1" viewBox="0 0 500 500" xmlns="http://www.w3.org/2000/svg" class="svg-paper">
  <g>
    <!--  Created by Sandify -->
    <!--  https://sandify.org -->
    <!--  Version: 0.2.8 -->

    <!--  Machine type: Rectangular -->
    <!--    Min X (mm): 0 -->
    <!--    Max X (mm): 500 -->
    <!--    Min Y (mm): 0 -->
    <!--    Max Y (mm): 500 -->
    <!--  Content type: shape -->
    <!--  Layer: -->
    <!--    Shape: Web -->
    <!--    Name: bubbles -->
    <!--    Large circle radius: 6 -->
    <!--    Small circle radius: 1 -->
    <!--    Visible: true -->
    <!--    Initial width: 6 -->
    <!--    Initial height: 6 -->
    <!--    X offset: 0 -->
    <!--    Y offset: 0 -->
    <!--    Rotate (degrees): 0 -->
    <!--    Reverse path: false -->
    <!--    Number of loops: 55 -->
    <!--    When transforming shape: smear -->
    <!--    Scale: true -->
    <!--      Scale (+/-): 100 -->
    <!--      Scale by: function -->
    <!--        undefined: i+cos(i/2) -->
    <!--    Spin: true -->
    <!--      Spin (+/-): 2 -->
    <!--      Spin by: function -->
    <!--        Spin function (i): 10*sin(i/6) -->
    <!--    Track: false -->
    <!--    Fine tuning: -->
    <!--      Connect to next layer: along perimeter -->
    <!--      Draw portion of path (%): 100 -->
    <!--      Backtrack at end (%): 0 -->
    <!--      Rotate starting point (%): 0 -->
    <!--  Reverse export path: false -->

    <!-- File name: 'web_spin' -->
    <!-- File type: svg -->


    <desc>pwidth:500;pheight:500;</desc>
    <path
       stroke="#000000"
       stroke-width="0.4mm"
       fill="none"
       d="M256,250L256,250L256.01,250.00L255.95,249.98L255.82,249.93L255.63,249.84L255.39,249.70L255.11,249.51L254.81,249.25L254.50,248.93L254.19,248.55L253.91,248.13L253.66,247.66L253.46,247.16L253.30,246.65L253.2,246.14L253.15,245.66L253.14,245.21L253.18,244.81L253.24,244.48L253.31,244.22L253.38,244.04L253.43,243.93L253.44,243.90L253.40,243.94L253.29,244.04L253.12,244.18L252.87,244.34L252.53,244.52L252.13,244.69L251.65,244.84L251.11,244.95L250.53,245.02L249.93,245.02L249.31,244.97L248.71,244.87L248.14,244.71L247.61,244.50L247.14,244.27L246.74,244.02L246.43,243.77L246.19,243.55L246.02,243.37L245.93,243.25L245.90,243.20L245.91,243.24L245.94,243.37L245.99,243.59L246.02,243.91L246.03,244.31L245.99,244.79L245.90,245.33L245.74,245.92L245.50,246.52L245.21,247.13L244.84,247.71L244.42,248.26L243.96,248.75L243.48,249.18L243.00,249.53L242.53,249.81L242.11,250.01L241.75,250.14L241.46,250.22L241.26,250.25L241.17,250.26L241.18,250.27L241.30,250.29L241.52,250.35L241.82,250.47L242.20,250.66L242.64,250.93L243.10,251.28L243.58,251.72L244.05,252.25L244.49,252.84L244.88,253.49L245.21,254.18L245.46,254.89L245.64,255.59L245.74,256.25L245.78,256.87L245.76,257.40L245.70,257.85L245.62,258.20L245.54,258.44L245.49,258.56L245.49,258.58L245.55,258.51L245.70,258.35L245.94,258.13L246.29,257.88L246.75,257.60L247.31,257.34L247.96,257.10L248.69,256.91L249.47,256.78L250.30,256.74L251.13,256.76L251.94,256.87L252.72,257.05L253.43,257.29L254.06,257.57L254.59,257.87L255.01,258.17L255.33,258.44L255.55,258.66L255.66,258.8L255.70,258.85L255.68,258.78L255.61,258.60L255.53,258.29L255.47,257.86L255.43,257.31L255.45,256.67L255.55,255.95L255.72,255.17L255.99,254.37L256.35,253.56L256.79,252.78L257.3,252.05L257.86,251.39L258.46,250.81L259.05,250.34L259.63,249.97L260.15,249.69L260.60,249.51L260.95,249.41L261.25,249.35L261.21,249.34L261.05,249.31L260.75,249.24L260.35,249.11L259.84,248.88L259.27,248.56L258.66,248.13L258.02,247.60L257.40,246.96L256.82,246.23L256.30,245.43L255.86,244.59L255.51,243.72L255.25,242.86L255.09,242.04L255.02,241.29L255.02,240.63L255.07,240.08L255.15,239.66L255.23,239.38L255.28,239.23L255.28,239.22L255.20,239.33L255.02,239.54L254.72,239.83L254.29,240.17L253.73,240.53L253.05,240.89L252.26,241.22L251.37,241.48L250.41,241.67L249.40,241.77L248.39,241.77L247.39,241.68L246.44,241.50L245.57,241.24L244.80,240.93L244.15,240.59L243.63,240.25L243.24,239.95L242.98,239.70L242.84,239.54L242.80,239.50L242.84,239.59L242.93,239.82L243.04,240.20L243.15,240.73L243.21,241.39L243.22,242.17L243.14,243.05L242.96,243.99L242.67,244.97L242.28,245.95L241.78,246.91L241.21,247.80L240.56,248.61L239.88,249.31L239.20,249.9L238.54,250.36L237.93,250.71L237.42,250.94L237.02,251.07L236.75,251.14L236.65,251.16L236.69,251.17L236.91,251.19L237.27,251.26L237.77,251.41L238.38,251.66L239.08,252.01L239.83,252.5L240.60,253.11L241.36,253.84L242.08,254.68L242.73,255.60L243.28,256.57L243.73,257.58L244.06,258.57L244.28,259.52L244.40,260.39L244.42,261.16L244.39,261.80L244.31,262.28L244.23,262.61L244.18,262.77L244.19,262.77L244.28,262.64L244.49,262.38L244.84,262.02L245.33,261.60L245.97,261.15L246.75,260.70L247.66,260.29L248.69,259.94L249.80,259.69L250.96,259.53L252.14,259.49L253.30,259.56L254.40,259.73L255.41,260.00L256.31,260.32L257.07,260.69L257.68,261.05L258.13,261.39L258.43,261.65L258.59,261.82L258.63,261.87L258.58,261.76L258.46,261.49L258.32,261.04L258.18,260.44L258.07,259.67L258.04,258.77L258.10,257.75L258.27,256.66L258.56,255.53L258.98,254.39L259.51,253.28L260.13,252.24L260.84,251.29L261.58,250.46L262.34,249.77L263.08,249.22L263.75,248.81L264.32,248.53L264.76,248.36L265.14,248.26L265.08,248.26L264.83,248.24L264.41,248.17L263.83,248.02L263.12,247.76L262.31,247.38L261.44,246.85L260.54,246.19L259.65,245.39L258.81,244.47L258.05,243.45L257.38,242.37L256.85,241.25L256.44,240.14L256.15,239.08L256.00,238.11L255.94,237.25L255.96,236.54L256.03,235.99L256.10,235.63L256.16,235.45L256.15,235.45L256.04,235.62L255.81,235.93L255.43,236.34L254.89,236.84L254.19,237.37L253.32,237.90L252.30,238.39L251.16,238.82L249.93,239.14L248.63,239.36L247.31,239.45L246.02,239.41L244.78,239.25L243.65,238.99L242.64,238.66L241.78,238.28L241.09,237.89L240.58,237.54L240.24,237.25L240.06,237.07L240.01,237.03L240.08,237.16L240.22,237.46L240.40,237.95L240.58,238.63L240.72,239.48L240.79,240.49L240.76,241.62L240.60,242.84L240.32,244.12L239.90,245.40L239.35,246.65L238.69,247.82L237.94,248.90L237.14,249.84L236.32,250.63L235.53,251.26L234.80,251.73L234.18,252.06L233.7,252.25L233.39,252.35L233.26,252.38L233.34,252.39L233.62,252.4L234.10,252.46L234.75,252.61L235.54,252.87L236.45,253.28L237.44,253.83L238.46,254.53L239.47,255.39L240.43,256.38L241.31,257.48L242.07,258.65L242.70,259.87L243.19,261.07L243.53,262.23L243.74,263.30L243.83,264.24L243.83,265.02L243.77,265.62L243.70,266.02L243.65,266.21L243.66,266.20L243.78,266.01L244.02,265.66L244.43,265.19L245.01,264.63L245.77,264.02L246.71,263.41L247.81,262.83L249.05,262.32L250.40,261.93L251.82,261.65L253.26,261.51L254.68,261.51L256.04,261.65L257.30,261.89L258.41,262.23L259.36,262.62L260.12,263.02L260.69,263.39L261.07,263.69L261.27,263.88L261.32,263.91L261.24,263.78L261.07,263.45L260.86,262.91L260.64,262.17L260.46,261.24L260.35,260.14L260.35,258.90L260.48,257.56L260.76,256.15L261.18,254.74L261.74,253.36L262.43,252.05L263.21,250.86L264.06,249.81L264.92,248.92L265.77,248.21L266.54,247.67L267.21,247.3L267.73,247.07L268.17,246.93L268.08,246.93L267.77,246.93L267.25,246.87L266.54,246.73L265.66,246.47L264.65,246.06L263.56,245.48L262.43,244.74L261.31,243.84L260.23,242.79L259.24,241.62L258.38,240.37L257.66,239.07L257.09,237.77L256.69,236.53L256.43,235.37L256.31,234.36L256.29,233.51L256.33,232.86L256.40,232.43L256.45,232.22L256.43,232.24L256.31,232.45L256.05,232.83L255.63,233.36L255.01,233.99L254.20,234.67L253.20,235.37L252.02,236.02L250.69,236.61L249.24,237.08L247.71,237.42L246.15,237.61L244.61,237.65L243.13,237.54L241.77,237.31L240.55,236.98L239.51,236.59L238.68,236.18L238.05,235.79L237.63,235.48L237.41,235.28L237.37,235.24L237.46,235.39L237.65,235.74L237.90,236.32L238.15,237.11L238.38,238.12L238.52,239.31L238.56,240.65L238.46,242.11L238.20,243.63L237.78,245.17L237.21,246.68L236.50,248.11L235.69,249.43L234.81,250.59L233.89,251.57L233.00,252.36L232.18,252.96L231.47,253.38L230.92,253.64L230.56,253.77L230.43,253.81L230.52,253.81L230.86,253.81L231.42,253.85L232.20,253.99L233.16,254.25L234.26,254.66L235.45,255.25L236.70,256.02L237.94,256.97L239.13,258.07L240.23,259.31L241.20,260.64L242.02,262.02L242.66,263.41L243.13,264.74L243.44,265.98L243.60,267.08L243.65,267.99L243.62,268.69L243.56,269.15L243.51,269.38L243.52,269.37L243.65,269.13L243.92,268.71L244.36,268.12L245.01,267.43L245.87,266.67L246.93,265.89L248.19,265.15L249.61,264.48L251.16,263.93L252.81,263.53L254.48,263.28L256.15,263.20L257.74,263.27L259.22,263.49L260.55,263.81L261.68,264.21L262.59,264.63L263.27,265.03L263.73,265.36L263.97,265.56L264.03,265.60L263.92,265.45L263.71,265.07L263.42,264.46L263.12,263.60L262.86,262.53L262.67,261.25L262.59,259.79L262.67,258.22L262.90,256.57L263.31,254.89L263.89,253.25L264.62,251.69L265.46,250.25L266.38,248.98L267.34,247.89L268.29,247.02L269.16,246.35L269.91,245.88L270.50,245.58L271.00,245.39L270.9,245.40L270.54,245.41L269.93,245.38L269.09,245.25L268.05,245.00L266.85,244.58L265.55,243.98L264.19,243.18L262.83,242.19L261.51,241.03L260.30,239.73L259.22,238.31L258.31,236.84L257.58,235.37L257.04,233.94L256.68,232.61L256.47,231.43L256.40,230.45L256.42,229.69L256.47,229.19L256.52,228.95L256.50,228.96L256.38,229.21L256.10,229.68L255.63,230.32L254.95,231.09L254.05,231.93L252.92,232.79L251.58,233.62L250.06,234.37L248.40,235.00L246.64,235.48L244.84,235.79L243.05,235.92L241.33,235.88L239.72,235.68L238.29,235.36L237.06,234.96L236.07,234.53L235.32,234.11L234.82,233.77L234.55,233.55L234.50,233.51L234.61,233.67L234.85,234.07L235.17,234.73L235.52,235.64L235.83,236.80L236.06,238.17L236.18,239.74L236.14,241.44L235.92,243.22L235.52,245.04L234.93,246.83L234.19,248.53L233.31,250.1L232.34,251.50L231.33,252.69L230.34,253.66L229.41,254.40L228.61,254.92L227.98,255.25L227.57,255.43L227.41,255.48L227.52,255.47L227.91,255.45L228.57,255.47L229.48,255.59L230.61,255.84L231.91,256.26L233.34,256.88L234.82,257.71L236.32,258.75L237.76,259.97L239.11,261.36L240.31,262.86L241.33,264.43L242.15,266.01L242.77,267.54L243.19,268.97L243.44,270.24L243.54,271.3L243.54,272.12L243.49,272.66L243.44,272.93L243.46,272.92L243.59,272.64L243.88,272.13L244.37,271.43L245.08,270.58L246.04,269.65L247.24,268.69L248.67,267.76L250.29,266.92L252.08,266.20L253.97,265.64L255.91,265.26L257.85,265.09L259.72,265.09L261.46,265.27L263.02,265.58L264.36,265.99L265.44,266.44L266.27,266.87L266.82,267.23L267.11,267.46L267.18,267.51L267.05,267.34L266.78,266.91L266.42,266.21L266.02,265.23L265.66,263.99L265.37,262.50L265.21,260.81L265.22,258.97L265.42,257.03L265.81,255.05L266.41,253.10L267.18,251.24L268.10,249.52L269.11,247.98L270.18,246.67L271.24,245.59L272.23,244.77L273.10,244.18L273.77,243.81L274.36,243.56L274.24,243.58L273.82,243.61L273.10,243.60L272.12,243.50L270.89,243.25L269.47,242.82L267.92,242.17L266.29,241.31L264.64,240.22L263.05,238.92L261.57,237.45L260.23,235.85L259.09,234.17L258.17,232.47L257.46,230.82L256.98,229.27L256.69,227.90L256.56,226.75L256.54,225.86L256.58,225.26L256.63,224.98L256.61,224.99L256.48,225.29L256.18,225.85L255.66,226.62L254.9,227.55L253.88,228.58L252.6,229.64L251.07,230.68L249.32,231.63L247.40,232.45L245.36,233.10L243.25,233.54L241.15,233.78L239.13,233.81L237.23,233.65L235.53,233.34L234.06,232.92L232.87,232.46L231.97,232.00L231.36,231.62L231.04,231.37L230.96,231.32L231.11,231.50L231.41,231.96L231.81,232.71L232.26,233.77L232.68,235.11L233.02,236.72L233.23,238.55L233.26,240.56L233.08,242.67L232.69,244.83L232.09,246.96L231.28,249.00L230.32,250.90L229.24,252.59L228.10,254.04L226.97,255.23L225.90,256.14L224.97,256.80L224.25,257.22L223.76,257.44L223.57,257.52L223.70,257.5L224.16,257.46L224.93,257.45L226.01,257.54L227.35,257.79L228.91,258.23L230.61,258.9L232.41,259.81L234.22,260.97L235.98,262.35L237.63,263.93L239.12,265.65L240.39,267.46L241.44,269.30L242.24,271.09L242.80,272.76L243.14,274.26L243.31,275.52L243.34,276.49L243.30,277.14L243.26,277.46L243.27,277.45L243.41,277.12L243.73,276.50L244.28,275.65L245.09,274.63L246.18,273.48L247.56,272.30L249.21,271.13L251.10,270.06L253.18,269.13L255.40,268.38L257.69,267.86L259.99,267.56L262.20,267.49L264.28,267.63L266.15,267.94L267.75,268.37L269.07,268.85L270.06,269.34L270.74,269.75L271.10,270.01L271.18,270.07L271.02,269.88L270.68,269.38L270.23,268.57L269.72,267.43L269.23,265.97L268.83,264.21L268.57,262.21L268.50,260.02L268.66,257.71L269.05,255.34L269.67,252.99L270.51,250.74L271.53,248.65L272.69,246.78L273.91,245.17L275.13,243.85L276.28,242.82L277.29,242.09L278.08,241.61L278.77,241.30L278.64,241.32L278.14,241.37L277.29,241.40L276.12,241.31L274.65,241.07L272.94,240.61L271.06,239.91L269.08,238.94L267.08,237.71L265.13,236.23L263.29,234.53L261.64,232.67L260.21,230.71L259.04,228.72L258.13,226.77L257.49,224.94L257.09,223.31L256.88,221.94L256.83,220.87L256.86,220.15L256.91,219.80L256.89,219.81L256.75,220.17L256.41,220.85L255.83,221.79L254.96,222.93L253.78,224.20L252.29,225.52L250.51,226.82L248.45,228.03L246.19,229.09L243.76,229.94L241.26,230.55L238.75,230.92L236.32,231.03L234.05,230.91L231.99,230.60L230.22,230.16L228.77,229.64L227.67,229.13L226.92,228.69L226.52,228.40L226.43,228.34L226.61,228.55L226.99,229.08L227.50,229.96L228.08,231.21L228.63,232.80L229.10,234.71L229.42,236.90L229.53,239.31L229.40,241.85L229.01,244.45L228.36,247.04L227.47,249.52L226.38,251.83L225.15,253.90L223.83,255.69L222.51,257.16L221.26,258.30L220.17,259.13L219.30,259.66L218.73,259.94L218.50,260.04L218.65,260.01L219.19,259.94L220.12,259.90L221.42,259.97L223.03,260.22L224.92,260.69L226.99,261.44L229.18,262.47L231.41,263.79L233.58,265.39L235.62,267.23L237.47,269.25L239.07,271.39L240.39,273.56L241.42,275.69L242.15,277.69L242.62,279.48L242.86,281.00L242.94,282.17L242.91,282.96L242.87,283.35L242.88,283.34L243.03,282.94L243.39,282.19L244.02,281.14L244.96,279.88L246.23,278.46L247.85,276.98L249.80,275.52L252.03,274.16L254.52,272.97L257.17,272.00L259.92,271.28L262.67,270.85L265.35,270.69L267.86,270.78L270.12,271.09L272.08,271.56L273.68,272.10L274.90,272.66L275.73,273.13L276.18,273.44L276.28,273.52L276.08,273.29L275.66,272.71L275.08,271.74L274.43,270.38L273.79,268.64L273.24,266.54L272.86,264.13L272.71,261.49L272.81,258.69L273.21,255.81L273.88,252.95L274.83,250.21L275.99,247.65L277.33,245.35L278.75,243.36L280.19,241.72L281.55,240.45L282.74,239.52L283.69,238.93L284.52,238.52L284.36,238.56L283.77,238.64L282.75,238.70L281.32,238.64L279.54,238.39L277.46,237.89L275.17,237.11L272.74,236L270.28,234.57L267.87,232.84L265.60,230.85L263.54,228.65L261.75,226.32L260.26,223.94L259.11,221.61L258.27,219.42L257.74,217.45L257.45,215.79L257.36,214.50L257.38,213.63L257.42,213.2L257.41,213.22L257.25,213.66L256.86,214.49L256.19,215.64L255.17,217.05L253.79,218.62L252.03,220.27L249.90,221.90L247.46,223.43L244.74,224.77L241.83,225.88L238.82,226.70L235.79,227.21L232.85,227.42L230.09,227.34L227.59,227.03L225.43,226.54L223.66,225.96L222.31,225.36L221.39,224.85L220.90,224.51L220.79,224.43L221.01,224.68L221.49,225.31L222.14,226.37L222.87,227.85L223.59,229.77L224.22,232.07L224.67,234.71L224.87,237.62L224.78,240.71L224.39,243.88L223.67,247.03L222.67,250.06L221.41,252.89L219.97,255.43L218.43,257.64L216.86,259.46L215.38,260.88L214.08,261.90L213.04,262.57L212.35,262.93L212.07,263.05L212.25,263.01L212.91,262.91L214.03,262.83L215.60,262.88L217.57,263.13L219.87,263.65L222.41,264.49L225.09,265.68L227.82,267.23L230.49,269.11L233.02,271.28L235.31,273.68L237.31,276.23L238.97,278.83L240.27,281.39L241.21,283.80L241.82,285.95L242.15,287.78L242.27,289.20L242.26,290.16L242.21,290.63L242.23,290.61L242.40,290.12L242.81,289.21L243.54,287.93L244.64,286.36L246.15,284.61L248.07,282.78L250.40,280.96L253.07,279.25L256.05,277.74L259.24,276.49L262.55,275.56L265.88,274.97L269.12,274.71L272.16,274.76L274.91,275.08L277.30,275.60L279.25,276.22L280.74,276.87L281.75,277.42L282.30,277.79L282.42,277.88L282.18,277.61L281.64,276.92L280.91,275.76L280.09,274.13L279.27,272.03L278.56,269.50L278.04,266.59L277.79,263.39L277.85,260.00L278.26,256.50L279.01,253.03L280.09,249.68L281.44,246.56L283.01,243.74L284.69,241.31L286.39,239.29L288.01,237.72L289.43,236.57L290.57,235.83L291.57,235.33L291.37,235.38L290.65,235.50L289.41,235.59L287.69,235.55L285.52,235.30L282.99,234.75L280.19,233.84L277.24,232.56L274.22,230.89L271.27,228.84L268.48,226.48L265.94,223.86L263.72,221.08L261.88,218.24L260.43,215.45L259.38,212.81L258.69,210.45L258.32,208.45L258.18,206.89L258.18,205.84L258.23,205.32L258.22,205.35L258.04,205.89L257.59,206.90L256.80,208.32L255.6,210.04L253.96,211.98L251.87,214.01L249.33,216.02L246.41,217.92L243.15,219.60L239.66,220.99L236.03,222.04L232.39,222.72L228.84,223.03L225.51,222.99L222.49,222.66L219.87,222.11L217.72,221.44L216.09,220.75L214.97,220.15L214.38,219.75L214.25,219.65L214.52,219.94L215.11,220.7L215.93,221.96L216.84,223.75L217.76,226.04L218.56,228.81L219.15,232.00L219.45,235.5L219.40,239.23L218.98,243.06L218.18,246.87L217.02,250.54L215.56,253.98L213.87,257.07L212.04,259.75L210.19,261.96L208.43,263.70L206.88,264.96L205.64,265.77L204.82,266.21L204.49,266.35L204.71,266.30L205.50,266.16L206.86,266.05L208.75,266.07L211.13,266.34L213.91,266.93L216.99,267.90L220.24,269.28L223.55,271.1L226.80,273.32L229.88,275.89L232.68,278.74L235.12,281.77L237.16,284.88L238.76,287.93L239.93,290.81L240.69,293.39L241.12,295.57L241.28,297.27L241.27,298.43L241.22,298.99L241.24,298.96L241.43,298.36L241.91,297.25L242.77,295.69L244.07,293.79L245.86,291.66L248.14,289.42L250.90,287.20L254.09,285.11L257.65,283.25L261.46,281.70L265.42,280.53L269.41,279.77L273.29,279.42L276.93,279.44L280.24,279.79L283.1,280.37L285.45,281.10L287.24,281.85L288.45,282.5L289.11,282.93L289.24,283.04L288.94,282.72L288.28,281.89L287.38,280.51L286.37,278.57L285.36,276.06L284.47,273.03L283.80,269.56L283.46,265.72L283.49,261.65L283.93,257.47L284.79,253.30L286.03,249.28L287.62,245.52L289.45,242.14L291.43,239.21L293.44,236.78L295.36,234.88L297.05,233.51L298.39,232.61L299.57,232.01L299.33,232.07L298.47,232.23L296.98,232.36L294.91,232.34L292.31,232.06L289.28,231.43L285.93,230.39L282.37,228.89L278.75,226.92L275.20,224.52L271.84,221.73L268.78,218.63L266.11,215.34L263.88,211.97L262.13,208.66L260.85,205.53L260.01,202.72L259.55,200.35L259.37,198.50L259.37,197.26L259.43,196.65L259.41,196.68L259.20,197.34L258.68,198.56L257.75,200.26L256.34,202.34L254.41,204.66L251.93,207.11L248.93,209.53L245.47,211.82L241.61,213.86L237.47,215.55L233.16,216.83L228.83,217.67L224.62,218.06L220.66,218.05L217.07,217.68L213.96,217.05L211.41,216.27L209.47,215.46L208.16,214.75L207.45,214.28L207.31,214.17L207.64,214.52L208.36,215.42L209.34,216.92L210.46,219.03L211.56,221.75L212.54,225.04L213.27,228.82L213.65,232.98L213.63,237.40L213.16,241.94L212.24,246.47L210.89,250.83L209.18,254.91L207.20,258.58L205.06,261.76L202.88,264.39L200.81,266.45L198.99,267.94L197.54,268.90L196.57,269.42L196.19,269.58L196.46,269.51L197.40,269.33L199.01,269.19L201.27,269.20L204.09,269.50L207.39,270.17L211.03,271.30L214.89,272.92L218.82,275.05L222.67,277.65L226.32,280.67L229.64,284.02L232.54,287.59L234.96,291.24L236.86,294.83L238.25,298.21L239.16,301.25L239.66,303.82L239.85,305.81L239.85,307.16L239.79,307.81L239.80,307.77L240.03,307.05L240.59,305.72L241.60,303.87L243.12,301.62L245.22,299.10L247.90,296.45L251.14,293.81L254.90,291.33L259.07,289.13L263.55,287.30L268.21,285.91L272.89,285L277.44,284.57L281.73,284.59L285.60,284.99L288.96,285.67L291.71,286.51L293.81,287.39L295.22,288.15L295.98,288.65L296.13,288.77L295.76,288.39L294.97,287.42L293.91,285.80L292.70,283.51L291.50,280.56L290.45,277.01L289.66,272.93L289.24,268.43L289.27,263.66L289.78,258.75L290.77,253.87L292.23,249.16L294.08,244.76L296.22,240.80L298.53,237.38L300.88,234.54L303.11,232.33L305.08,230.73L306.64,229.69L308.01,228.99L307.73,229.07L306.70,229.26L304.96,229.42L302.52,229.41L299.48,229.09L295.93,228.36L292.00,227.14L287.85,225.39L283.62,223.10L279.47,220.29L275.55,217.04L271.99,213.43L268.87,209.59L266.28,205.66L264.24,201.8L262.76,198.16L261.79,194.90L261.25,192.14L261.05,190.00L261.06,188.56L261.13,187.87L261.11,187.92L260.87,188.70L260.26,190.13L259.18,192.13L257.53,194.55L255.27,197.26L252.39,200.11L248.90,202.93L244.86,205.59L240.37,207.95L235.56,209.91L230.56,211.39L225.53,212.35L220.65,212.80L216.05,212.77L211.90,212.33L208.30,211.60L205.36,210.68L203.12,209.74L201.61,208.92L200.81,208.38L200.65,208.25L201.06,208.67L201.90,209.72L203.05,211.46L204.34,213.92L205.62,217.08L206.74,220.90L207.58,225.28L208.01,230.10L207.97,235.21L207.41,240.47L206.33,245.7L204.76,250.74L202.77,255.44L200.47,259.67L197.98,263.32L195.46,266.35L193.07,268.70L190.96,270.40L189.29,271.50L188.18,272.08L187.75,272.26L188.07,272.17L189.17,271.96L191.05,271.79L193.66,271.82L196.92,272.17L200.73,272.96L204.93,274.28L209.37,276.17L213.89,278.64L218.32,281.65L222.5,285.15L226.30,289.03L229.62,293.14L232.37,297.35L234.53,301.48L236.10,305.37L237.12,308.86L237.68,311.81L237.88,314.08L237.87,315.62L237.79,316.35L237.80,316.29L238.07,315.45L238.72,313.91L239.89,311.78L241.66,309.20L244.08,306.30L247.18,303.27L250.92,300.27L255.24,297.45L260.04,294.95L265.19,292.88L270.54,291.32L275.9,290.32L281.11,289.87L286.01,289.92L290.43,290.41L294.26,291.21L297.39,292.20L299.76,293.22L301.36,294.10L302.20,294.68L302.36,294.81L301.92,294.36L301.02,293.24L299.81,291.37L298.44,288.73L297.09,285.35L295.91,281.28L295.04,276.61L294.60,271.47L294.67,266.02L295.29,260.42L296.47,254.86L298.18,249.51L300.32,244.52L302.79,240.04L305.46,236.16L308.15,232.97L310.71,230.48L312.96,228.69L314.74,227.53L316.30,226.76L315.95,226.86L314.78,227.08L312.78,227.25L310.00,227.21L306.53,226.82L302.49,225.96L298.03,224.53L293.32,222.50L288.54,219.85L283.86,216.62L279.44,212.89L275.43,208.75L271.94,204.37L269.05,199.89L266.79,195.49L265.15,191.36L264.10,187.66L263.53,184.54L263.33,182.13L263.36,180.52L263.45,179.74L263.43,179.82L263.15,180.72L262.44,182.35L261.19,184.61L259.30,187.34L256.71,190.39L253.41,193.58L249.42,196.74L244.82,199.70L239.72,202.32L234.25,204.47L228.59,206.08L222.90,207.11L217.39,207.55L212.21,207.45L207.54,206.91L203.50,206.03L200.21,204.96L197.71,203.87L196.04,202.93L195.15,202.31L195.00,202.17L195.46,202.65L196.41,203.85L197.69,205.84L199.12,208.64L200.53,212.23L201.75,216.55L202.63,221.50L203.06,226.93L202.94,232.69L202.24,238.59L200.95,244.46L199.11,250.10L196.81,255.34L194.16,260.05L191.32,264.12L188.45,267.46L185.74,270.06L183.36,271.93L181.47,273.12L180.24,273.75L179.77,273.93L180.14,273.82L181.39,273.59L183.51,273.43L186.45,273.49L190.12,273.93L194.38,274.88L199.07,276.42L204.03,278.6L209.05,281.44L213.96,284.88L218.59,288.86L222.78,293.25L226.41,297.91L229.42,302.65L231.76,307.30L233.45,311.67L234.52,315.57L235.09,318.86L235.27,321.39L235.23,323.09L235.12,323.89L235.14,323.80L235.45,322.85L236.21,321.13L237.55,318.76L239.57,315.89L242.32,312.69L245.83,309.36L250.06,306.07L254.93,303.00L260.32,300.29L266.10,298.08L272.07,296.44L278.06,295.41L283.86,295.00L289.30,295.15L294.20,295.78L298.43,296.74L301.88,297.90L304.48,299.07L306.23,300.07L307.14,300.73L307.29,300.87L306.80,300.36L305.81,299.08L304.48,296.98L303,294.01L301.55,290.23L300.31,285.67L299.43,280.47L299.04,274.75L299.22,268.70L300.01,262.51L301.43,256.37L303.42,250.47L305.89,245.00L308.71,240.09L311.74,235.86L314.78,232.38L317.65,229.69L320.17,227.77L322.15,226.54L323.88,225.73L323.48,225.84L322.16,226.07L319.93,226.22L316.84,226.13L313.00,225.63L308.55,224.60L303.64,222.93L298.47,220.59L293.24,217.57L288.14,213.91L283.34,209.69L279.01,205.05L275.25,200.14L272.16,195.15L269.77,190.26L268.06,185.68L266.98,181.59L266.43,178.16L266.27,175.51L266.34,173.75L266.46,172.92L266.44,173.02L266.11,174.02L265.29,175.82L263.86,178.28L261.72,181.27L258.80,184.58L255.09,188.03L250.64,191.42L245.51,194.57L239.85,197.34L233.79,199.58L227.54,201.22L221.28,202.22L215.21,202.58L209.54,202.36L204.44,201.65L200.04,200.59L196.47,199.34L193.77,198.09L191.97,197.03L191.04,196.33L190.88,196.19L191.4,196.73L192.43,198.08L193.79,200.30L195.30,203.40L196.77,207.38L198.01,212.14L198.87,217.59L199.21,223.55L198.95,229.85L198.04,236.29L196.49,242.67L194.34,248.79L191.70,254.47L188.70,259.54L185.50,263.90L182.29,267.48L179.26,270.24L176.63,272.20L174.55,273.45L173.20,274.09L172.70,274.26L173.12,274.14L174.50,273.92L176.84,273.79L180.06,273.92L184.06,274.49L188.69,275.63L193.77,277.42L199.12,279.93L204.53,283.14L209.79,287.02L214.73,291.47L219.18,296.36L223.01,301.52L226.16,306.75L228.58,311.86L230.29,316.64L231.35,320.90L231.88,324.48L232.00,327.22L231.91,329.05L231.77,329.90L231.79,329.78L232.15,328.74L233.02,326.88L234.54,324.33L236.81,321.25L239.89,317.85L243.79,314.31L248.47,310.85L253.84,307.64L259.76,304.85L266.08,302.60L272.60,300.99L279.11,300.04L285.40,299.76L291.28,300.07L296.56,300.88L301.10,302.04L304.79,303.39L307.56,304.72L309.40,305.85L310.36,306.58L310.50,306.73L309.97,306.16L308.92,304.74L307.53,302.42L306.00,299.17L304.54,295.02L303.32,290.06L302.51,284.40L302.24,278.21L302.61,271.68L303.64,265.02L305.35,258.43L307.66,252.13L310.48,246.29L313.67,241.08L317.05,236.62L320.42,232.97L323.59,230.16L326.35,228.17L328.51,226.92L330.38,226.11L329.94,226.23L328.50,226.44L326.07,226.55L322.74,226.36L318.61,225.71L313.83,224.47L308.59,222.53L303.09,219.86L297.55,216.45L292.17,212.36L287.13,207.69L282.61,202.57L278.73,197.18L275.56,191.73L273.14,186.41L271.45,181.45L270.42,177.03L269.94,173.34L269.85,170.51L269.99,168.63L270.14,167.76L270.12,167.89L269.74,168.97L268.81,170.88L267.19,173.50L264.80,176.65L261.56,180.12L257.48,183.71L252.59,187.21L247.00,190.44L240.84,193.23L234.29,195.44L227.54,197.00L220.81,197.87L214.31,198.07L208.25,197.65L202.82,196.73L198.17,195.45L194.39,194.01L191.56,192.58L189.69,191.39L188.72,190.63L188.58,190.47L189.13,191.08L190.20,192.56L191.59,194.98L193.12,198.36L194.56,202.66L195.74,207.80L196.48,213.64L196.66,220.02L196.17,226.75L195.00,233.60L193.13,240.35L190.64,246.80L187.64,252.76L184.27,258.07L180.72,262.61L177.19,266.30L173.88,269.13L171.01,271.13L168.77,272.38L167.32,273.00L166.79,273.16L167.25,273.04L168.75,272.84L171.25,272.77L174.69,273.02L178.93,273.76L183.83,275.12L189.19,277.20L194.81,280.05L200.45,283.65L205.92,287.96L211.01,292.86L215.57,298.20L219.47,303.81L222.63,309.48L225.02,314.98L226.67,320.12L227.65,324.67L228.07,328.47L228.11,331.37L227.94,333.29L227.76,334.18L227.78,334.04L228.20,332.94L229.19,330.98L230.89,328.31L233.41,325.11L236.81,321.60L241.07,317.98L246.15,314.47L251.96,311.25L258.34,308.50L265.11,306.35L272.07,304.87L279.00,304.10L285.67,304.02L291.88,304.56L297.43,305.61L302.19,307.00L306.03,308.56L308.90,310.07L310.80,311.33L311.76,312.13L311.9,312.29L311.34,311.65L310.27,310.11L308.88,307.60L307.37,304.10L305.97,299.65L304.86,294.36L304.20,288.34L304.14,281.79L304.76,274.90L306.10,267.90L308.14,261.01L310.82,254.44L314.01,248.39L317.56,243.01L321.29,238.44L324.98,234.72L328.43,231.89L331.40,229.90L333.72,228.67L335.72,227.89L335.23,228.01L333.69,228.19L331.12,228.21L327.61,227.89L323.26,227.06L318.27,225.57L312.81,223.33L307.12,220.31L301.41,216.51L295.89,212.00L290.77,206.89L286.20,201.33L282.32,195.51L279.20,189.65L276.86,183.98L275.28,178.69L274.37,174.02L274.01,170.13L274.04,167.16L274.25,165.20L274.45,164.31L274.43,164.45L273.98,165.58L272.93,167.57L271.13,170.27L268.49,173.49L264.95,177.02L260.51,180.64L255.25,184.14L249.25,187.31L242.67,190L235.70,192.07L228.55,193.44L221.45,194.09L214.63,194.04L208.30,193.36L202.65,192.17L197.82,190.65L193.93,188.99L191.03,187.38L189.13,186.06L188.16,185.22L188.03,185.06L188.59,185.72L189.66,187.32L191.03,189.92L192.50,193.53L193.85,198.10L194.88,203.54L195.43,209.70L195.35,216.39L194.58,223.41L193.07,230.54L190.84,237.54L187.98,244.19L184.60,250.30L180.86,255.71L176.96,260.31L173.11,264.02L169.54,266.84L166.46,268.80L164.07,270.01L162.54,270.59L161.99,270.73L162.49,270.61L164.07,270.46L166.70,270.49L170.29,270.89L174.70,271.83L179.78,273.46L185.30,275.86L191.05,279.06L196.80,283.06L202.33,287.78L207.45,293.11L211.99,298.88L215.82,304.90L218.88,310.94L221.14,316.79L222.64,322.20L223.46,326.99L223.74,330.97L223.65,333.99L223.39,335.98L223.16,336.88L223.19,336.73L223.67,335.58L224.79,333.57L226.68,330.85L229.44,327.62L233.13,324.10L237.73,320.50L243.18,317.05L249.37,313.94L256.14,311.35L263.29,309.39L270.60,308.15L277.85,307.64L284.80,307.85L291.24,308.68L296.97,310.01L301.85,311.67L305.77,313.46L308.69,315.16L310.6,316.55L311.56,317.42L311.69,317.59L311.13,316.90L310.07,315.25L308.72,312.56L307.31,308.85L306.03,304.16L305.10,298.60L304.69,292.31L304.91,285.49L305.86,278.35L307.55,271.13L309.98,264.05L313.05,257.35L316.63,251.20L320.56,245.77L324.64,241.18L328.64,237.49L332.34,234.71L335.51,232.78L337.97,231.61L340.08,230.90L339.56,231.01L337.95,231.13L335.27,231.05L331.62,230.56L327.14,229.50L322.02,227.73L316.45,225.17L310.67,221.78L304.91,217.58L299.38,212.64L294.30,207.11L289.81,201.13L286.05,194.92L283.08,188.70L280.92,182.71L279.52,177.16L278.79,172.28L278.60,168.23L278.76,165.16L279.08,163.15L279.33,162.23L279.30,162.39L278.78,163.55L277.60,165.57L275.61,168.30L272.73,171.52L268.89,175.02L264.13,178.58L258.51,181.96L252.14,184.98L245.2,187.46L237.88,189.28L230.42,190.38L223.03,190.72L215.97,190.35L209.45,189.35L203.65,187.86L198.73,186.06L194.79,184.15L191.87,182.35L189.96,180.89L189.00,179.98L188.88,179.81L189.44,180.52L190.48,182.23L191.79,184.99L193.14,188.8L194.33,193.60L195.14,199.28L195.42,205.68L195.03,212.61L193.90,219.84L192.00,227.14L189.37,234.27L186.09,241.02L182.3,247.18L178.18,252.60L173.92,257.16L169.77,260.82L165.94,263.56L162.67,265.44L160.14,266.56L158.53,267.09L157.96,267.20L158.49,267.10L160.13,267.01L162.85,267.16L166.55,267.75L171.08,268.93L176.24,270.85L181.84,273.59L187.63,277.18L193.39,281.59L198.88,286.74L203.91,292.50L208.32,298.68L211.99,305.08L214.85,311.47L216.90,317.62L218.19,323.29L218.80,328.27L218.90,332.39L218.65,335.50L218.28,337.54L218.00,338.46L218.03,338.29L218.58,337.13L219.83,335.1L221.92,332.38L224.93,329.17L228.91,325.71L233.84,322.22L239.64,318.92L246.18,316.02L253.30,313.67L260.78,312.00L268.39,311.08L275.90,310.92L283.06,311.47L289.66,312.65L295.51,314.31L300.47,316.27L304.42,318.31L307.35,320.21L309.24,321.74L310.19,322.69L310.31,322.87L309.76,322.13L308.74,320.37L307.48,317.53L306.20,313.63L305.12,308.73L304.43,302.94L304.31,296.43L304.89,289.40L306.22,282.08L308.33,274.72L311.19,267.54L314.69,260.77L318.70,254.61L323.03,249.21L327.47,244.69L331.78,241.08L335.74,238.40L339.12,236.58L341.71,235.50L343.92,234.88L343.38,234.97L341.70,235.01L338.94,234.80L335.21,234.11L330.64,232.79L325.44,230.71L319.83,227.78L314.04,223.99L308.31,219.37L302.86,214.00L297.90,208.03L293.58,201.63L290.02,195.04L287.28,188.47L285.36,182.18L284.20,176.39L283.71,171.31L283.72,167.13L284.05,163.97L284.48,161.92L284.79,160.99L284.75,161.16L284.17,162.32L282.85,164.35L280.66,167.06L277.51,170.24L273.38,173.65L268.29,177.07L262.32,180.27L255.60,183.05L248.31,185.25L240.67,186.75L232.91,187.49L225.29,187.45L218.03,186.7L211.35,185.33L205.46,183.49L200.48,181.37L196.51,179.19L193.60,177.19L191.71,175.58L190.77,174.59L190.66,174.40L191.2,175.16L192.18,176.98L193.39,179.89L194.59,183.89L195.56,188.90L196.11,194.79L196.05,201.41L195.29,208.53L193.74,215.93L191.40,223.35L188.31,230.57L184.57,237.35L180.33,243.50L175.79,248.86L171.16,253.34L166.68,256.89L162.59,259.51L159.11,261.27L156.45,262.29L154.76,262.75L154.16,262.82L154.70,262.75L156.41,262.75L159.20,263.04L162.98,263.84L167.58,265.30L172.81,267.56L178.44,270.68L184.22,274.69L189.91,279.55L195.30,285.15L200.18,291.36L204.39,297.97L207.83,304.77L210.43,311.52L212.21,317.97L213.23,323.88L213.59,329.06L213.46,333.31L213.04,336.51L212.54,338.59L212.20,339.52L212.24,339.36L212.87,338.19L214.26,336.16L216.56,333.47L219.84,330.32L224.13,326.97L229.40,323.63L235.56,320.55L242.47,317.91L249.94,315.87L257.74,314.56L265.65,314.03L273.4,314.27L280.76,315.24L287.51,316.82L293.45,318.86L298.46,321.15L302.43,323.48L305.34,325.6L307.21,327.29L308.14,328.32L308.25,328.52L307.72,327.73L306.77,325.86L305.62,322.87L304.51,318.77L303.66,313.65L303.28,307.64L303.51,300.92L304.49,293.70L306.27,286.22L308.86,278.74L312.21,271.49L316.20,264.69L320.68,258.56L325.46,253.23L330.29,248.80L334.95,245.32L339.19,242.77L342.78,241.08L345.52,240.11L347.84,239.60L347.28,239.66L345.55,239.62L342.72,239.24L338.90,238.33L334.26,236.72L329.01,234.28L323.37,230.94L317.61,226.70L311.95,221.61L306.63,215.75L301.84,209.31L297.74,202.46L294.43,195.45L291.97,188.51L290.33,181.89L289.47,175.84L289.25,170.57L289.50,166.24L290.02,163.00L290.59,160.89L290.96,159.95L290.92,160.12L290.25,161.29L288.78,163.31L286.37,165.98L282.94,169.09L278.48,172.38L273.02,175.63L266.67,178.59L259.57,181.09L251.91,182.94L243.93,184.06L235.87,184.38L227.98,183.91L220.51,182.72L213.69,180.91L207.69,178.67L202.66,176.19L198.68,173.71L195.78,171.47L193.91,169.69L193.00,168.61L192.90,168.40L193.41,169.21L194.32,171.14L195.41,174.22L196.42,178.42L197.14,183.65L197.36,189.78L196.93,196.62L195.73,203.95L193.70,211.51L190.85,219.06L187.23,226.35L182.97,233.16L178.23,239.28L173.22,244.58L168.16,248.95L163.31,252.36L158.92,254.84L155.21,256.46L152.39,257.37L150.60,257.74L149.97,257.78L150.54,257.73L152.30,257.83L155.17,258.29L159.03,259.33L163.71,261.11L168.99,263.75L174.64,267.31L180.39,271.8L186.01,277.16L191.27,283.28L195.96,290.00L199.94,297.10L203.11,304.35L205.42,311.50L206.89,318.29L207.59,324.49L207.67,329.88L207.28,334.29L206.65,337.59L206.01,339.72L205.59,340.67L205.64,340.51L206.36,339.34L207.92,337.32L210.45,334.66L214.03,331.60L218.68,328.37L224.34,325.22L230.91,322.38L238.23,320.05L246.10,318.38L254.28,317.47L262.51,317.38L270.55,318.10L278.13,319.54L285.05,321.58L291.10,324.05L296.17,326.72L300.16,329.38L303.06,331.76L304.91,333.63L305.81,334.77L305.92,334.99L305.42,334.14L304.54,332.15L303.53,328.98L302.62,324.67L302.04,319.30L301.99,313.04L302.63,306.07L304.08,298.63L306.37,290.97L309.51,283.34L313.42,276.00L317.98,269.17L323.00,263.06L328.28,257.80L333.58,253.48L338.63,250.14L343.2,247.74L347.04,246.19L349.96,245.35L352.41,244.95L351.83,244.99L350.05,244.84L347.13,244.28L343.21,243.11L338.49,241.15L333.17,238.30L327.51,234.50L321.76,229.75L316.18,224.10L310.99,217.69L306.39,210.70L302.53,203.32L299.51,195.82L297.36,188.44L296.06,181.45L295.52,175.09L295.60,169.57L296.13,165.08L296.87,161.72L297.59,159.55L298.05,158.59L298.00,158.75L297.23,159.92L295.58,161.94L292.91,164.57L289.16,167.60L284.32,170.76L278.44,173.82L271.64,176.53L264.09,178.70L255.99,180.17L247.60,180.86L239.17,180.70L230.97,179.74L223.25,178.04L216.24,175.74L210.11,173.04L205.01,170.14L201,167.31L198.1,164.78L196.26,162.81L195.37,161.62L195.27,161.38L195.75,162.26L196.59,164.32L197.53,167.59L198.33,172.03L198.76,177.53L198.63,183.94L197.76,191.05L196.06,198.63L193.49,206.40L190.05,214.12L185.83,221.52L180.96,228.37L175.63,234.48L170.06,239.71L164.51,243.98L159.23,247.25L154.48,249.58L150.50,251.05L147.48,251.83L145.58,252.10L144.91,252.11L145.50,252.09L147.32,252.30L150.29,252.96L154.26,254.28L159.04,256.42L164.4,259.50L170.08,263.57L175.83,268.62L181.38,274.57L186.50,281.29L191.01,288.61L194.74,296.28L197.62,304.07L199.60,311.70L200.72,318.91L201.08,325.45L200.82,331.11L200.15,335.71L199.28,339.14L198.48,341.34L197.98,342.32L198.03,342.16L198.85,340.98L200.6,338.97L203.41,336.35L207.35,333.36L212.41,330.26L218.53,327.31L225.59,324.74L233.40,322.74L241.75,321.47L250.39,321.03L259.03,321.44L267.42,322.68L275.29,324.66L282.42,327.23L288.63,330.19L293.78,333.32L297.81,336.36L300.72,339.04L302.55,341.13L303.43,342.38L303.53,342.63L303.06,341.72L302.27,339.58L301.40,336.2L300.71,331.62L300.44,325.96L300.77,319.39L301.88,312.11L303.85,304.39L306.73,296.48L310.50,288.66L315.06,281.19L320.27,274.30L325.93,268.18L331.81,262.97L337.65,258.76L343.18,255.56L348.13,253.31L352.27,251.92L355.40,251.21L358.01,250.94L357.41,250.95L355.55,250.68L352.52,249.92L348.49,248.44L343.64,246.10L338.23,242.78L332.52,238.43L326.77,233.07L321.24,226.79L316.18,219.73L311.77,212.07L308.16,204.07L305.44,195.98L303.64,188.07L302.70,180.63L302.52,173.89L302.96,168.08L303.79,163.37L304.78,159.87L305.68,157.63L306.22,156.63L306.17,156.79L305.30,157.97L303.44,159.98L300.47,162.59L296.33,165.55L291.04,168.58L284.66,171.43L277.32,173.86L269.23,175.68L260.60,176.73L251.71,176.93L242.83,176.25L234.24,174.72L226.2,172.44L218.94,169.59L212.64,166.35L207.43,162.98L203.37,159.73L200.46,156.88L198.63,154.68L197.76,153.35L197.66,153.09L198.12,154.04L198.87,156.26L199.66,159.76L200.23,164.49L200.34,170.32L199.80,177.07L198.45,184.53L196.18,192.42L192.98,200.47L188.87,208.41L183.95,215.96L178.38,222.90L172.36,229.03L166.15,234.21L160.01,238.38L154.22,241.51L149.05,243.68L144.74,244.99L141.49,245.63L139.46,245.81L138.74,245.77L139.35,245.79L141.26,246.12L144.35,246.99L148.46,248.63L153.38,251.20L158.85,254.78L164.61,259.44L170.37,265.13L175.87,271.78L180.88,279.21L185.19,287.23L188.66,295.59L191.22,304.02L192.84,312.22L193.58,319.93L193.56,326.88L192.94,332.86L191.93,337.70L190.80,341.28L189.81,343.57L189.22,344.59L189.28,344.43L190.21,343.24L192.19,341.23L195.32,338.63L199.68,335.71L205.23,332.75L211.89,330.00L219.53,327.71L227.93,326.08L236.86,325.26L246.04,325.32L255.18,326.30L264.00,328.14L272.22,330.73L279.63,333.90L286.03,337.43L291.31,341.07L295.40,344.54L298.32,347.57L300.14,349.91L301.00,351.30L301.1,351.57L300.66,350.59L299.96,348.28L299.25,344.64L298.80,339.75L298.86,333.73L299.63,326.78L301.25,319.13L303.82,311.05L307.38,302.84L311.86,294.77L317.17,287.12L323.13,280.12L329.52,273.98L336.10,268.81L342.56,264.69L348.64,261.63L354.04,259.55L358.54,258.32L361.92,257.76L364.71,257.64L364.08,257.61L362.13,257.21L358.97,256.21L354.77,254.40L349.77,251.61L344.23,247.74L338.43,242.77L332.65,236.72L327.17,229.70L322.23,221.87L318.01,213.46L314.67,204.73L312.28,195.95L310.85,187.43L310.31,179.45L310.54,172.27L311.36,166.11L312.54,161.14L313.81,157.47L314.91,155.13L315.55,154.09L315.48,154.26L314.49,155.45L312.39,157.48L309.07,160.06L304.49,162.95L298.67,165.84L291.71,168.48L283.75,170.62L275.02,172.05L265.77,172.64L256.30,172.30L246.88,171.03L237.83,168.87L229.40,165.95L221.84,162.45L215.33,158.62L209.98,154.70L205.85,150.99L202.92,147.77L201.11,145.30L200.25,143.83L200.16,143.55L200.58,144.58L201.24,146.98L201.87,150.76L202.18,155.83L201.94,162.05L200.95,169.21L199.05,177.06L196.15,185.33L192.24,193.72L187.37,201.93L181.66,209.68L175.29,216.74L168.50,222.90L161.55,228.05L154.75,232.12L148.38,235.11L142.72,237.10L138.04,238.24L134.53,238.72L132.35,238.79L131.57,238.71L132.22,238.77L134.23,239.23L137.47,240.36L141.75,242.36L146.84,245.40L152.45,249.56L158.31,254.88L164.10,261.31L169.57,268.73L174.45,276.97L178.56,285.80L181.76,294.94L183.98,304.09L185.21,312.95L185.53,321.23L185.08,328.65L184.05,335L182.69,340.11L181.26,343.87L180.06,346.26L179.36,347.32L179.44,347.15L180.50,345.95L182.73,343.92L186.24,341.34L191.06,338.49L197.17,335.67L204.45,333.14L212.75,331.17L221.83,329.94L231.41,329.6L241.22,330.23L250.92,331.83L260.23,334.33L268.87,337.59L276.59,341.43L283.23,345.59L288.65,349.80L292.81,353.76L295.75,357.19L297.56,359.79L298.40,361.34L298.49,361.64L298.09,360.56L297.48,358.05L296.94,354.13L296.76,348.87L297.19,342.44L298.43,335.06L300.63,326.98L303.87,318.50L308.17,309.94L313.45,301.58L319.59,293.72L326.38,286.60L333.59,280.41L340.93,275.28L348.10,271.26L354.78,268.35L360.69,266.45L365.57,265.40L369.22,265.01L372.23,265.04L371.56,264.96L369.50,264.42L366.18,263.16L361.80,260.97L356.63,257.68L350.94,253.22L345.03,247.54L339.21,240.73L333.77,232.89L328.94,224.22L324.94,214.97L321.89,205.42L319.85,195.89L318.83,186.68L318.73,178.11L319.40,170.43L320.65,163.89L322.20,158.64L323.78,154.78L325.10,152.34L325.84,151.27L325.76,151.43L324.62,152.65L322.26,154.69L318.55,157.26L313.48,160.07L307.08,162.82L299.47,165.22L290.83,167.03L281.40,168.05L271.46,168.13L261.33,167.21L251.33,165.28L241.76,162.44L232.92,158.81L225.03,154.63L218.28,150.13L212.78,145.62L208.58,141.41L205.63,137.78L203.83,135.04L203,133.42L202.91,133.10L203.30,134.23L203.86,136.84L204.30,140.92L204.34,146.37L203.72,153.01L202.23,160.62L199.73,168.92L196.14,177.60L191.45,186.36L185.75,194.86L179.18,202.82L171.95,210.01L164.32,216.22L156.58,221.33L149.05,225.28L142.06,228.12L135.88,229.92L130.8,230.87L127.01,231.19L124.67,231.13L123.84,231.01L124.53,231.11L126.66,231.73L130.06,233.13L134.52,235.52L139.79,239.07L145.56,243.86L151.52,249.90L157.36,257.12L162.78,265.39L167.53,274.50L171.42,284.19L174.32,294.17L176.16,304.10L176.97,313.66L176.84,322.55L175.93,330.47L174.46,337.22L172.70,342.61L170.96,346.56L169.54,349.05L168.74,350.14L168.83,349.98L170.04,348.75L172.55,346.71L176.46,344.15L181.79,341.38L188.50,338.70L196.45,336.42L205.44,334.78L215.24,333.99L225.53,334.18L235.99,335.41L246.30,337.68L256.13,340.89L265.19,344.88L273.25,349.43L280.11,354.27L285.68,359.09L289.92,363.57L292.88,367.39L294.67,370.28L295.48,371.99L295.57,372.31L295.2,371.13L294.69,368.41L294.34,364.17L294.45,358.53L295.28,351.67L297.03,343.83L299.85,335.30L303.80,326.41L308.88,317.47L315.02,308.82L322.03,300.75L329.72,293.51L337.79,287.29L345.93,282.20L353.83,278.31L361.15,275.56L367.59,273.86L372.87,273.01L376.8,272.78L380.01,272.98L379.3,272.86L377.12,272.16L373.64,270.62L369.08,268.02L363.72,264.21L357.87,259.10L351.87,252.70L346.02,245.07L340.63,236.37L335.95,226.82L332.18,216.69L329.44,206.30L327.79,195.98L327.20,186.06L327.57,176.88L328.72,168.70L330.41,161.76L332.36,156.23L334.26,152.19L335.80,149.65L336.65,148.54L336.55,148.71L335.26,149.96L332.61,152L328.50,154.55L322.91,157.27L315.90,159.86L307.62,162.02L298.27,163.48L288.12,164.05L277.48,163.59L266.69,162.04L256.09,159.43L246.01,155.86L236.74,151.50L228.52,146.59L221.55,141.42L215.91,136.30L211.64,131.56L208.68,127.53L206.90,124.50L206.10,122.72L206.02,122.39L206.37,123.62L206.82,126.45L207.07,130.84L206.81,136.67L205.78,143.75L203.77,151.81L200.65,160.56L196.33,169.65L190.85,178.76L184.29,187.55L176.83,195.72L168.71,203.01L160.21,209.24L151.67,214.29L143.41,218.12L135.78,220.78L129.08,222.38L123.60,223.13L119.54,223.26L117.04,223.09L116.17,222.91L116.90,223.06L119.14,223.85L122.70,225.53L127.36,228.34L132.8,232.42L138.72,237.85L144.76,244.62L150.62,252.66L155.97,261.79L160.57,271.78L164.22,282.35L166.78,293.16L168.23,303.87L168.59,314.13L167.98,323.62L166.59,332.04L164.68,339.16L162.52,344.83L160.46,348.96L158.82,351.55L157.91,352.67L158.02,352.49L159.39,351.24L162.19,349.20L166.51,346.67L172.35,343.99L179.66,341.49L188.28,339.47L197.98,338.19L208.48,337.85L219.46,338.59L230.57,340.45L241.46,343.41L251.79,347.35L261.26,352.08L269.63,357.35L276.71,362.86L282.40,368.29L286.7,373.28L289.66,377.51L291.42,380.68L292.21,382.53L292.28,382.87L291.96,381.59L291.56,378.65L291.41,374.10L291.82,368.08L293.06,360.80L295.33,352.52L298.78,343.56L303.45,334.27L309.34,324.99L316.32,316.08L324.22,307.82L332.78,300.49L341.70,294.26L350.65,289.25L359.26,285.49L367.20,282.93L374.15,281.43L379.82,280.79L384.01,280.74L387.42,281.11L386.66,280.94L384.37,280.07L380.73,278.25L376.00,275.24L370.47,270.90L364.50,265.16L358.41,258.02L352.56,249.59L347.25,240.05L342.74,229.63L339.22,218.65L336.82,207.44L335.58,196.36L335.44,185.77L336.29,176.00L337.91,167.35L340.05,160.05L342.39,154.26L344.61,150.05L346.36,147.43L347.32,146.29L347.19,146.47L345.74,147.73L342.81,149.77L338.30,152.28L332.20,154.91L324.61,157.32L315.68,159.21L305.64,160.30L294.81,160.41L283.50,159.40L272.09,157.23L260.93,153.94L250.38,149.64L240.72,144.56L232.22,138.94L225.05,133.10L219.30,127.39L214.99,122.15L212.03,117.73L210.29,114.43L209.52,112.51L209.45,112.16L209.75,113.50L210.09,116.54L210.14,121.24L209.58,127.43L208.14,134.91L205.61,143.39L201.86,152.55L196.84,162.02L190.57,171.44L183.18,180.47L174.86,188.80L165.88,196.17L156.56,202.39L147.24,207.35L138.29,211.03L130.06,213.50L122.88,214.89L117.03,215.43L112.72,215.39L110.08,215.09L109.17,214.88L109.95,215.08L112.30,216.03L116.01,217.99L120.82,221.2L126.42,225.80L132.45,231.85L138.56,239.33L144.40,248.14L149.66,258.09L154.08,268.91L157.46,280.30L159.68,291.90L160.72,303.33L160.64,314.23L159.56,324.26L157.70,333.13L155.35,340.60L152.81,346.51L150.45,350.79L148.59,353.45L147.59,354.60L147.74,354.41L149.26,353.15L152.33,351.10L157.03,348.62L163.37,346.05L171.24,343.73L180.47,341.98L190.82,341.07L201.98,341.19L213.59,342.47L225.28,344.95L236.69,348.57L247.46,353.21L257.28,358.64L265.90,364.60L273.16,370.75L278.95,376.74L283.28,382.21L286.22,386.82L287.95,390.24L288.70,392.22L288.77,392.57L288.49,391.19L288.20,388.04L288.25,383.21L288.97,376.85L290.61,369.18L293.38,360.51L297.43,351.17L302.80,341.54L309.43,331.98L317.22,322.85L325.94,314.46L335.31,307.07L345.02,300.87L354.70,295.96L363.97,292.36L372.47,289.99L379.87,288.70L385.89,288.27L390.32,288.39L393.89,288.92L393.09,288.69L390.69,287.67L386.92,285.57L382.04,282.17L376.38,277.34L370.31,271.00L364.18,263.19L358.36,254.02L353.15,243.70L348.83,232.50L345.59,220.75L343.53,208.80L342.68,197.05L342.98,185.86L344.28,175.59L346.36,166.52L348.91,158.91L351.62,152.90L354.13,148.56L356.07,145.86L357.12,144.70L356.96,144.89L355.37,146.16L352.17,148.2L347.29,150.66L340.73,153.17L332.61,155.40L323.10,157.01L312.46,157.75L301.02,157.41L289.13,155.88L277.18,153.11L265.55,149.18L254.59,144.23L244.63,138.47L235.90,132.20L228.57,125.76L222.75,119.51L218.41,113.83L215.48,109.06L213.77,105.53L213.03,103.49L212.97,103.13L213.23,104.57L213.46,107.80L213.31,112.76L212.46,119.28L210.63,127.11L207.62,135.95L203.30,145.44L197.62,155.22L190.64,164.89L182.50,174.11L173.41,182.55L163.66,189.95L153.61,196.12L143.61,200.98L134.05,204.50L125.30,206.77L117.70,207.96L111.53,208.30L107.01,208.10L104.26,207.69L103.32,207.44L104.14,207.70L106.58,208.80L110.42,211.03L115.36,214.60L121.07,219.67L127.17,226.27L133.31,234.39L139.11,243.89L144.25,254.55L148.48,266.11L151.59,278.20L153.49,290.47L154.14,302.52L153.64,313.97L152.13,324.47L149.84,333.70L147.10,341.45L144.22,347.56L141.58,351.95L139.56,354.68L138.48,355.84L138.65,355.65L140.31,354.38L143.63,352.35L148.67,349.92L155.43,347.46L163.79,345.33L173.56,343.84L184.46,343.27L196.17,343.82L208.31,345.60L220.49,348.63L232.32,352.86L243.44,358.11L253.54,364.17L262.37,370.73L269.75,377.44L275.60,383.92L279.93,389.81L282.85,394.73L284.54,398.36L285.26,400.45L285.33,400.81L285.09,399.33L284.91,396.01L285.15,390.94L286.13,384.28L288.14,376.3L291.37,367.31L295.95,357.67L301.92,347.77L309.22,337.99L317.70,328.70L327.13,320.23L337.22,312.83L347.60,306.68L357.89,301.88L367.72,298.44L376.69,296.25L384.47,295.16L390.77,294.91L395.38,295.18L399.10,295.85L398.25,295.57L395.77,294.4L391.89,292.06L386.90,288.32L381.15,283.05L375.01,276.20L368.88,267.81L363.11,258.02L358.02,247.05L353.89,235.19L350.90,222.78L349.15,210.23L348.67,197.92L349.36,186.24L351.06,175.55L353.53,166.16L356.45,158.3L359.47,152.12L362.22,147.67L364.33,144.93L365.44,143.76L365.25,143.95L363.53,145.22L360.10,147.24L354.91,149.64L347.97,152.05L339.40,154.10L329.41,155.46L318.27,155.88L306.34,155.14L293.98,153.14L281.60,149.87L269.60,145.38L258.33,139.86L248.12,133.53L239.22,126.72L231.79,119.77L225.92,113.08L221.59,107.02L218.68,101.97L217.01,98.25L216.3,96.11L216.24,95.76L216.45,97.28L216.58,100.67L216.26,105.84L215.16,112.62L212.99,120.73L209.56,129.85L204.75,139.61L198.52,149.62L190.94,159.48L182.16,168.83L172.43,177.33L162.06,184.73L151.39,190.85L140.84,195.60L130.78,198.97L121.62,201.07L113.68,202.08L107.26,202.25L102.57,201.91L99.73,201.42L98.78,201.14L99.63,201.45L102.15,202.68L106.07,205.13L111.11,209.01L116.90,214.47L123.05,221.54L129.19,230.17L134.93,240.23L139.96,251.48L144.01,263.63L146.88,276.30L148.49,289.11L148.82,301.65L147.95,313.53L146.08,324.39L143.44,333.91L140.37,341.88L137.22,348.13L134.37,352.62L132.19,355.38L131.05,356.56L131.25,356.36L133.04,355.09L136.56,353.08L141.88,350.71L148.98,348.35L157.74,346.38L167.93,345.13L179.27,344.85L191.41,345.76L203.96,347.95L216.52,351.45L228.68,356.17L240.07,361.93L250.38,368.50L259.35,375.54L266.81,382.70L272.70,389.58L277.04,395.79L279.93,400.96L281.59,404.76L282.28,406.93L282.35,407.28L282.15,405.73L282.06,402.27L282.46,397.00L283.68,390.12L285.98,381.90L289.59,372.66L294.61,362.79L301.07,352.69L308.90,342.76L317.94,333.36L327.94,324.83L338.57,317.44L349.49,311.34L360.27,306.64L370.53,303.33L379.87,301.31L387.94,300.37L394.46,300.27L399.22,300.66L403.03,301.44L402.16,301.11L399.62,299.82L395.65,297.28L390.58,293.27L384.76,287.66L378.59,280.40L372.46,271.55L366.74,261.26L361.76,249.77L357.79,237.39L355.01,224.49L353.52,211.46L353.33,198.72L354.33,186.67L356.36,175.67L359.13,166.02L362.33,157.97L365.60,151.66L368.54,147.14L370.77,144.36L371.93,143.18L371.71,143.37L369.88,144.64L366.28,146.64L360.84,148.99L353.60,151.30L344.69,153.21L334.32,154.37L322.81,154.52L310.49,153.47L297.77,151.11L285.07,147.43L272.78,142.52L261.27,136.55L250.88,129.78L241.86,122.55L234.35,115.21L228.45,108.18L224.12,101.84L221.23,96.57L219.59,92.70L218.90,90.5L218.83,90.14L219.01,91.73L219.06,95.25L218.59,100.59L217.29,107.56L214.86,115.88L211.11,125.22L205.92,135.18L199.26,145.36L191.22,155.36L181.96,164.80L171.74,173.35L160.88,180.75L149.76,186.82L138.78,191.49L128.35,194.75L118.87,196.72L110.68,197.59L104.07,197.64L99.25,197.20L96.35,196.64L95.38,196.35L96.26,196.7L98.83,198.04L102.82,200.66L107.93,204.78L113.77,210.53L119.96,217.96L126.09,226.99L131.80,237.47L136.74,249.17L140.65,261.75L143.35,274.86L144.74,288.08L144.82,301.00L143.69,313.20L141.55,324.33L138.66,334.08L135.34,342.20L131.98,348.57L128.97,353.13L126.70,355.92L125.52,357.11L125.75,356.92L127.62,355.65L131.30,353.65L136.83,351.32L144.19,349.05L153.24,347.20L163.76,346.12L175.43,346.06L187.90,347.23L200.76,349.73L213.60,353.57L226.01,358.65L237.61,364.79L248.08,371.73L257.17,379.13L264.70,386.61L270.63,393.78L274.97,400.23L277.85,405.58L279.49,409.50L280.17,411.73L280.24,412.09L280.07,410.48L280.06,406.91L280.58,401.5L281.96,394.45L284.49,386.04L288.37,376.61L293.70,366.57L300.53,356.31L308.75,346.25L318.19,336.76L328.61,328.18L339.65,320.77L350.96,314.71L362.10,310.07L372.68,306.84L382.29,304.92L390.58,304.09L397.27,304.08L402.13,304.56L406.02,305.41L405.13,305.04L402.54,303.65L398.51,300.97L393.38,296.76L387.50,290.89L381.30,283.33L375.16,274.15L369.46,263.5L364.54,251.63L360.67,238.87L358.03,225.60L356.71,212.21L356.71,199.15L357.93,186.81L360.17,175.57L363.15,165.73L366.55,157.53L369.99,151.12L373.06,146.53L375.37,143.71L376.56,142.52L376.32,142.71L374.41,143.98L370.68,145.97L365.06,148.29L357.59,150.54L348.43,152.35L337.79,153.38L325.98,153.36L313.38,152.10L300.39,149.49L287.43,145.54L274.91,140.33L263.22,134.05L252.67,126.98L243.53,119.45L235.95,111.84L230.00,104.56L225.65,98.02L222.76,92.60L221.12,88.63L220.44,86.38L220.37,86.03L220.52,87.66L220.51,91.27L219.95,96.74L218.51,103.86L215.90,112.35L211.93,121.86L206.48,131.98L199.53,142.31L191.16,152.44L181.56,161.98L171.00,170.59L159.79,178.02L148.34,184.10L137.06,188.73L126.36,191.94L116.64,193.84L108.26,194.64L101.50,194.63L96.59,194.13L93.63,193.54L92.65,193.24L93.55,193.62L96.16,195.04L100.21,197.78L105.38,202.07L111.29,208.03L117.52,215.70L123.68,225.01L129.39,235.8L134.30,247.81L138.16,260.73L140.77,274.15L142.04,287.68L141.98,300.88L140.70,313.34L138.39,324.69L135.34,334.61L131.88,342.88L128.39,349.35L125.28,353.97L122.93,356.81L121.73,358.01L121.98,357.83L123.92,356.55L127.70,354.56L133.39,352.25L140.95,350.01L150.22,348.22L160.97,347.22L172.90,347.29L185.62,348.62L198.74,351.30L211.81,355.34L224.44,360.65L236.22,367.03L246.85,374.21L256.06,381.84L263.69,389.55L269.68,396.91L274.05,403.53L276.95,409.01L278.60,413.02L279.29,415.29L279.37,415.64L279.22,413.99L279.25,410.35L279.84,404.83L281.32,397.64L283.99,389.07L288.03,379.49L293.57,369.28L300.63,358.87L309.10,348.67L318.82,339.06L329.52,330.39L340.85,322.92L352.43,316.81L363.84,312.16L374.65,308.95L384.46,307.05L392.93,306.26L399.74,306.29L404.70,306.80L408.66,307.68L407.75,307.28L405.12,305.84L401.04,303.06L395.83,298.72L389.89,292.68L383.61,284.92L377.41,275.50L371.68,264.60L366.75,252.46L362.88,239.42L360.28,225.86L359.02,212.2L359.10,198.88L360.42,186.31L362.76,174.85L365.86,164.84L369.37,156.5L372.90,149.98L376.04,145.31L378.40,142.45L379.61,141.23L379.36,141.42L377.39,142.69L373.57,144.69L367.82,147.01L360.19,149.26L350.83,151.05L339.97,152.03L327.93,151.95L315.09,150.59L301.86,147.86L288.67,143.76L275.93,138.39L264.04,131.94L253.33,124.69L244.04,116.97L236.35,109.19L230.31,101.75L225.89,95.08L222.97,89.55L221.30,85.5L220.61,83.21L220.52,82.85L220.66,84.52L220.62,88.20L220.01,93.77L218.51,101.03L215.81,109.67L211.72,119.34L206.11,129.64L198.99,140.14L190.43,150.43L180.61,160.11L169.81,168.86L158.38,176.40L146.69,182.55L135.18,187.24L124.27,190.49L114.36,192.41L105.82,193.21L98.94,193.18L93.94,192.67L90.93,192.07L89.92,191.78L90.84,192.19L93.49,193.65L97.61,196.46L102.86,200.85L108.86,206.95L115.19,214.78L121.44,224.29L127.22,235.30L132.20,247.55L136.11,260.71L138.74,274.40L140.01,288.18L139.94,301.62L138.62,314.31L136.26,325.87L133.14,335.98L129.61,344.40L126.06,350.99L122.89,355.71L120.52,358.60L119.30,359.84L119.56,359.65L121.54,358.37L125.41,356.36L131.22,354.01L138.91,351.74L148.36,349.94L159.32,348.94L171.47,349.01L184.43,350.37L197.79,353.11L211.11,357.23L223.97,362.64L235.97,369.14L246.80,376.45L256.18,384.22L263.96,392.06L270.07,399.56L274.54,406.29L277.51,411.86L279.20,415.94L279.91,418.25L280.00,418.61L279.87,416.92L279.91,413.21L280.52,407.59L282.03,400.27L284.75,391.54L288.87,381.77L294.50,371.37L301.68,360.76L310.30,350.36L320.19,340.57L331.08,331.72L342.61,324.09L354.39,317.85L366.00,313.09L377.00,309.78L387,307.82L395.62,306.99L402.56,307.00L407.62,307.49L411.65,308.37L410.74,307.96L408.06,306.48L403.90,303.65L398.59,299.23L392.53,293.09L386.12,285.19L379.79,275.61L373.93,264.52L368.87,252.16L364.9,238.88L362.20,225.08L360.88,211.17L360.92,197.60L362.21,184.78L364.56,173.11L367.67,162.89L371.21,154.38L374.77,147.71L377.95,142.94L380.34,140.00L381.56,138.75L381.29,138.93L379.29,140.23L375.39,142.26L369.54,144.64L361.78,146.95L352.25,148.8L341.19,149.84L328.92,149.80L315.83,148.47L302.34,145.75L288.88,141.63L275.88,136.22L263.73,129.70L252.77,122.36L243.26,114.55L235.38,106.66L229.18,99.12L224.64,92.34L221.61,86.73L219.88,82.61L219.15,80.28L219.05,79.92L219.18,81.62L219.15,85.37L218.55,91.05L217.05,98.44L214.34,107.26L210.22,117.14L204.56,127.66L197.36,138.40L188.69,148.94L178.75,158.87L167.79,167.85L156.18,175.61L144.31,181.97L132.61,186.83L121.50,190.22L111.42,192.25L102.72,193.13L95.70,193.16L90.59,192.69L87.51,192.11L86.47,191.83L87.40,192.25L90.11,193.73L94.32,196.58L99.69,201.02L105.84,207.20L112.35,215.14L118.79,224.79L124.77,235.97L129.93,248.43L134.01,261.82L136.80,275.76L138.21,289.80L138.25,303.52L137.01,316.47L134.70,328.28L131.61,338.63L128.09,347.25L124.53,354.01L121.35,358.85L118.95,361.84L117.73,363.12L118.00,362.94L120.01,361.63L123.94,359.56L129.84,357.13L137.68,354.75L147.30,352.84L158.46,351.72L170.86,351.70L184.09,352.97L197.75,355.64L211.37,359.72L224.55,365.12L236.86,371.63L247.98,378.98L257.64,386.82L265.67,394.74L271.98,402.33L276.62,409.15L279.72,414.81L281.50,418.96L282.26,421.31L282.38,421.68L282.24,419.96L282.25,416.18L282.82,410.43L284.30,402.95L286.99,394.02L291.10,384.02L296.75,373.34L303.96,362.44L312.65,351.73L322.64,341.62L333.66,332.47L345.34,324.54L357.31,318.04L369.11,313.04L380.31,309.53L390.50,307.41L399.29,306.45L406.39,306.36L411.56,306.80L415.71,307.63L414.77,307.21L412.03,305.73L407.76,302.88L402.30,298.42L396.04,292.22L389.41,284.23L382.83,274.52L376.71,263.25L371.40,250.69L367.18,237.18L364.25,223.11L362.72,208.91L362.58,195.04L363.74,181.93L365.98,169.96L369.02,159.48L372.52,150.72L376.07,143.85L379.25,138.92L381.64,135.88L382.87,134.56L382.60,134.74L380.56,136.07L376.61,138.20L370.66,140.69L362.75,143.15L353.04,145.16L341.75,146.37L329.22,146.49L315.82,145.31L301.98,142.71L288.16,138.69L274.79,133.34L262.27,126.85L250.95,119.51L241.11,111.66L232.92,103.71L226.46,96.09L221.70,89.22L218.52,83.52L216.68,79.34L215.87,76.96L215.75,76.59L215.90,78.32L215.91,82.14L215.37,87.96L213.94,95.54L211.29,104.59L207.22,114.75L201.59,125.60L194.38,136.70L185.68,147.62L175.65,157.94L164.59,167.30L152.82,175.43L140.77,182.13L128.87,187.30L117.56,190.95L107.26,193.20L98.36,194.26L91.18,194.42L85.93,194.03L82.75,193.50L81.68,193.24L82.62,193.66L85.40,195.14L89.75,197.99L95.32,202.45L101.71,208.68L108.49,216.71L115.24,226.48L121.55,237.83L127.05,250.50L131.46,264.15L134.56,278.38L136.25,292.74L136.53,306.80L135.49,320.10L133.34,332.25L130.37,342.90L126.92,351.82L123.39,358.82L120.22,363.85L117.83,366.97L116.60,368.32L116.88,368.15L118.92,366.78L122.91,364.60L128.91,362.01L136.89,359.45L146.71,357.31L158.14,355.97L170.84,355.72L184.43,356.78L198.48,359.27L212.53,363.2L226.14,368.48L238.90,374.93L250.45,382.25L260.52,390.1L268.91,398.07L275.55,405.73L280.45,412.64L283.75,418.39L285.67,422.61L286.52,425.01L286.66,425.39L286.49,423.64L286.45,419.76L286.93,413.87L288.31,406.17L290.89,396.97L294.91,386.62L300.5,375.56L307.69,364.23L316.39,353.06L326.44,342.48L337.56,332.86L349.40,324.48L361.54,317.55L373.56,312.16L384.99,308.32L395.41,305.92L404.43,304.74L411.73,304.49L417.06,304.82L421.34,305.58L420.39,305.16L417.56,303.69L413.12,300.84L407.43,296.38L400.88,290.14L393.90,282.07L386.95,272.24L380.42,260.80L374.69,248.01L370.06,234.21L366.74,219.82L364.86,205.26L364.40,191.00L365.30,177.50L367.33,165.14L370.22,154.28L373.61,145.19L377.09,138.04L380.24,132.89L382.63,129.69L383.86,128.30L383.59,128.46L381.53,129.87L377.51,132.13L371.45,134.82L363.39,137.51L353.44,139.80L341.87,141.30L328.98,141.70L315.17,140.80L300.88,138.45L286.57,134.63L272.68,129.45L259.65,123.07L247.82,115.78L237.50,107.94L228.88,99.95L222.03,92.26L216.96,85.31L213.53,79.52L211.51,75.25L210.62,72.82L210.46,72.43L210.65,74.20L210.74,78.13L210.32,84.12L209.01,91.95L206.51,101.33L202.56,111.89L197.03,123.19L189.88,134.80L181.19,146.25L171.12,157.13L159.95,167.05L148.04,175.72L135.80,182.93L123.66,188.56L112.10,192.63L101.54,195.22L92.40,196.54L84.98,196.90L79.56,196.65L76.26,196.19L75.13,195.96L76.10,196.38L78.99,197.84L83.53,200.67L89.37,205.13L96.11,211.38L103.31,219.48L110.51,229.38L117.31,240.92L123.31,253.83L128.22,267.79L131.79,282.38L133.92,297.15L134.58,311.63L133.88,325.38L131.99,337.98L129.22,349.06L125.90,358.36L122.47,365.69L119.34,370.98L116.96,374.28L115.73,375.72L116.01,375.55L118.08,374.10L122.13,371.75L128.25,368.93L136.41,366.08L146.49,363.62L158.23,361.92L171.33,361.32L185.39,362.03L199.96,364.21L214.58,367.87L228.78,372.94L242.14,379.23L254.28,386.47L264.90,394.29L273.80,402.28L280.89,410.00L286.16,416.99L289.75,422.84L291.87,427.14L292.83,429.61L293.00,430.00L292.79,428.21L292.64,424.22L292.98,418.12L294.19,410.14L296.60,400.56L300.45,389.76L305.91,378.17L313.00,366.25L321.67,354.46L331.75,343.24L342.95,332.96L354.94,323.94L367.29,316.41L379.55,310.48L391.26,306.16L401.96,303.35L411.26,301.85L418.80,301.36L424.34,301.52L428.80,302.17L427.81,301.75L424.85,300.31L420.19,297.50L414.18,293.06L407.23,286.8L399.78,278.67L392.29,268.71L385.19,257.08L378.87,244.03L373.65,229.90L369.78,215.11L367.37,200.10L366.45,185.36L366.95,171.35L368.66,158.49L371.30,147.16L374.52,137.63L377.90,130.11L380.99,124.66L383.36,121.26L384.59,119.76L384.30,119.93L382.22,121.44L378.13,123.89L371.95,126.85L363.69,129.89L353.47,132.56L341.54,134.48L328.21,135.31L313.88,134.82L299.00,132.85L284.06,129.36L269.50,124.44L255.79,118.26L243.29,111.10L232.34,103.31L223.13,95.33L215.78,87.59L210.27,80.55L206.51,74.66L204.27,70.30L203.25,67.81L203.06,67.40L203.30,69.23L203.51,73.29L203.27,79.50L202.17,87.65L199.88,97.45L196.14,108.51L190.78,120.41L183.76,132.68L175.13,144.85L165.06,156.46L153.82,167.13L141.76,176.53L129.31,184.43L116.92,190.70L105.06,195.31L94.20,198.37L84.75,200.07L77.07,200.71L71.42,200.64L67.97,200.30L66.78,200.11L67.79,200.52L70.83,201.94L75.62,204.72L81.83,209.15L89.03,215.40L96.77,223.55L104.59,233.57L112.04,245.30L118.72,258.50L124.3,272.81L128.53,287.82L131.26,303.08L132.47,318.10L132.23,332.40L130.73,345.55L128.25,357.16L125.15,366.94L121.85,374.68L118.80,380.30L116.45,383.82L115.23,385.38L115.51,385.21L117.61,383.64L121.73,381.07L127.98,377.93L136.35,374.68L146.72,371.77L158.86,369.59L172.44,368.49L187.07,368.72L202.28,370.45L217.6,373.72L232.54,378.46L246.66,384.5L259.54,391.56L270.88,399.29L280.43,407.26L288.09,415.02L293.85,422.09L297.81,428.03L300.18,432.44L301.28,434.96L301.49,435.37L301.22,433.52L300.93,429.38L301.06,423.04L302.02,414.71L304.17,404.66L307.78,393.30L313.01,381.05L319.93,368.39L328.50,355.81L338.55,343.75L349.81,332.64L361.93,322.80L374.48,314.49L387.01,307.84L399.02,302.89L410.05,299.55L419.66,297.62L427.49,296.81L433.26,296.75L437.94,297.25L436.91,296.84L433.78,295.45L428.84,292.70L422.42,288.31L414.95,282.07L406.89,273.90L398.72,263.83L390.88,252.00L383.79,238.67L377.81,224.18L373.19,208.94L370.09,193.42L368.56,178.11L368.51,163.51L369.77,150.05L372.07,138.15L375.03,128.10L378.24,120.12L381.23,114.31L383.56,110.67L384.77,109.05L384.48,109.22L382.37,110.86L378.21,113.56L371.90,116.89L363.42,120.38L352.89,123.56L340.55,126.04L326.70,127.44L311.77,127.50L296.20,126.05L280.49,123.03L265.13,118.5L250.59,112.63L237.29,105.68L225.55,98.03L215.62,90.09L207.64,82.33L201.61,75.23L197.44,69.25L194.91,64.81L193.73,62.25L193.50,61.83L193.81,63.72L194.19,67.93L194.19,74.41L193.38,82.94L191.39,93.24L187.95,104.92L182.86,117.54L176.06,130.61L167.58,143.64L157.57,156.17L146.31,167.76L134.14,178.07L121.5,186.83L108.85,193.89L96.69,199.21L85.50,202.86L75.72,205.05L67.73,206.05L61.84,206.23L58.22,206.03L56.97,205.89L58.03,206.28L61.25,207.64L66.36,210.34L73.01,214.69L80.77,220.91L89.19,229.08L97.76,239.19L106.03,251.09L113.56,264.56L120.00,279.24L125.06,294.71L128.57,310.50L130.49,326.11L130.86,341.03L129.88,354.81L127.80,367.03L125.00,377.37L121.91,385.60L118.98,391.60L116.69,395.38L115.49,397.07L115.78,396.89L117.91,395.17L122.09,392.32L128.47,388.78L137.06,385.03L147.75,381.54L160.31,378.73L174.42,376.99L189.69,376.58L205.63,377.71L221.75,380.44L237.55,384.72L252.55,390.39L266.31,397.18L278.48,404.73L288.81,412.62L297.16,420.36L303.49,427.48L307.90,433.49L310.58,437.97L311.86,440.56L312.10,440.98L311.75,439.06L311.26,434.76L311.12,428.14L311.76,419.40L313.55,408.83L316.8,396.81L321.71,383.80L328.36,370.28L336.73,356.76L346.66,343.72L357.90,331.61L370.09,320.79L382.81,311.53L395.57,304.02L407.88,298.30L419.23,294.29L429.18,291.82L437.31,290.61L443.34,290.28L448.24,290.56L447.15,290.18L443.83,288.87L438.55,286.22L431.66,281.92L423.58,275.75L414.79,267.60L405.79,257.47L397.06,245.50L389.05,231.91L382.13,217.06L376.60,201.37L372.63,185.32L370.31,169.42L369.57,154.18L370.25,140.07L372.08,127.53L374.69,116.90L377.65,108.42L380.50,102.21L382.75,98.29L383.93,96.53L383.63,96.72L381.50,98.52L377.28,101.53L370.85,105.30L362.16,109.33L351.32,113.16L338.55,116.32L324.17,118.44L308.58,119.22L292.26,118.45L275.72,116.05L259.47,112.06L244.01,106.62L229.78,100.02L217.16,92.60L206.41,84.79L197.69,77.08L191.05,69.97L186.40,63.93L183.54,59.41L182.17,56.81L181.91,56.38L182.31,58.34L182.91,62.72L183.21,69.48L182.77,78.43L181.19,89.27L178.16,101.63L173.46,115.05L167.00,129.03L158.78,143.05L148.95,156.62L137.76,169.27L125.56,180.63L112.80,190.40L99.94,198.39L87.51,204.55L76.01,208.92L65.91,211.69L57.62,213.14L51.48,213.63L47.70,213.60L46.38,213.53L47.50,213.90L50.92,215.16L56.39,217.74L63.55,221.96L71.96,228.06L81.14,236.18L90.59,246.30L99.82,258.33L108.35,272.01L115.80,287.01L121.86,302.91L126.32,319.21L129.10,335.41L130.25,350.97L129.91,365.40L128.37,378.26L125.97,389.19L123.17,397.94L120.42,404.36L118.23,408.43L117.07,410.25L117.37,410.06L119.51,408.16L123.74,404.98L130.23,400.97L139.00,396.62L149.98,392.44L162.95,388.88L177.60,386.34L193.51,385.15L210.21,385.51L227.18,387.54L243.89,391.20L259.82,396.35L274.54,402.73L287.63,409.98L298.82,417.68L307.93,425.33L314.90,432.42L319.82,438.47L322.86,443.00L324.33,445.63L324.61,446.05L324.15,444.06L323.43,439.60L322.95,432.70L323.17,423.54L324.50,412.42L327.27,399.71L331.72,385.87L337.97,371.42L346.00,356.88L355.69,342.76L366.79,329.53L378.95,317.61L391.73,307.29L404.66,298.78L417.19,292.16L428.83,287.38L439.07,284.29L447.50,282.59L453.76,281.92L458.89,281.95L457.73,281.60L454.20,280.40L448.55,277.90L441.13,273.78L432.38,267.76L422.79,259.71L412.87,249.61L403.13,237.57L394.06,223.82L386.06,208.70L379.46,192.62L374.47,176.09L371.20,159.63L369.62,143.77L369.58,129.02L370.82,115.85L372.97,104.62L375.61,95.62L378.24,88.99L380.36,84.78L381.50,82.89L381.18,83.10L379.05,85.08L374.81,88.45L368.29,92.71L359.44,97.38L348.34,101.94L335.19,105.92L320.30,108.90L304.09,110.54L287.03,110.61L269.65,108.99L252.49,105.70L236.08,100.87L220.90,94.75L207.34,87.70L195.71,80.14L186.20,72.58L178.89,65.53L173.71,59.49L170.48,54.95L168.91,52.31L168.61,51.89L169.13,53.91L169.98,58.46L170.66,65.49L170.68,74.85L169.62,86.24L167.13,99.29L162.95,113.53L156.97,128.45L149.16,143.51L139.65,158.18L128.68,171.98L116.59,184.48L103.83,195.36L90.87,204.39L78.25,211.48L66.51,216.67L56.15,220.12L47.60,222.08L41.23,222.94L37.30,223.12L35.92,223.13L37.12,223.45L40.76,224.59L46.59,226.98L54.28,231.00L63.38,236.90L73.40,244.85L83.80,254.89L94.07,266.91L103.71,280.69L112.29,295.91L119.48,312.13L125.03,328.86L128.82,345.57L130.88,361.71L131.33,376.75L130.44,390.23L128.56,401.75L126.12,411.00L123.63,417.84L121.58,422.19L120.48,424.15L120.80,423.93L122.92,421.84L127.16,418.29L133.70,413.76L142.60,408.75L153.80,403.78L167.11,399.36L182.22,395.90L198.72,393.77L216.12,393.22L233.90,394.38L251.49,397.26L268.37,401.73L284.03,407.54L298.06,414.35L310.13,421.73L320.04,429.17L327.69,436.15L333.14,442.16L336.57,446.70L338.24,449.34L338.56,449.75L337.98,447.70L336.98,443.09L336.10,435.93L335.81,426.38L336.58,414.73L338.75,401.35L342.61,386.71L348.29,371.32L355.82,355.74L365.10,340.51L375.90,326.13L387.87,313.04L400.58,301.59L413.53,292.01L426.19,284.41L438.01,278.79L448.47,274.98L457.13,272.74L463.59,271.68L468.92,271.42L467.69,271.12L463.94,270.05L457.92,267.78L449.97,263.90L440.53,258.14L430.10,250.31L419.21,240.37L408.41,228.41L398.20,214.64L389.02,199.37L381.24,183.04L375.12,166.15L370.78,149.23L368.23,132.85L367.34,117.54L367.87,103.79L369.46,92.01L371.67,82.51L374.02,75.48L375.98,70.99L377.04,68.96L376.72,69.20L374.60,71.39L370.38,75.13L363.85,79.93L354.92,85.29L343.64,90.66L330.21,95.55L314.92,99.50L298.17,102.13L280.46,103.19L262.33,102.51L244.33,100.08L227.01,96.01L210.90,90.54L196.42,84.00L183.92,76.84L173.62,69.55L165.63,62.66L159.90,56.70L156.29,52.18L154.51,49.54L154.18,49.14L154.83,51.22L155.97,55.89L157.08,63.16L157.63,72.87L157.19,84.76L155.36,98.45L151.85,113.47L146.51,129.30L139.28,145.37L130.27,161.15L119.69,176.09L107.88,189.76L95.28,201.78L82.37,211.90L69.71,219.99L57.84,226.06L47.31,230.23L38.57,232.76L32.03,234.02L27.96,234.45L26.55,234.54L27.82,234.82L31.67,235.79L37.87,237.94L46.07,241.65L55.85,247.25L66.70,254.91L78.07,264.71L89.42,276.57L100.22,290.29L110.00,305.56L118.40,321.95L125.12,338.96L130.03,356.05L133.11,372.64L134.46,388.19L134.33,402.20L133.06,414.23L131.09,423.95L128.91,431.16L127.05,435.79L126.04,437.88L126.36,437.62L128.45,435.33L132.64,431.40L139.16,426.31L148.09,420.60L159.40,414.81L172.93,409.44L188.37,404.97L205.32,401.8L223.31,400.21L241.78,400.36L260.15,402.30L277.88,405.93L294.43,411.02L309.35,417.24L322.27,424.15L332.95,431.26L341.28,438.03L347.27,443.91L351.07,448.39L352.96,451.02L353.31,451.41L352.58,449.31L351.28,444.58L349.95,437.22L349.09,427.36L349.19,415.25L350.65,401.28L353.78,385.91L358.74,369.66L365.62,353.1L374.31,336.8L384.62,321.29L396.21,307.05L408.67,294.46L421.49,283.80L434.11,275.20L445.99,268.69L456.57,264.13L465.37,261.30L471.97,259.82L477.45,259.24L476.15,258.99L472.21,258.11L465.84,256.11L457.39,252.57L447.28,247.17L436.04,239.70L424.20,230.08L412.33,218.36L400.96,204.73L390.57,189.51L381.57,173.11L374.24,156.03L368.75,138.82L365.15,122.06L363.32,106.31L363.04,92.09L363.98,79.85L365.69,69.92L367.69,62.53L369.44,57.79L370.4,55.64L370.07,55.92L368.01,58.31L363.87,62.43L357.40,67.78L348.50,73.85L337.18,80.07L323.60,85.91L308.05,90.90L290.93,94.62L272.72,96.76L253.97,97.14L235.26,95.72L217.17,92.55L200.22,87.87L184.90,82.00L171.59,75.37L160.54,68.47L151.89,61.85L145.65,56.06L141.66,51.63L139.67,49.02L139.30,48.64L140.11,50.75L141.56,55.52L143.14,62.96L144.29,72.94L144.55,85.23L143.47,99.46L140.76,115.15L136.19,131.78L129.71,148.78L121.37,165.57L111.37,181.61L100.03,196.39L87.76,209.53L75.08,220.72L62.53,229.81L50.68,236.77L40.09,241.69L31.25,244.83L24.60,246.51L20.46,247.20L19.02,247.38L20.35,247.59L24.39,248.37L30.91,250.21L39.59,253.54L50.00,258.72L61.63,265.97L73.93,275.37L86.32,286.90L98.26,300.38L109.25,315.51L118.87,331.87L126.81,348.97L132.89,366.25L137.05,383.13L139.38,399.04L140.08,413.45L139.50,425.89L138.06,436L136.25,443.54L134.63,448.39L133.72,450.59L134.05,450.30L136.07,447.81L140.15,443.50L146.55,437.88L155.40,431.47L166.69,424.82L180.28,418.49L195.89,412.97L213.13,408.69L231.52,405.97L250.51,405.02L269.52,405.91L287.95,408.57L305.25,412.81L320.95,418.29L334.64,424.62L346.03,431.27L354.99,437.72L361.49,443.39L365.65,447.76L367.75,450.33L368.12,450.70L367.24,448.58L365.62,443.79L363.81,436.30L362.33,426.21L361.71,413.77L362.37,399.32L364.65,383.34L368.78,366.36L374.83,348.94L382.78,331.69L392.43,315.15L403.48,299.84L415.5,286.17L428.01,274.45L440.44,264.88L452.23,257.48L462.80,252.18L471.65,248.75L478.33,246.84L483.90,245.91L482.53,245.73L478.42,245.06L471.76,243.39L462.87,240.27L452.17,235.33L440.18,228.34L427.46,219.18L414.57,207.87L402.09,194.58L390.53,179.60L380.31,163.32L371.77,146.25L365.11,128.94L360.41,111.99L357.59,95.96L356.45,81.41L356.67,68.81L357.83,58.54L359.44,50.87L360.94,45.91L361.79,43.66L361.46,43.98L359.49,46.56L355.49,51.04L349.17,56.92L340.41,63.67L329.18,70.73L315.61,77.54L299.98,83.58L282.67,88.42L264.14,91.71L244.96,93.23L225.72,92.88L207,90.74L189.38,86.96L173.34,81.87L159.32,75.88L147.61,69.49L138.37,63.23L131.63,57.69L127.29,53.40L125.11,50.87L124.72,50.51L125.67,52.63L127.46,57.43L129.52,64.96L131.30,75.12L132.30,87.69L132.05,102.31L130.22,118.54L126.54,135.83L120.93,153.61L113.40,171.29L104.13,188.29L93.42,204.09L81.67,218.25L69.37,230.46L57.09,240.50L45.39,248.31L34.87,253.98L26.03,257.71L19.34,259.83L15.16,260.77L13.71,261.04L15.10,261.17L19.28,261.73L26.07,263.22L35.16,266.11L46.12,270.79L58.44,277.50L71.58,286.38L84.94,297.42L97.94,310.48L110.07,325.28L120.88,341.42L130.01,358.42L137.25,375.70L142.51,392.70L145.83,408.80L147.41,423.47L147.56,436.20L146.69,446.60L145.30,454.39L143.93,459.44L143.14,461.73L143.46,461.39L145.38,458.72L149.29,454.07L155.50,447.94L164.16,440.86L175.29,433.40L188.79,426.12L204.41,419.55L221.75,414.15L240.36,410.28L259.69,408.18L279.13,407.96L298.10,409.57L316.00,412.87L332.34,417.53L346.67,423.17L358.68,429.28L368.19,435.32L375.15,440.71L379.65,444.91L381.93,447.40L382.33,447.75L381.30,445.63L379.35,440.83L377.05,433.29L374.95,423.08L373.57,410.42L373.38,395.64L374.76,379.21L377.96,361.64L383.10,343.52L390.18,325.46L399.04,308.03L409.39,291.77L420.83,277.13L432.88,264.45L444.98,253.96L456.55,245.73L467.01,239.71L475.81,235.69L482.49,233.36L488.10,232.09L486.69,231.99L482.45,231.56L475.56,230.25L466.30,227.59L455.11,223.19L442.47,216.77L428.96,208.19L415.17,197.44L401.67,184.63L389.00,170.05L377.64,154.08L367.94,137.21L360.14,119.98L354.35,102.99L350.54,86.84L348.52,72.10L348.01,59.27L348.59,48.76L349.77,40.86L351.01,35.74L351.74,33.42L351.43,33.76L349.57,36.52L345.75,41.32L339.67,47.69L331.13,55.08L320.12,62.93L306.71,70.66L291.16,77.73L273.82,83.67L255.16,88.11L235.74,90.78L216.14,91.56L196.97,90.47L178.83,87.66L162.23,83.42L147.62,78.15L135.34,72.33L125.59,66.52L118.42,61.28L113.77,57.17L111.41,54.73L111.00,54.39L112.10,56.51L114.20,61.29L116.74,68.83L119.16,79.06L120.91,91.79L121.51,106.68L120.59,123.29L117.87,141.09L113.20,159.49L106.58,177.90L98.15,195.72L88.18,212.39L77.06,227.47L65.28,240.59L53.38,251.5L41.96,260.12L31.59,266.48L22.84,270.77L16.18,273.31L11.99,274.50L10.54,274.85L11.97,274.91L16.26,275.22L23.25,276.34L32.66,278.75L44.07,282.87L56.99,288.97L70.85,297.23L85.06,307.67L99.03,320.19L112.21,334.51L124.11,350.28L134.37,367.01L142.72,384.14L149.03,401.09L153.34,417.25L155.78,432.04L156.66,444.95L156.38,455.55L155.41,463.54L154.31,468.72L153.64,471.08L153.94,470.72L155.74,467.88L159.45,462.93L165.39,456.34L173.78,448.65L184.65,440.43L197.94,432.26L213.41,424.70L230.70,418.22L249.37,413.22L268.86,409.98L288.57,408.64L307.90,409.19L326.26,411.51L343.09,415.31L357.95,420.21L370.48,425.72L380.47,431.30L387.82,436.38L392.62,440.38L395.06,442.77L395.48,443.10L394.30,441.00L392.05,436.24L389.28,428.71L386.56,418.47L384.43,405.71L383.4,390.73L383.86,373.98L386.10,355.98L390.28,337.32L396.43,318.60L404.42,300.42L413.99,283.35L424.76,267.86L436.26,254.33L447.93,243.01L459.19,234.02L469.45,227.32L478.14,222.76L484.77,220.02L490.38,218.43L488.94,218.42L484.61,218.22L477.54,217.29L468.00,215.12L456.40,211.29L443.23,205.51L429.05,197.57L414.46,187.45L400.06,175.24L386.4,161.18L373.98,145.63L363.20,129.08L354.34,112.06L347.52,95.18L342.75,79.03L339.89,64.22L338.65,51.25L338.65,40.57L339.41,32.51L340.38,27.27L341.00,24.88L340.70,25.26L338.98,28.17L335.38,33.25L329.57,40.05L321.35,48.02L310.62,56.59L297.48,65.17L282.12,73.20L264.88,80.19L246.24,85.72L226.72,89.51L206.91,91.40L187.45,91.36L168.92,89.52L151.88,86.15L136.80,81.62L124.05,76.41L113.85,71.06L106.32,66.15L101.38,62.25L98.87,59.91L98.44,59.59L99.69,61.67L102.09,66.40L105.08,73.90L108.10,84.13L110.58,96.92L112.02,111.96L112.01,128.82L110.24,146.99L106.53,165.88L100.84,184.88L93.29,203.38L84.12,220.81L73.69,236.68L62.49,250.59L51.04,262.29L39.96,271.63L29.82,278.63L21.19,283.45L14.59,286.37L10.42,287.80L8.98,288.23L10.44,288.19L14.80,288.27L21.94,289.02L31.59,290.94L43.37,294.47L56.78,299.94L71.26,307.54L86.21,317.33L101.03,329.23L115.14,343.01L128.05,358.31L139.33,374.68L148.71,391.56L156.01,408.36L161.24,424.47L164.51,439.3L166.09,452.31L166.37,463.05L165.82,471.17L164.98,476.48L164.42,478.89L164.71,478.5L166.37,475.52L169.85,470.31L175.50,463.32L183.56,455.08L194.12,446.17L207.12,437.19L222.36,428.70L239.50,421.22L258.11,415.16L277.65,410.83L297.52,408.42L317.10,407.94L335.78,409.30L353.01,412.25L368.29,416.41L381.26,421.32L391.65,426.43L399.35,431.18L404.41,434.97L407,437.27L407.43,437.58L406.12,435.52L403.58,430.83L400.37,423.37L397.06,413.16L394.23,400.36L392.39,385.27L391.96,368.31L393.26,349.99L396.50,330.89L401.73,311.63L408.84,292.84L417.62,275.07L427.69,258.84L438.61,244.55L449.81,232.50L460.72,222.82L470.74,215.52L479.29,210.45L485.86,207.35L491.44,205.44L489.99,205.52L485.60,205.55L478.40,204.99L468.64,203.30L456.70,200.05L443.08,194.90L428.33,187.62L413.04,178.15L397.84,166.56L383.3,153.06L369.94,138.00L358.18,121.82L348.33,105.08L340.56,88.37L334.90,72.29L331.25,57.46L329.33,44.42L328.78,33.63L329.14,25.44L329.86,20.09L330.36,17.65L330.09,18.05L328.50,21.09L325.13,26.42L319.62,33.59L311.72,42.08L301.33,51.30L288.49,60.66L273.37,69.57L256.32,77.53L237.75,84.08L218.21,88.91L198.29,91.84L178.61,92.79L159.79,91.88L142.39,89.35L126.92,85.53L113.76,80.91L103.19,76.02L95.33,71.44L90.15,67.74L87.49,65.49L87.05,65.19L88.42,67.22L91.10,71.88L94.51,79.30L98.09,89.48L101.25,102.28L103.48,117.41L104.33,134.46L103.46,152.92L100.67,172.2L95.88,191.69L89.18,210.77L80.79,228.85L71.05,245.42L60.42,260.05L49.44,272.44L38.69,282.44L28.79,290.02L20.31,295.32L13.78,298.60L9.63,300.24L8.19,300.73L9.66,300.62L14.07,300.47L21.33,300.86L31.18,302.31L43.27,305.28L57.09,310.14L72.11,317.09L87.72,326.24L103.29,337.53L118.24,350.76L132.05,365.59L144.27,381.57L154.58,398.18L162.80,414.81L168.87,430.84L172.90,445.67L175.14,458.75L175.94,469.59L175.78,477.83L175.18,483.24L174.72,485.71L174.98,485.29L176.50,482.20L179.76,476.76L185.12,469.40L192.87,460.68L203.10,451.15L215.79,441.43L230.78,432.10L247.75,423.69L266.27,416.65L285.81,411.33L305.78,407.92L325.56,406.49L344.52,406.96L362.08,409.11L377.74,412.58L391.08,416.93L401.84,421.60L409.86,426.04L415.15,429.64L417.87,431.84L418.32,432.15L416.89,430.14L414.09,425.52L410.47,418.14L406.63,407.98L403.15,395.18L400.55,380.01L399.29,362.87L399.74,344.28L402.10,324.82L406.46,305.09L412.76,285.74L420.79,267.35L430.21,250.46L440.57,235.49L451.34,222.77L461.92,212.47L471.71,204.61L480.13,199.09L486.63,195.64L492.20,193.46L490.73,193.62L486.30,193.87L478.99,193.65L469.04,192.42L456.82,189.70L442.80,185.13L427.53,178.47L411.62,169.62L395.70,158.61L380.35,145.63L366.13,131.02L353.48,115.20L342.73,98.72L334.10,82.17L327.63,66.17L323.24,51.32L320.70,38.21L319.66,27.31L319.65,19.01L320.14,13.56L320.55,11.06L320.31,11.48L318.85,14.63L315.70,20.18L310.47,27.70L302.88,36.66L292.79,46.47L280.23,56.53L265.35,66.25L248.45,75.09L229.97,82.58L210.41,88.36L190.38,92.23L170.51,94.10L151.41,94.03L133.69,92.25L117.85,89.09L104.32,85.00L93.40,80.52L85.23,76.22L79.82,72.70L77.03,70.54L76.58,70.23L78.07,72.22L80.99,76.80L84.79,84.15L88.88,94.29L92.67,107.10L95.61,122.32L97.24,139.54L97.19,158.26L95.23,177.91L91.26,197.86L85.33,217.48L77.63,236.16L68.50,253.37L58.38,268.66L47.81,281.70L37.36,292.30L27.66,300.41L19.30,306.14L12.82,309.75L8.68,311.59L7.24,312.14L8.71,311.95L13.16,311.59L20.52,311.65L30.57,312.68L42.94,315.15L57.16,319.45L72.67,325.83L88.88,334.41L105.15,345.16L120.88,357.91L135.52,372.33L148.59,387.99L159.76,404.37L168.81,420.87L175.65,436.85L180.38,451.72L183.20,464.88L184.47,475.84L184.65,484.20L184.26,489.71L183.89,492.24L184.12,491.81L185.52,488.61L188.57,482.96L193.68,475.27L201.14,466.09L211.09,455.99L223.54,445.59L238.33,435.49L255.16,426.24L273.64,418.32L293.22,412.09L313.32,407.78L333.31,405.50L352.56,405.18L370.46,406.62L386.48,409.49L400.2,413.34L411.30,417.64L419.62,421.81L425.14,425.26L427.99,427.39L428.45,427.70L426.91,425.73L423.87,421.18L419.89,413.86L415.56,403.72L411.49,390.89L408.21,375.62L406.22,358.3L405.89,339.43L407.48,319.58L411.08,299.40L416.68,279.50L424.06,260.52L432.93,242.99L442.83,227.38L453.24,214.03L463.57,203.14L473.19,194.77L481.52,188.83L487.99,185.07L493.57,182.64L492.09,182.87L487.62,183.32L480.20,183.41L470.06,182.57L457.54,180.32L443.13,176.26L427.36,170.13L410.86,161.79L394.25,151.27L378.15,138.72L363.12,124.45L349.64,108.90L338.07,92.60L328.65,76.13L321.44,60.14L316.40,45.24L313.31,32.01L311.83,20.98L311.50,12.54L311.80,6.98L312.13,4.42L311.92,4.85L310.58,8.10L307.62,13.86L302.61,21.71L295.26,31.11L285.42,41.47L273.06,52.19L258.34,62.65L241.53,72.29L223.04,80.62L203.40,87.27L183.21,91.98L163.08,94.64L143.67,95.32L125.59,94.19L109.37,91.58L95.46,87.94L84.18,83.79L75.71,79.72L70.08,76.34L67.17,74.23L66.70,73.92L68.29,75.87L71.44,80.39L75.60,87.71L80.15,97.85L84.49,110.72L88.07,126.06L90.39,143.50L91.06,162.53L89.82,182.58L86.53,203.02L81.25,223.19L74.12,242.48L65.48,260.32L55.76,276.25L45.48,289.91L35.25,301.07L25.67,309.68L17.36,315.82L10.89,319.72L6.74,321.74L5.28,322.35L6.75,322.08L11.26,321.54L18.74,321.32L28.99,321.98L41.66,324.02L56.28,327.86L72.30,333.77L89.10,341.90L106.06,352.24L122.53,364.63L137.95,378.77L151.83,394.24L163.79,410.50L173.59,426.97L181.13,443.00L186.47,457.96L189.82,471.27L191.50,482.39L191.97,490.91L191.75,496.54L191.45,499.13L191.65,498.69L192.94,495.39L195.82,489.53L200.74,481.52L207.99,471.90L217.76,461.26L230.05,450.23L244.74,439.42L261.56,429.40L280.09,420.67L299.81,413.63L320.14,408.54L340.42,405.52L360.02,404.52L378.31,405.37L394.74,407.74L408.85,411.20L420.32,415.21L428.94,419.19L434.68,422.52L437.66,424.62L438.14,424.93L436.50,423L433.24,418.48L428.92,411.17L424.15,401.01L419.55,388.08L415.68,372.64L413.05,355.06L412.07,335.83L413.00,315.56L415.99,294.86L421.02,274.38L427.91,254.78L436.36,236.60L445.94,220.35L456.12,206.39L466.29,194.94L475.84,186.09L484.15,179.76L490.64,175.72L496.26,173.06L494.78,173.36L490.24,173.98L482.69,174.33L472.33,173.83L459.50,171.96L444.66,168.31L428.38,162.58L411.27,154.63L393.98,144.44L377.14,132.16L361.34,118.10L347.08,102.67L334.75,86.40L324.59,69.90L316.73,53.80L311.12,38.75L307.54,25.34L305.69,14.12L305.09,5.51L305.23,0L304.44,0L304.08,0.97L301.26,6.95L296.41,15.11L289.23,24.94L279.51,35.84L267.25,47.18L252.55,58.33L235.69,68.70L217.09,77.79L197.24,85.20L176.75,90.63L156.28,93.98L136.47,95.27L117.96,94.67L101.31,92.50L86.99,89.19L75.33,85.29L66.55,81.38L60.69,78.07L57.65,75.99L57.17,75.67L58.86,77.59L62.23,82.10L66.70,89.43L71.66,99.64L76.50,112.65L80.63,128.21L83.54,145.96L84.80,165.39L84.14,185.91L81.40,206.90L76.59,227.68L69.88,247.61L61.57,266.11L52.10,282.68L41.98,296.95L31.83,308.66L22.28,317.75L13.95,324.26L7.43,328.43L3.22,330.61L1.73,331.26L3.22,330.93L7.80,330.23L15.43,329.77L25.93,330.13L38.94,331.85L54,335.34L70.56,340.91L87.98,348.73L105.62,358.82L122.82,371.02L139.00,385.05L153.64,400.48L166.34,416.79L176.83,433.37L185.00,449.57L190.88,464.75L194.66,478.28L196.68,489.62L197.38,498.34L197.36,500L199.77,500L201.20,496.85L206.00,488.52L213.14,478.47L222.83,467.31L235.10,455.67L249.84,444.20L266.78,433.48L285.51,424.04L305.52,416.30L326.20,410.53L346.89,406.89L366.94,405.35L385.70,405.74L402.60,407.74L417.15,410.92L429.00,414.74L437.94,418.60L443.92,421.89L447.02,423.97L447.51,424.30L445.78,422.39L442.31,417.87L437.69,410.50L432.53,400.23L427.47,387.11L423.09,371.39L419.94,353.45L418.42,333.79L418.86,312.98L421.38,291.69L426.01,270.58L432.58,250.31L440.79,231.46L450.21,214.56L460.29,199.99L470.45,188.01L480.04,178.70L488.41,172.00L494.98,167.71L500,165.20L500,165.02L499.20,165.21L494.57,165.97L486.85,166.53L476.22,166.29L463.02,164.70L447.72,161.34L430.88,155.88L413.14,148.14L395.16,138.12L377.59,125.94L361.04,111.90L346.04,96.42L333.00,80.02L322.20,63.33L313.75,46.99L307.64,31.67L303.67,17.99L301.51,6.51L300.92,0L296.47,0L292.14,7.71L285.01,17.97L275.31,29.38L262.99,41.30L248.17,53.09L231.11,64.13L212.22,73.88L192.02,81.93L171.11,87.98L150.17,91.88L129.86,93.63L110.83,93.42L93.68,91.55L78.89,88.47L66.84,84.70L57.74,80.86L51.65,77.58L48.48,75.48L47.98,75.14L49.77,77.06L53.33,81.60L58.10,89.01L63.43,99.38L68.69,112.62L73.28,128.51L76.65,146.67L78.37,166.60L78.13,187.70L75.76,209.32L71.26,230.76L64.79,251.39L56.63,270.57L47.23,287.79L37.13,302.66L26.93,314.91L17.28,324.43L8.84,331.29L2.21,335.70L0,336.89L0,337.94L2.57,337.48L10.40,336.84L21.18,336.98L34.59,338.47L50.14,341.74L67.27,347.13L85.33,354.81L103.66,364.82L121.59,377.02L138.50,391.13L153.86,406.71L167.23,423.24L178.33,440.09L187.03,456.60L193.36,472.10L197.50,485.95L199.78,497.59L200.01,500L207.18,500L209.21,496.3L216.35,485.83L226.10,474.17L238.50,461.96L253.44,449.88L270.66,438.54L289.76,428.49L310.20,420.16L331.37,413.86L352.60,409.75L373.20,407.81L392.51,407.88L409.93,409.65L424.97,412.68L437.23,416.42L446.50,420.26L452.70,423.56L455.93,425.67L456.43,426.02L454.60,424.10L450.94,419.52L446.05,412.04L440.55,401.56L435.11,388.16L430.33,372.07L426.77,353.66L424.88,333.45L424.97,312.03L427.22,290.07L431.64,268.26L438.07,247.28L446.22,227.75L455.65,210.20L465.81,195.04L476.09,182.54L485.82,172.81L494.35,165.79L500,161.99L500,159.61L492.71,160.26L481.77,160.19L468.16,158.78L452.35,155.57L434.93,150.21L416.54,142.53L397.87,132.48L379.59,120.21L362.34,106.00L346.66,90.27L332.99,73.58L321.62,56.53L312.69,39.82L306.18,24.12L301.90,10.08L299.87,0L289.78,0L282.83,10.31L273.01,22.21L260.50,34.67L245.40,47.02L227.98,58.63L208.64,68.94L187.94,77.51L166.47,84.01L144.94,88.31L124.03,90.38L104.42,90.40L86.72,88.69L71.44,85.68L58.97,81.94L49.55,78.08L43.24,74.75L39.95,72.61L39.44,72.25L41.32,74.19L45.06,78.81L50.07,86.37L55.71,96.98L61.31,110.56L66.24,126.87L69.95,145.55L71.97,166.06L71.98,187.81L69.80,210.12L65.41,232.29L58.97,253.62L50.78,273.49L41.28,291.35L31.03,306.79L20.64,319.52L10.79,329.44L2.15,336.60L0,338.06L0,342.56L3.75,342.20L14.87,342.22L28.70,343.58L44.77,346.78L62.49,352.14L81.20,359.87L100.21,370.00L118.83,382.39L136.41,396.76L152.39,412.68L166.35,429.59L177.96,446.86L187.09,463.81L193.75,479.73L198.14,493.99L199.37,500L213.21,500L217.43,493.69L227.36,481.56L240.03,468.86L255.32,456.26L272.98,444.40L292.59,433.87L313.60,425.10L335.38,418.42L357.25,414.00L378.48,411.84L398.40,411.76L416.39,413.46L431.92,416.48L444.60,420.26L454.18,424.16L460.60,427.53L463.94,429.70L464.45,430.08L462.53,428.13L458.71,423.45L453.59,415.78L447.83,405.02L442.10,391.25L437.04,374.68L433.23,355.72L431.12,334.88L431.06,312.79L433.22,290.12L437.63,267.59L444.12,245.91L452.40,225.70L462.02,207.54L472.42,191.84L482.95,178.88L492.94,168.79L500,162.93L500,155.91L488.74,155.92L474.68,154.56L458.36,151.35L440.35,145.93L421.33,138.12L402.01,127.86L383.08,115.30L365.20,100.73L348.94,84.59L334.76,67.43L322.94,49.90L313.66,32.70L306.87,16.52L302.41,2.05L301.99,0L284.49,0L282.90,2.40L272.82,14.73L259.97,27.64L244.45,40.45L226.52,52.51L206.62,63.23L185.28,72.14L163.16,78.94L140.96,83.44L119.39,85.64L99.16,85.72L80.89,84.00L65.12,80.93L52.25,77.09L42.52,73.12L36.00,69.69L32.62,67.48L32.11,67.09L34.06,69.07L37.96,73.81L43.17,81.59L49.03,92.51L54.85,106.50L60.00,123.32L63.88,142.58L66.02,163.74L66.08,186.18L63.88,209.20L59.40,232.08L52.80,254.1L44.38,274.61L34.60,293.05L24.03,308.99L13.33,322.14L3.17,332.38L0,335L0,345.41L7.36,345.40L21.63,346.79L38.22,350.05L56.50,355.56L75.82,363.51L95.44,373.94L114.65,386.72L132.79,401.54L149.29,417.95L163.68,435.40L175.65,453.21L185.06,470.70L191.93,487.13L195.87,500L217.39,500L226.42,488.98L239.49,475.88L255.27,462.88L273.50,450.67L293.73,439.82L315.41,430.80L337.89,423.94L360.44,419.42L382.35,417.22L402.89,417.19L421.44,418.98L437.44,422.13L450.50,426.07L460.37,430.13L466.97,433.63L470.39,435.90L470.90,436.30L468.91,434.29L464.96,429.47L459.68,421.56L453.75,410.46L447.86,396.24L442.67,379.15L438.77,359.59L436.65,338.10L436.64,315.31L438.93,291.94L443.54,268.72L450.30,246.38L458.91,225.58L468.89,206.89L479.67,190.74L490.58,177.43L500,168.00L500,153.92L496.66,153.92L482.17,152.48L465.35,149.12L446.8,143.47L427.22,135.34L407.34,124.69L387.88,111.67L369.52,96.57L352.83,79.85L338.29,62.10L326.21,43.97L316.73,26.19L309.83,9.48L306.96,0L281.12,0L274.92,7.53L261.60,20.78L245.54,33.90L227.00,46.22L206.42,57.15L184.38,66.22L161.55,73.08L138.65,77.57L116.41,79.70L95.57,79.64L76.76,77.73L60.54,74.46L47.31,70.40L37.32,66.23L30.66,62.64L27.20,60.32L26.70,59.90L28.72,61.94L32.71,66.85L38.04,74.89L44.02,86.18L49.94,100.63L55.13,117.99L58.99,137.86L61.05,159.67L60.95,182.79L58.51,206.49L53.72,230.01L46.74,252.64L37.90,273.69L27.68,292.60L16.66,308.92L5.52,322.35L0,327.82L0,346.17L13.85,347.62L30.91,351.12L49.69,356.94L69.51,365.3L89.61,376.21L109.28,389.54L127.82,404.96L144.64,422.01L159.28,440.11L171.43,458.57L180.93,476.66L187.82,493.64L189.70,500L219.62,500L223.13,495.79L236.71,482.44L253.09,469.23L271.97,456.85L292.90,445.90L315.31,436.85L338.50,430.05L361.76,425.65L384.31,423.64L405.45,423.85L424.50,425.92L440.92,429.36L454.29,433.57L464.38,437.88L471.11,441.57L474.58,443.95L475.08,444.38L473.04,442.31L469.01,437.31L463.65,429.11L457.67,417.63L451.76,402.94L446.62,385.30L442.84,365.13L440.91,343.00L441.18,319.57L443.83,295.57L448.86,271.76L456.10,248.88L465.22,227.61L475.73,208.53L487.02,192.08L498.42,178.55L500,177.02L500,154.07L490.10,152.96L472.85,149.29L453.86,143.24L433.84,134.63L413.56,123.41L393.75,109.75L375.09,93.98L358.19,76.57L343.50,58.12L331.36,39.32L321.89,20.92L315.06,3.66L314.01,0L280.45,0L279.39,1.25L265.52,14.66L248.82,27.90L229.60,40.27L208.30,51.18L185.53,60.14L161.98,66.82L138.39,71.07L115.54,72.89L94.15,72.49L74.88,70.22L58.29,66.58L44.79,62.19L34.63,57.73L27.86,53.92L24.37,51.47L23.88,51.03L25.94,53.14L29.99,58.24L35.34,66.59L41.31,78.27L47.16,93.20L52.20,111.10L55.84,131.55L57.59,153.98L57.10,177.70L54.19,201.97L48.87,226.02L41.31,249.11L31.88,270.55L21.05,289.75L9.45,306.28L0,317.27L0,345.01L5.90,345.72L23.33,349.61L42.49,355.92L62.66,364.85L83.08,376.41L102.99,390.44L121.70,406.60L138.63,424.40L153.28,443.22L165.37,462.38L174.75,481.10L181.47,498.64L181.84,500L218.93,500L231.63,487.97L248.67,474.76L268.26,462.46L289.92,451.66L313.06,442.85L336.95,436.35L360.86,432.33L384.00,430.75L405.63,431.41L425.09,433.93L441.82,437.81L455.41,442.41L465.63,447.04L472.42,450.98L475.91,453.50L476.39,453.96L474.32,451.80L470.28,446.60L464.94,438.1L459.04,426.22L453.29,411.05L448.39,392.88L444.95,372.15L443.45,349.46L444.23,325.48L447.46,300.97L453.13,276.72L461.05,253.47L470.85,231.91L482.03,212.62L493.96,196.06L500,189.21L500,156.57L497.96,156.29L480.39,152.15L461.10,145.54L440.82,136.27L420.33,124.34L400.38,109.92L381.67,93.35L364.80,75.15L350.23,55.94L338.26,36.44L329.03,17.40L322.62,0L282.34,0L271.73,9.79L254.35,22.92L234.40,35.10L212.37,45.72L188.89,54.31L164.66,60.55L140.47,64.30L117.08,65.58L95.24,64.62L75.63,61.80L58.79,57.66L45.13,52.82L34.88,47.99L28.09,43.92L24.61,41.32L24.15,40.85L26.22,43.05L30.24,48.36L35.52,57.02L41.33,69.10L46.93,84.50L51.63,102.91L54.83,123.89L56.03,146.83L54.91,171.03L51.31,195.73L45.25,220.14L36.93,243.50L26.72,265.12L15.16,284.43L2.88,300.97L0,304.15L0,341.36L15.92,345.35L35.30,352.31L55.63,361.96L76.14,374.31L96.06,389.16L114.70,406.16L131.45,424.78L145.87,444.39L157.65,464.25L166.68,483.60L172.43,500L215.46,500L224.30,492.08L242.05,479.10L262.37,467.12L284.75,456.74L308.58,448.44L333.12,442.52L357.58,439.13L381.20,438.21L403.20,439.52L422.94,442.68L439.85,447.13L453.55,452.24L463.80,457.27L470.58,461.49L474.03,464.17L474.48,464.66L472.41,462.40L468.43,456.99L463.24,448.17L457.56,435.89L452.15,420.27L447.70,401.62L444.81,380.41L443.97,357.25L445.49,332.86L449.52,308.02L456.03,283.5L464.81,260.08L475.45,238.45L487.43,219.18L500,202.81L500,161.10L487.6,157.78L468.17,150.45L447.84,140.39L427.37,127.60L407.53,112.30L389.04,94.86L372.46,75.81L358.26,55.81L346.73,35.59L337.97,15.94L332.68,0L287.60,0L280.11,6.48L262.01,19.26L241.33,30.98L218.59,41.05L194.45,49.00L169.63,54.54L144.92,57.53L121.11,58.04L98.97,56.33L79.15,52.80L62.20,48.01L48.50,42.62L38.26,37.37L31.52,32.99L28.10,30.22L27.66,29.72L29.72,32.03L33.64,37.56L38.73,46.53L44.23,59.00L49.41,74.83L53.57,93.70L56.10,115.11L56.55,138.45L54.58,162.99L50.07,187.94L43.07,212.51L33.81,235.94L22.70,257.52L10.29,276.71L0,289.61L0,335.80L8.96,338.38L28.39,346.12L48.68,356.63L69.05,369.89L88.73,385.67L107.03,403.58L123.35,423.07L137.26,443.48L148.48,464.06L156.93,484.01L161.90,500L208.41,500L214.92,494.57L233.39,482.06L254.43,470.66L277.51,460.96L301.97,453.43L327.06,448.35L351.98,445.82L375.95,445.77L398.19,447.94L418.07,451.89L435.03,457.05L448.70,462.74L458.89,468.24L465.58,472.78L468.96,475.64L469.38,476.15L467.34,473.79L463.50,468.15L458.55,459.02L453.25,446.36L448.35,430.33L444.54,411.26L442.41,389.66L442.43,366.17L444.90,341.52L449.94,316.51L457.48,291.93L467.27,268.55L478.88,247.05L491.76,228.01L500,218.10L500,167.77L494.29,166.01L474.90,157.83L454.7,146.85L434.48,133.10L415.01,116.83L396.97,98.44L380.96,78.51L367.38,57.70L356.52,36.78L348.45,16.54L343.68,0L296.38,0L290.41,4.78L271.58,16.98L250.19,28.00L226.78,37.27L202.03,44.33L176.70,48.91L151.58,50.92L127.49,50.47L105.17,47.82L85.28,43.43L68.34,37.88L54.72,31.85L44.60,26.11L37.98,21.40L34.65,18.45L34.25,17.92L36.25,20.33L40.01,26.08L44.80,35.37L49.86,48.21L54.45,64.43L57.88,83.68L59.56,105.44L59.04,129.05L56.03,153.78L50.43,178.81L42.32,203.36L31.97,226.64L19.83,248.00L6.47,266.86L0,274.31L0,328.12L2.55,328.97L21.85,337.61L41.91,349.1L61.93,363.37L81.14,380.15L98.85,399.04L114.50,419.43L127.67,440.65L138.11,461.92L145.77,482.44L150.40,500L197.91,500L203.77,495.53L222.97,483.70L244.72,473.11L268.45,464.33L293.48,457.80L319.04,453.78L344.31,452.34L368.51,453.36L390.87,456.53L410.76,461.41L427.64,467.38L441.19,473.75L451.21,479.76L457.75,484.65L461.02,487.70L461.40,488.24L459.44,485.77L455.79,479.91L451.19,470.47L446.40,457.46L442.16,441.05L439.16,421.63L437.97,399.73L439.05,376.01L442.65,351.24L448.86,326.22L457.58,301.75L468.52,278.60L481.23,257.44L495.09,238.81L500,233.42L500,176.27L481.26,167.35L461.38,155.34L441.61,140.54L422.71,123.23L405.37,103.85L390.13,82.99L377.40,61.37L367.42,39.76L360.22,18.97L355.70,0L308.48,0L302.33,4.47L282.76,15.90L260.67,26.02L236.63,34.26L211.33,40.22L185.56,43.64L160.14,44.48L135.87,42.87L113.49,39.14L93.64,33.76L76.82,27.35L63.38,20.62L53.46,14.34L47.01,9.26L43.81,6.12L43.45,5.56L45.36,8.09L48.89,14.06L53.29,23.65L57.79,36.84L61.65,53.42L64.20,72.99L64.86,95.01L63.20,118.80L58.98,143.59L52.13,168.57L42.77,192.93L31.22,215.91L17.94,236.85L3.56,255.21L0,258.93L0,319.25L15.63,327.17L35.29,339.73L54.77,355.10L73.31,372.96L90.25,392.86L105.02,414.20L117.25,436.23L126.72,458.19L133.42,479.25L137.53,498.64L137.68,500L184.27,500L191.14,495.27L211.08,484.29L233.53,474.70L257.89,467.03L283.44,461.70L309.41,458.93L334.96,458.74L359.29,460.98L381.68,465.31L401.47,471.23L418.19,478.11L431.51,485.22L441.31,491.79L447.65,497.06L450.49,500L450.49,500L449.26,498.29L445.87,492.21L441.70,482.47L437.51,469.11L434.06,452.36L432.01,432.63L431.92,410.50L434.20,386.65L439.09,361.87L446.62,336.96L456.65,312.74L468.86,289.97L482.75,269.29L497.67,251.22L500,248.91L500,185.37L487.41,178.58L467.99,165.46L448.83,149.53L430.67,131.10L414.19,110.67L399.91,88.86L388.20,66.41L379.27,44.11L373.09,22.78L369.48,3.20L369.21,0L323.56,0L315.59,5.18L295.27,15.68L272.48,24.73L247.81,31.78L222,36.46L195.85,38.56L170.18,38.07L145.80,35.17L123.43,30.23L103.71,23.75L87.10,16.40L73.91,8.90L64.24,2.03L61.93,0L58.91,0L59.68,1.47L63.62,11.37L67.47,24.89L70.49,41.81L72.03,61.68L71.53,83.91L68.6,107.80L63.03,132.57L54.80,157.38L44.07,181.44L31.20,203.99L16.69,224.39L1.21,242.14L0,243.28L0,309.79L9.49,315.25L28.64,328.97L47.46,345.50L65.19,364.51L81.19,385.49L94.94,407.79L106.08,430.68L114.44,453.33L120.06,474.93L123.14,494.70L123.43,500L167.85,500L177.30,494.22L198.00,484.23L221.16,475.77L246.15,469.37L272.21,465.38L298.55,464.00L324.33,465.21L348.75,468.80L371.09,474.40L390.73,481.46L407.22,489.32L420.27,497.23L423.95,500L432.47,500L430.67,495.07L427.18,481.36L424.61,464.28L423.62,444.28L424.75,421.94L428.36,398.01L434.64,373.28L443.62,348.57L455.08,324.69L468.65,302.39L483.81,282.29L499.87,264.89L500,264.77"/>

  </g>
</svg>
