<?xml version="1.0" standalone="no"?>
<!DOCTYPE svg PUBLIC "-//W3C//DTD SVG 1.1//EN" "http://www.w3.org/Graphics/SVG/1.1/DTD/svg11.dtd">
<svg width="500" height="500" title="polygons" version="1.1" viewBox="0 0 500 500" xmlns="http://www.w3.org/2000/svg" class="svg-paper">
  <g>
    <!--  Created by Sandify -->
    <!--  https://sandify.org -->
    <!--  Version: 0.2.8 -->

    <!--  Machine type: Rectangular -->
    <!--    Min X (mm): 0 -->
    <!--    Max X (mm): 500 -->
    <!--    Min Y (mm): 0 -->
    <!--    Max Y (mm): 500 -->
    <!--  Content type: shape -->
    <!--  Layer: -->
    <!--    Shape: Text -->
    <!--    Name: bubbles -->
    <!--    Text: Yume -->
    <!--    Font: Monospace -->
    <!--    Rotate: Center -->
    <!--    Visible: true -->
    <!--    Initial width: 32 -->
    <!--    Initial height: 32 -->
    <!--    X offset: 0 -->
    <!--    Y offset: 0 -->
    <!--    Rotate (degrees): 0 -->
    <!--    Reverse path: false -->
    <!--    Fine tuning: -->
    <!--      Connect to next layer: along perimeter -->
    <!--      Draw portion of path (%): 100 -->
    <!--      Backtrack at end (%): 0 -->
    <!--      Rotate starting point (%): 0 -->
    <!--  Reverse export path: false -->

    <!-- File name: 'yume' -->
    <!-- File type: svg -->


    <desc>pwidth:500;pheight:500;</desc>
    <path
       stroke="#000000"
       stroke-width="0.4mm"
       fill="none"
       d="M175,302L175,302L175,248L154,206L175,248L196,206L175,248L175,302L202,302L223,302L223,290L221.97,289.95L220.94,289.80L219.92,289.55L218.90,289.19L217.90,288.74L216.90,288.19L215.93,287.55L214.96,286.80L214.02,285.97L213.10,285.04L212.20,284.02L211.33,282.92L210.49,281.74L209.68,280.47L208.90,279.12L208.15,277.70L207.44,276.20L206.77,274.64L206.13,273.02L205.54,271.33L204.99,269.59L204.48,267.80L204.02,265.96L203.60,264.07L203.23,262.15L202.90,260.19L202.63,258.21L202.40,256.19L202.23,254.16L202.10,252.12L202.03,250.06L202,248L202,206L202,248L202.03,250.06L202.10,252.12L202.23,254.16L202.40,256.19L202.63,258.21L202.90,260.19L203.23,262.15L203.60,264.07L204.02,265.96L204.48,267.80L204.99,269.59L205.54,271.33L206.13,273.02L206.77,274.64L207.44,276.20L208.15,277.70L208.90,279.12L209.68,280.47L210.49,281.74L211.33,282.92L212.20,284.02L213.10,285.04L214.02,285.97L214.96,286.80L215.93,287.55L216.90,288.19L217.90,288.74L218.90,289.19L219.92,289.55L220.94,289.80L221.97,289.95L223,290L224.03,289.95L225.06,289.80L226.08,289.55L227.10,289.19L228.10,288.74L229.10,288.19L230.07,287.55L231.04,286.80L231.98,285.97L232.90,285.04L233.80,284.02L234.67,282.92L235.51,281.74L236.32,280.47L237.10,279.12L237.85,277.70L238.56,276.20L239.23,274.64L239.87,273.02L240.46,271.33L241.01,269.59L241.52,267.80L241.98,265.96L242.40,264.07L242.77,262.15L243.10,260.19L243.37,258.21L243.60,256.19L243.77,254.16L243.90,252.12L243.97,250.06L244,248L244,206L244,248L243.97,250.06L243.90,252.12L243.77,254.16L243.60,256.19L243.37,258.21L243.10,260.19L242.77,262.15L242.40,264.07L241.98,265.96L241.52,267.80L241.01,269.59L240.46,271.33L239.87,273.02L239.23,274.64L238.56,276.20L237.85,277.70L237.10,279.12L236.32,280.47L235.51,281.74L234.67,282.92L233.80,284.02L232.90,285.04L231.98,285.97L231.04,286.80L230.07,287.55L229.10,288.19L228.10,288.74L227.10,289.19L226.08,289.55L225.06,289.80L224.03,289.95L223,290L223,302L250,302L250,290L250,206L271,290L292,206L292,290L292,206L271,290L250,206L250,290L250,302L298,302L298,290L298,206L340,206L298,206L298,248L319,248L298,248L298,290L340,290L298,290L298,302L346,302"/>

  </g>
</svg>
